<svg width="149" height="149" viewBox="0 0 149 149" fill="none" xmlns="http://www.w3.org/2000/svg">
<rect width="149" height="149" fill="white"/>
<path d="M20.0227 86V62.7273H29.2045C30.9697 62.7273 32.4735 63.0644 33.7159 63.7386C34.9583 64.4053 35.9053 65.3333 36.5568 66.5227C37.2159 67.7045 37.5455 69.0682 37.5455 70.6136C37.5455 72.1591 37.2121 73.5227 36.5455 74.7045C35.8788 75.8864 34.9129 76.8068 33.6477 77.4659C32.3902 78.125 30.8674 78.4545 29.0795 78.4545H23.2273V74.5114H28.2841C29.2311 74.5114 30.0114 74.3485 30.625 74.0227C31.2462 73.6894 31.7083 73.2311 32.0114 72.6477C32.322 72.0568 32.4773 71.3788 32.4773 70.6136C32.4773 69.8409 32.322 69.1667 32.0114 68.5909C31.7083 68.0076 31.2462 67.5568 30.625 67.2386C30.0038 66.9129 29.2159 66.75 28.2614 66.75H24.9432V86H20.0227ZM40.7415 86V62.7273H45.6619V72.3295H55.6506V62.7273H60.5597V86H55.6506V76.3864H45.6619V86H40.7415ZM86.0028 74.3636C86.0028 76.9015 85.5218 79.0606 84.5597 80.8409C83.6051 82.6212 82.3021 83.9811 80.6506 84.9205C79.0066 85.8523 77.1581 86.3182 75.1051 86.3182C73.0369 86.3182 71.1809 85.8485 69.5369 84.9091C67.893 83.9697 66.5938 82.6098 65.6392 80.8295C64.6847 79.0492 64.2074 76.8939 64.2074 74.3636C64.2074 71.8258 64.6847 69.6667 65.6392 67.8864C66.5938 66.1061 67.893 64.75 69.5369 63.8182C71.1809 62.8788 73.0369 62.4091 75.1051 62.4091C77.1581 62.4091 79.0066 62.8788 80.6506 63.8182C82.3021 64.75 83.6051 66.1061 84.5597 67.8864C85.5218 69.6667 86.0028 71.8258 86.0028 74.3636ZM81.0142 74.3636C81.0142 72.7197 80.768 71.3333 80.2756 70.2045C79.7907 69.0758 79.1051 68.2197 78.2188 67.6364C77.3324 67.053 76.2945 66.7614 75.1051 66.7614C73.9157 66.7614 72.8778 67.053 71.9915 67.6364C71.1051 68.2197 70.4157 69.0758 69.9233 70.2045C69.4384 71.3333 69.196 72.7197 69.196 74.3636C69.196 76.0076 69.4384 77.3939 69.9233 78.5227C70.4157 79.6515 71.1051 80.5076 71.9915 81.0909C72.8778 81.6742 73.9157 81.9659 75.1051 81.9659C76.2945 81.9659 77.3324 81.6742 78.2188 81.0909C79.1051 80.5076 79.7907 79.6515 80.2756 78.5227C80.768 77.3939 81.0142 76.0076 81.0142 74.3636ZM87.6989 66.7841V62.7273H106.812V66.7841H99.6875V86H94.8239V66.7841H87.6989ZM130.284 74.3636C130.284 76.9015 129.803 79.0606 128.841 80.8409C127.886 82.6212 126.583 83.9811 124.932 84.9205C123.288 85.8523 121.439 86.3182 119.386 86.3182C117.318 86.3182 115.462 85.8485 113.818 84.9091C112.174 83.9697 110.875 82.6098 109.92 80.8295C108.966 79.0492 108.489 76.8939 108.489 74.3636C108.489 71.8258 108.966 69.6667 109.92 67.8864C110.875 66.1061 112.174 64.75 113.818 63.8182C115.462 62.8788 117.318 62.4091 119.386 62.4091C121.439 62.4091 123.288 62.8788 124.932 63.8182C126.583 64.75 127.886 66.1061 128.841 67.8864C129.803 69.6667 130.284 71.8258 130.284 74.3636ZM125.295 74.3636C125.295 72.7197 125.049 71.3333 124.557 70.2045C124.072 69.0758 123.386 68.2197 122.5 67.6364C121.614 67.053 120.576 66.7614 119.386 66.7614C118.197 66.7614 117.159 67.053 116.273 67.6364C115.386 68.2197 114.697 69.0758 114.205 70.2045C113.72 71.3333 113.477 72.7197 113.477 74.3636C113.477 76.0076 113.72 77.3939 114.205 78.5227C114.697 79.6515 115.386 80.5076 116.273 81.0909C117.159 81.6742 118.197 81.9659 119.386 81.9659C120.576 81.9659 121.614 81.6742 122.5 81.0909C123.386 80.5076 124.072 79.6515 124.557 78.5227C125.049 77.3939 125.295 76.0076 125.295 74.3636Z" fill="#E6D9D9"/>
</svg>
