<svg width="149" height="149" viewBox="0 0 149 149" fill="none" xmlns="http://www.w3.org/2000/svg">
<rect width="149" height="149" fill="white"/>
<path d="M30.0227 86V62.7273H34.9432V81.9432H44.9205V86H30.0227ZM68.6591 74.3636C68.6591 76.9015 68.178 79.0606 67.2159 80.8409C66.2614 82.6212 64.9583 83.9811 63.3068 84.9205C61.6629 85.8523 59.8144 86.3182 57.7614 86.3182C55.6932 86.3182 53.8371 85.8485 52.1932 84.9091C50.5492 83.9697 49.25 82.6098 48.2955 80.8295C47.3409 79.0492 46.8636 76.8939 46.8636 74.3636C46.8636 71.8258 47.3409 69.6667 48.2955 67.8864C49.25 66.1061 50.5492 64.75 52.1932 63.8182C53.8371 62.8788 55.6932 62.4091 57.7614 62.4091C59.8144 62.4091 61.6629 62.8788 63.3068 63.8182C64.9583 64.75 66.2614 66.1061 67.2159 67.8864C68.178 69.6667 68.6591 71.8258 68.6591 74.3636ZM63.6705 74.3636C63.6705 72.7197 63.4242 71.3333 62.9318 70.2045C62.447 69.0758 61.7614 68.2197 60.875 67.6364C59.9886 67.053 58.9508 66.7614 57.7614 66.7614C56.572 66.7614 55.5341 67.053 54.6477 67.6364C53.7614 68.2197 53.072 69.0758 52.5795 70.2045C52.0947 71.3333 51.8523 72.7197 51.8523 74.3636C51.8523 76.0076 52.0947 77.3939 52.5795 78.5227C53.072 79.6515 53.7614 80.5076 54.6477 81.0909C55.5341 81.6742 56.572 81.9659 57.7614 81.9659C58.9508 81.9659 59.9886 81.6742 60.875 81.0909C61.7614 80.5076 62.447 79.6515 62.9318 78.5227C63.4242 77.3939 63.6705 76.0076 63.6705 74.3636ZM87.7358 70.25C87.5767 69.697 87.3532 69.2083 87.0653 68.7841C86.7775 68.3523 86.4252 67.9886 86.0085 67.6932C85.5994 67.3902 85.1297 67.1591 84.5994 67C84.0767 66.8409 83.4972 66.7614 82.8608 66.7614C81.6714 66.7614 80.6259 67.0568 79.7244 67.6477C78.8305 68.2386 78.1335 69.0985 77.6335 70.2273C77.1335 71.3485 76.8835 72.7197 76.8835 74.3409C76.8835 75.9621 77.1297 77.3409 77.6222 78.4773C78.1146 79.6136 78.8116 80.4811 79.7131 81.0795C80.6146 81.6705 81.679 81.9659 82.9062 81.9659C84.0199 81.9659 84.9706 81.7689 85.7585 81.375C86.554 80.9735 87.16 80.4091 87.5767 79.6818C88.0009 78.9545 88.2131 78.0947 88.2131 77.1023L89.2131 77.25H83.2131V73.5455H92.9517V76.4773C92.9517 78.5227 92.5199 80.2803 91.6562 81.75C90.7926 83.2121 89.6032 84.3409 88.0881 85.1364C86.5729 85.9242 84.8381 86.3182 82.8835 86.3182C80.7017 86.3182 78.785 85.8371 77.1335 84.875C75.482 83.9053 74.1941 82.5303 73.2699 80.75C72.3532 78.9621 71.8949 76.8409 71.8949 74.3864C71.8949 72.5 72.1676 70.8182 72.7131 69.3409C73.2661 67.8561 74.0388 66.5985 75.0312 65.5682C76.0237 64.5379 77.179 63.7538 78.4972 63.2159C79.8153 62.678 81.2434 62.4091 82.7812 62.4091C84.0994 62.4091 85.3267 62.6023 86.4631 62.9886C87.5994 63.3674 88.607 63.9053 89.4858 64.6023C90.3722 65.2992 91.0956 66.1288 91.6562 67.0909C92.2169 68.0455 92.5767 69.0985 92.7358 70.25H87.7358ZM118.034 74.3636C118.034 76.9015 117.553 79.0606 116.591 80.8409C115.636 82.6212 114.333 83.9811 112.682 84.9205C111.038 85.8523 109.189 86.3182 107.136 86.3182C105.068 86.3182 103.212 85.8485 101.568 84.9091C99.9242 83.9697 98.625 82.6098 97.6705 80.8295C96.7159 79.0492 96.2386 76.8939 96.2386 74.3636C96.2386 71.8258 96.7159 69.6667 97.6705 67.8864C98.625 66.1061 99.9242 64.75 101.568 63.8182C103.212 62.8788 105.068 62.4091 107.136 62.4091C109.189 62.4091 111.038 62.8788 112.682 63.8182C114.333 64.75 115.636 66.1061 116.591 67.8864C117.553 69.6667 118.034 71.8258 118.034 74.3636ZM113.045 74.3636C113.045 72.7197 112.799 71.3333 112.307 70.2045C111.822 69.0758 111.136 68.2197 110.25 67.6364C109.364 67.053 108.326 66.7614 107.136 66.7614C105.947 66.7614 104.909 67.053 104.023 67.6364C103.136 68.2197 102.447 69.0758 101.955 70.2045C101.47 71.3333 101.227 72.7197 101.227 74.3636C101.227 76.0076 101.47 77.3939 101.955 78.5227C102.447 79.6515 103.136 80.5076 104.023 81.0909C104.909 81.6742 105.947 81.9659 107.136 81.9659C108.326 81.9659 109.364 81.6742 110.25 81.0909C111.136 80.5076 111.822 79.6515 112.307 78.5227C112.799 77.3939 113.045 76.0076 113.045 74.3636Z" fill="#E6D9D9"/>
</svg>
