<?xml version="1.0" encoding="iso-8859-1"?>
<svg version="1.1" id="Capa_1" xmlns="http://www.w3.org/2000/svg" xmlns:xlink="http://www.w3.org/1999/xlink" x="0px" y="0px"
	 viewBox="0 0 464.525 464.525" style="enable-background:new 0 0 464.525 464.525;" xml:space="preserve">
<g>
	<path style="fill:#f24d4a;" d="M293.214,181.943c0,4.487,3.642,8.129,8.129,8.129h130.033l-106.915,77.677
		c-3.633,2.642-4.438,7.722-1.796,11.356c1.593,2.187,4.064,3.349,6.584,3.349c1.658,0,3.325-0.504,4.771-1.553l127.155-92.381
		c2.853-2.073,4.04-5.739,2.951-9.088s-4.211-5.617-7.73-5.617H301.343C296.856,173.814,293.214,177.456,293.214,181.943z"/>
	<path style="fill:#f24d4a;" d="M239.996,16.591c-1.089-3.349-4.211-5.617-7.73-5.617c-3.52,0-6.641,2.268-7.73,5.617
		l-48.511,149.289c-1.382,4.268,0.951,8.852,5.219,10.242c4.276,1.39,8.86-0.959,10.242-5.219l40.781-125.497l41.496,127.724
		c1.114,3.43,4.3,5.617,7.73,5.617c0.829,0,1.674-0.13,2.512-0.398c4.268-1.39,6.6-5.975,5.219-10.242L239.996,16.591z"/>
	<path style="fill:#f24d4a;" d="M132.203,280.217c2.52,0,4.991-1.162,6.584-3.349c2.642-3.633,1.837-8.714-1.796-11.356
		L33.149,190.071h131.537c4.487,0,8.129-3.642,8.129-8.129c0-4.487-3.642-8.129-8.129-8.129H8.129c-3.52,0-6.641,2.268-7.73,5.617
		s0.106,7.015,2.951,9.088l124.083,90.146C128.879,279.713,130.545,280.217,132.203,280.217z"/>
	<path style="fill:#f24d4a;" d="M144.786,288.313c-4.284-1.382-8.86,0.959-10.242,5.219L86.009,442.911
		c-1.089,3.349,0.106,7.015,2.951,9.088c1.423,1.04,3.105,1.553,4.78,1.553c1.674,0,3.357-0.512,4.78-1.553l122.685-89.138
		c3.633-2.642,4.438-7.722,1.796-11.356c-2.642-3.625-7.714-4.438-11.356-1.796L109.2,424.142l40.805-125.586
		C151.395,294.288,149.062,289.703,144.786,288.313z"/>
	<path style="fill:#f24d4a;" d="M238.728,349.481c-2.642,3.633-1.837,8.714,1.796,11.356l125.481,91.162
		c1.422,1.04,3.105,1.553,4.78,1.553s3.357-0.512,4.78-1.553c2.845-2.073,4.04-5.739,2.951-9.088L329.98,293.54
		c-1.382-4.259-5.966-6.6-10.242-5.219c-4.268,1.39-6.6,5.974-5.219,10.242l40.805,125.586l-105.241-76.466
		C246.442,345.051,241.37,345.864,238.728,349.481z"/>
</g>
<g>
</g>
<g>
</g>
<g>
</g>
<g>
</g>
<g>
</g>
<g>
</g>
<g>
</g>
<g>
</g>
<g>
</g>
<g>
</g>
<g>
</g>
<g>
</g>
<g>
</g>
<g>
</g>
<g>
</g>
</svg>
