<?xml version="1.0" encoding="UTF-8"?>
<!DOCTYPE svg PUBLIC "-//W3C//DTD SVG 1.1//EN" "http://www.w3.org/Graphics/SVG/1.1/DTD/svg11.dtd">
<!-- Creator: CorelDRAW 2021 (64-Bit) -->
<svg id="service-paid-publishing-logo" xmlns="http://www.w3.org/2000/svg" xml:space="preserve" width="35mm" height="35mm" version="1.1" style="shape-rendering:geometricPrecision; text-rendering:geometricPrecision; image-rendering:optimizeQuality; fill-rule:evenodd; clip-rule:evenodd"
viewBox="0 0 3500 3500"
 xmlns:xlink="http://www.w3.org/1999/xlink"
 xmlns:xodm="http://www.corel.com/coreldraw/odm/2003">
 <defs>
  <style type="text/css">
   <![CDATA[
    #service-paid-publishing-logo .fil5 {fill:#63BD6E}
    #service-paid-publishing-logo .fil4 {fill:#117F4A;fill-rule:nonzero}
    #service-paid-publishing-logo .fil2 {fill:#444545;fill-rule:nonzero}
    #service-paid-publishing-logo .fil1 {fill:#525252;fill-rule:nonzero}
    #service-paid-publishing-logo .fil9 {fill:#575656;fill-rule:nonzero}
    #service-paid-publishing-logo .fil6 {fill:#616161;fill-rule:nonzero}
    #service-paid-publishing-logo .fil3 {fill:#63BD6E;fill-rule:nonzero}
    #service-paid-publishing-logo .fil7 {fill:#717171;fill-rule:nonzero}
    #service-paid-publishing-logo .fil8 {fill:#727172;fill-rule:nonzero}
    #service-paid-publishing-logo .fil10 {fill:#D6CB78;fill-rule:nonzero}
    #service-paid-publishing-logo .fil11 {fill:#ECE17E;fill-rule:nonzero}
    #service-paid-publishing-logo .fil0 {fill:url(#id9);fill-rule:nonzero}
   ]]>
  </style>
  <linearGradient id="id9" gradientUnits="userSpaceOnUse" x1="1752.6" y1="17.4" x2="1752.6" y2="3498.55">
   <stop offset="0" style="stop-opacity:1; stop-color:#FF9982"/>
   <stop offset="0.509804" style="stop-opacity:1; stop-color:#FFAE9C"/>
   <stop offset="1" style="stop-opacity:1; stop-color:#FFC4B6"/>
  </linearGradient>
 </defs>
 <g id="Слой_x0020_1">
  <metadata id="CorelCorpID_0Corel-Layer"/>
  <path class="fil0" d="M1752.6 3498.55c961.29,0 1740.58,-779.29 1740.58,-1740.58 0,-961.29 -779.29,-1740.57 -1740.58,-1740.57 -961.29,0 -1740.57,779.28 -1740.57,1740.57 0,961.29 779.28,1740.58 1740.57,1740.58z"/>
  <path class="fil1" d="M2710.27 2477.47c0,111.5 -26.16,109.37 -142.99,109.37l-1576.12 0c-116.88,0 -211.59,-90.41 -211.59,-201.91l0 -947.81c0,-111.5 94.71,-201.97 211.59,-201.97l1564.84 0.01c116.88,0 154.27,39.99 154.27,151.49l0 1090.82z"/>
  <path class="fil2" d="M2669.12 2443.84c0,111.5 -32.07,109.37 -143.94,109.37l-1501.95 0c-111.87,0 -202.59,-90.41 -202.59,-201.91l0 -862.31c0,-111.5 90.72,-201.91 202.59,-201.91l1515.12 0c111.92,0 130.76,51.15 130.76,162.65l0.01 994.11z"/>
  <g id="_2243423482576">
   <g>
    <g>
     <rect class="fil3" transform="matrix(0.972143 0.129658 -0.129658 0.972143 985.447 1155.14)" width="1367.31" height="591.66"/>
     <path class="fil4" d="M2218.91 1878.33l-1284.09 -171.22 69.7 -522.7 1284.09 171.27 -69.7 522.65zm56.52 -510.64l-1261.39 -168.16 -66.09 495.64 1261.44 168.12 66.04 -495.6z"/>
    </g>
    <path class="fil4" d="M1838.53 1561.64c16.74,-125.29 -71.31,-240.4 -196.59,-257.16 -125.29,-16.69 -240.45,71.36 -257.06,196.64 -16.77,125.29 71.25,240.45 196.59,257.11 125.3,16.74 240.41,-71.28 257.06,-196.59z"/>
   </g>
   <path class="fil3" d="M1580.52 1720.19l5.01 -37.32c-15.2,-4.31 -27.27,-10.15 -36.09,-17.55 -8.88,-7.34 -15.96,-18.13 -21.18,-32.33 -5.37,-14.19 -7.28,-31.17 -5.89,-50.84l31.97 -2.6c-0.31,20.06 2.02,35.32 6.91,45.78 6.85,14.4 16.43,23.11 28.39,26.2l15.91 -118.64c-12.38,-4.51 -24.63,-12.22 -36.9,-23.02 -9.03,-7.81 -15.36,-17.93 -19.04,-30.36 -3.77,-12.43 -4.62,-26.16 -2.65,-41.11 3.55,-26.55 14.14,-47 31.89,-61.27 12.07,-9.57 28.54,-14.3 49.31,-14.09l2.38 -17.85 18.35 2.49 -2.44 17.8c17.64,4.67 31.11,12.87 40.25,24.73 11.81,15.36 17.59,35.13 17.28,59.19l-32.9 1.27c0.15,-14.95 -2.18,-26.71 -6.96,-35.21 -4.73,-8.56 -12.01,-14.74 -21.8,-18.65l-14.35 107.59c14.95,6.59 24.78,11.65 29.61,15.15 8.97,6.39 15.96,13.62 20.94,21.8 5.06,8.15 8.56,17.44 10.48,27.93 1.97,10.43 2.18,21.48 0.65,33.03 -3.55,26 -13.18,46.68 -29.14,62.09 -15.91,15.42 -34.83,22.24 -56.62,20.48l-5.01 37.7 -18.36 -2.39zm43.54 -326.24c-12.33,0.65 -22.5,5.27 -30.83,13.83 -8.15,8.51 -13.13,19.16 -14.79,31.9 -1.66,12.66 -0.21,23.77 4.57,33.14 4.73,9.36 13.78,17.54 27.28,24.52l13.77 -103.39zm-16.09 260.05c12.27,-0.11 23.12,-5.07 32.44,-14.9 9.26,-9.78 14.99,-22.61 17.12,-38.41 1.87,-13.57 0.52,-24.83 -3.94,-33.71 -4.42,-8.97 -14.62,-17.8 -30.42,-26.49l-15.2 113.51z"/>
  </g>
  <g id="_2243423484592">
   <rect class="fil3" transform="matrix(0.892995 -0.405452 0.405452 0.892995 1063.55 1317.01)" width="1367.37" height="591.61"/>
   <path class="fil4" d="M2492.94 1276.3l-1179.7 535.52 -217.93 -480.12 1179.64 -535.52 217.99 480.12zm-222.81 -462.95l-1158.76 526.03 206.74 455.33 1158.76 -526.07 -206.74 -455.29z"/>
   <circle class="fil4" cx="1794.11" cy="1304.01" r="228.87"/>
   <path id="зп1.svg" class="fil5" d="M1845.67 1231.96c-9.3,14.95 -24.05,29.69 -40.62,34.54l-57.79 26.25 -47.46 -104.48 57.8 -26.25c16.77,-10.3 35.36,-10.7 52.73,-7.86 16.17,6.06 26.67,17.38 32.73,30.72 9.29,14.55 8.68,30.91 2.61,47.08l0 0zm-88.87 -107.11l-108.92 49.47 61.58 135.6 -35.56 16.15 14.14 31.12 37.78 -17.17 14.14 31.13 -37.79 17.16 14.14 31.12 37.79 -17.16 24.23 53.34 37.79 -17.16 -24.23 -53.35 102.25 -46.44 -14.14 -31.13 -102.25 46.45 -14.13 -31.12 71.13 -32.31c25.46,-8.89 43.65,-27.87 54.36,-51.51 7.49,-24.85 5.07,-47.88 -6.04,-72.33 -7.88,-23.24 -26.86,-41.43 -50.5,-52.15 -26.06,-4.25 -52.33,-3.04 -75.77,10.29l0 0z"/>
  </g>
  <path class="fil6" d="M2621.96 2570.03c0,111.51 -44.14,143.04 -155.65,143.04l-1573.24 0c-111.5,0 -113.53,-10.49 -113.53,-121.99l0 -1142.78c0,0 1.27,-27.37 2.65,-44.35 2.93,-38.38 31.01,-76.23 31.01,-76.23 0,0 16.82,70.14 64.45,89.71 74.66,30.72 132.59,28.08 132.59,28.08l1456.05 0c111.51,0 155.65,14.63 155.65,126.13l0 998.39 0.02 0z"/>
  <path class="fil7" d="M912.8 1522.01l0 0 -103.8 -0.05c-14.35,0 -25.95,-11.65 -25.95,-25.95 0,-14.35 11.6,-25.95 25.95,-25.95l0 0 103.8 0.04c14.34,0 25.95,11.61 25.95,25.96 0,14.34 -11.61,25.95 -25.95,25.95z"/>
  <path class="fil7" d="M2428.45 2681.98l-51.24 0c-14.3,0 -25.95,-11.6 -25.95,-25.95 0,-14.35 11.65,-25.95 25.95,-25.95l51.24 0c86.52,0 100.82,-7.56 108.26,-35.32 3.71,-13.83 17.85,-22.17 31.79,-18.35 13.83,3.7 22.11,17.88 18.35,31.78 -19.71,73.79 -87.08,73.79 -158.4,73.79zm-260.24 0l-209.08 0c-14.34,0 -25.95,-11.6 -25.95,-25.95 0,-14.35 11.61,-25.95 25.95,-25.95l209.08 0c14.3,0 25.95,11.6 25.95,25.95 0,14.35 -11.65,25.95 -25.95,25.95zm-418.13 0l-209.08 0c-14.35,0 -25.95,-11.6 -25.95,-25.95 0,-14.35 11.6,-25.95 25.95,-25.95l209.08 0c14.3,0 25.95,11.6 25.95,25.95 0,14.35 -11.65,25.95 -25.95,25.95zm-418.15 0l-209.07 0c-14.35,0 -25.95,-11.6 -25.95,-25.95 0,-14.35 11.6,-25.95 25.95,-25.95l209.07 0c14.35,0 25.95,11.6 25.95,25.95 0,14.35 -11.6,25.95 -25.95,25.95zm1235.36 -263.13c-14.35,0 -25.95,-11.61 -25.95,-25.96l0 -209.07c0,-14.35 11.6,-25.95 25.95,-25.95 14.35,0 25.95,11.6 25.95,25.95l0 209.07c-0.01,14.33 -11.6,25.96 -25.95,25.96zm0 -418.16c-14.35,0 -25.95,-11.6 -25.95,-25.95l0 -209.07c0,-14.3 11.6,-25.95 25.95,-25.95 14.35,0 25.95,11.65 25.95,25.95l0 209.07c-0.01,14.36 -11.6,25.95 -25.95,25.95zm-8.02 -417.32c-11,0 -21.22,-7.08 -24.73,-18.13 -7.34,-23.3 -20,-42.59 -100.45,-42.59l-57.86 -0.04c-14.35,0 -25.95,-11.61 -25.95,-25.96 0,-14.34 11.6,-25.95 25.95,-25.95l0 0 57.86 0.05c64.93,0 128.04,9.52 149.96,78.81 4.31,13.67 -3.29,28.28 -16.91,32.59 -2.63,0.83 -5.27,1.22 -7.87,1.22zm-392.12 -60.79l0 0 -209.07 -0.11c-14.35,0 -25.96,-11.65 -25.96,-25.95 0,-14.35 11.66,-25.95 25.96,-25.95l0.04 0.01 209.08 0.1c14.3,0 25.9,11.61 25.9,25.95 0,14.35 -11.6,25.95 -25.95,25.95zm-418.08 -0.21l-0.06 0 -209.07 -0.11c-14.3,0 -25.95,-11.6 -25.9,-25.95 0,-14.35 11.6,-25.95 25.95,-25.95l0 0 209.07 0.11c14.35,0 25.95,11.65 25.95,25.95 -0.05,14.32 -11.67,25.95 -25.94,25.95zm-418.15 -0.22l0 0 -209.07 -0.05c-14.35,0 -25.95,-11.65 -25.95,-26 0,-14.3 11.6,-25.9 25.95,-25.9l0 0 209.07 0.05c14.35,0 25.95,11.65 25.95,26 0,14.31 -11.6,25.9 -25.95,25.9z"/>
  <path class="fil6" d="M2522.29 2520.7c0,94.59 -33.23,101.73 -130.06,101.73l-1609.89 0 0 -1095.6 1615.05 0.7c96.9,0 124.89,26.75 124.89,121.29l0.01 871.88z"/>
  <path class="fil7" d="M912.8 2681.98l-103.81 0c-14.35,0 -25.95,-11.6 -25.95,-25.95 0,-14.35 11.6,-25.95 25.95,-25.95l103.81 0c14.34,0 25.95,11.6 25.95,25.95 0,14.35 -11.61,25.95 -25.95,25.95z"/>
  <path class="fil8" d="M2713.75 2122.74l-504.8 0c-32.64,0 -93.55,-58.49 -93.55,-176.54 0,-118.04 60.93,-173.18 93.55,-173.18l504.8 0c16.78,0.02 14.97,349.72 0,349.72z"/>
  <path class="fil9" d="M2713.75 2150.79l-504.8 0c-32.64,0 -93.55,-58.43 -93.55,-176.48 0,-118.05 60.93,-173.24 93.55,-173.24l504.8 0c16.78,0 14.97,349.72 0,349.72z"/>
  <ellipse class="fil10" cx="2274.24" cy="1976.93" rx="65.89" ry="77.1"/>
  <ellipse class="fil11" cx="2274.24" cy="1976.93" rx="53.06" ry="62.15"/>
 </g>
</svg>
