<?xml version="1.0" encoding="UTF-8"?>
<!DOCTYPE svg PUBLIC "-//W3C//DTD SVG 1.1//EN" "http://www.w3.org/Graphics/SVG/1.1/DTD/svg11.dtd">
<!-- Creator: CorelDRAW 2021 (64-Bit) -->
<svg xmlns="http://www.w3.org/2000/svg" xml:space="preserve" width="76mm" height="76mm" version="1.1" style="shape-rendering:geometricPrecision; text-rendering:geometricPrecision; image-rendering:optimizeQuality; fill-rule:evenodd; clip-rule:evenodd"
     viewBox="0 0 7600 7600"
     xmlns:xlink="http://www.w3.org/1999/xlink"
     xmlns:xodm="http://www.corel.com/coreldraw/odm/2003">
 <defs>
  <style type="text/css">
   <![CDATA[
    .fil0 {fill:url(#id0);fill-rule:nonzero}
    .fil6 {fill:url(#id1);fill-rule:nonzero}
    .fil7 {fill:url(#id2);fill-rule:nonzero}
    .fil4 {fill:url(#id3);fill-rule:nonzero}
    .fil1 {fill:url(#id4);fill-rule:nonzero}
    .fil3 {fill:url(#id5);fill-rule:nonzero}
    .fil2 {fill:url(#id6);fill-rule:nonzero}
    .fil5 {fill:url(#id7);fill-rule:nonzero}
   ]]>
  </style>
  <linearGradient id="id0" gradientUnits="userSpaceOnUse" x1="3955.97" y1="24.82" x2="3664.41" y2="7605.42">
   <stop offset="0" style="stop-opacity:1; stop-color:#F70D18"/>
   <stop offset="0.721569" style="stop-opacity:1; stop-color:#F6353E"/>
   <stop offset="1" style="stop-opacity:1; stop-color:#F55D65"/>
  </linearGradient>
  <linearGradient id="id1" gradientUnits="userSpaceOnUse" x1="2764.75" y1="2240.76" x2="2287.74" y2="3585.92">
   <stop offset="0" style="stop-opacity:0; stop-color:#FFC200"/>
   <stop offset="0.2" style="stop-opacity:0.203922; stop-color:#FFBB00"/>
   <stop offset="0.941176" style="stop-opacity:0.85098; stop-color:#FF8800"/>
   <stop offset="0.94902" style="stop-opacity:0.498039; stop-color:#FFA700"/>
   <stop offset="1" style="stop-opacity:1; stop-color:#FF7800"/>
  </linearGradient>
  <linearGradient id="id2" gradientUnits="userSpaceOnUse" x1="4545.24" y1="2374.31" x2="1089.15" y2="3862.59">
   <stop offset="0" style="stop-opacity:0; stop-color:#FFC200"/>
   <stop offset="0.2" style="stop-opacity:0.203922; stop-color:#FFBB00"/>
   <stop offset="0.501961" style="stop-opacity:0.498039; stop-color:#FFA700"/>
   <stop offset="0.85098" style="stop-opacity:0.85098; stop-color:#FF8800"/>
   <stop offset="1" style="stop-opacity:1; stop-color:#FF7800"/>
  </linearGradient>
  <linearGradient id="id3" gradientUnits="userSpaceOnUse" xlink:href="#id2" x1="3022.33" y1="5843.23" x2="4606" y2="4270.69">
  </linearGradient>
  <linearGradient id="id4" gradientUnits="userSpaceOnUse" x1="3534.53" y1="1841.16" x2="3534.53" y2="6800.06">
   <stop offset="0" style="stop-opacity:1; stop-color:#FFCF95"/>
   <stop offset="0.431373" style="stop-opacity:1; stop-color:#FFC954"/>
   <stop offset="1" style="stop-opacity:1; stop-color:#FFC200"/>
  </linearGradient>
  <linearGradient id="id5" gradientUnits="userSpaceOnUse" xlink:href="#id2" x1="4972.53" y1="4807.06" x2="4573.74" y2="2813.16">
  </linearGradient>
  <linearGradient id="id6" gradientUnits="userSpaceOnUse" xlink:href="#id2" x1="4720.49" y1="2469.72" x2="3194.05" y2="2469.72">
  </linearGradient>
  <linearGradient id="id7" gradientUnits="userSpaceOnUse" x1="1880.05" y1="3901.16" x2="3086.21" y2="4778.02">
   <stop offset="0" style="stop-opacity:0; stop-color:#FFC200"/>
   <stop offset="0.411765" style="stop-opacity:0.203922; stop-color:#FFBB00"/>
   <stop offset="0.94902" style="stop-opacity:0.529412; stop-color:#FFA200"/>
   <stop offset="0.968627" style="stop-opacity:0.85098; stop-color:#FF8800"/>
   <stop offset="0.976471" style="stop-opacity:0.67451; stop-color:#FF9700"/>
   <stop offset="0.980392" style="stop-opacity:0.498039; stop-color:#FFA700"/>
   <stop offset="1" style="stop-opacity:1; stop-color:#FF990D"/>
  </linearGradient>
 </defs>
 <g id="Слой_x0020_1">
  <metadata id="CorelCorpID_0Corel-Layer"/>
  <path class="fil0" d="M7603.3 3815.12c-0.01,-2094.87 -1698.24,-3793.11 -3793.11,-3793.1 -2094.87,0 -3793.11,1698.23 -3793.11,3793.1 0.01,2094.87 1698.24,3793.11 3793.11,3793.11 2094.87,-0.01 3793.11,-1698.24 3793.11,-3793.11z"/>
  <g id="_1947491877840">
   <path class="fil1" d="M4001.05 1445.99l688.95 1396.21 1540.72 223.89c175.04,25.44 245.25,241.18 118.05,364.32l-1113.3 1087.86 263.56 1534.62c29.52,175.03 -153.66,308.35 -310.38,224.9l-1378.91 -724.57 -1377.9 724.57c-156.72,82.43 -339.9,-50.88 -310.38,-224.9l263.57 -1534.62 -1115.35 -1086.85c-127.21,-124.15 -56.99,-338.88 118.05,-364.32l1540.72 -223.88 688.95 -1396.22c79.37,-159.77 305.3,-159.77 383.65,-1.01z"/>
   <path class="fil2" d="M4691.02 2842.2l-689.97 -1396.21c-39.69,-79.38 -114.99,-119.07 -191.31,-119.07l0 2643.86 881.28 -1128.58z"/>
   <path class="fil3" d="M5235.47 4518.27l1115.34 -1086.85c63.09,-61.06 77.34,-144.5 54.95,-215.74l-2595.01 756.11 1424.72 546.48z"/>
   <path class="fil4" d="M5413.55 6261.51l-1603.81 -2290.73 0 1582.44 1377.89 724.57c79.38,41.73 164.86,28.5 225.92,-16.28z"/>
   <path class="fil5" d="M3809.74 3970.78l-1425.73 547.49 -262.56 1534.62c-15.27,86.5 23.41,163.84 84.46,208.62l1603.83 -2290.73z"/>
   <path class="fil6" d="M1214.72 3214.66l2595.02 756.12 -881.29 -1128.58 -1540.72 223.89c-88.54,13.23 -150.62,75.3 -173.01,148.57l0 0z"/>
   <path class="fil7" d="M2384.01 4518.27l-1114.33 -1086.85c-63.09,-61.06 -77.34,-144.5 -54.96,-215.74l2595.02 756.11 -1425.73 546.48z"/>
  </g>
 </g>
</svg>