<svg width="1390" height="145" viewBox="0 0 1390 145" fill="none" xmlns="http://www.w3.org/2000/svg">
<g clip-path="url(#clip0_5_2)">
<rect x="-95" y="129.925" width="1584.2" height="27" transform="rotate(-5.1399 -95 129.925)" fill="#D3C68C"/>
<rect x="-107.503" y="-16" width="1614" height="27" transform="rotate(5.30651 -107.503 -16)" fill="#D3C68C"/>
<path d="M940.451 57.1557C939.133 57.2758 937.967 57.0996 936.954 56.6271C935.946 56.1484 935.136 55.4292 934.524 54.4694C933.911 53.504 933.544 52.3536 933.422 51.0182C933.299 49.6715 933.452 48.4709 933.881 47.4163C934.309 46.356 934.976 45.5022 935.881 44.8548C936.792 44.2014 937.906 43.8145 939.225 43.6944C940.543 43.5743 941.706 43.7535 942.714 44.2322C943.727 44.7048 944.54 45.4237 945.153 46.3891C945.765 47.3489 946.133 48.5021 946.255 49.8488C946.377 51.1842 946.224 52.382 945.795 53.4423C945.367 54.4969 944.697 55.351 943.787 56.0045C942.881 56.6518 941.77 57.0355 940.451 57.1557ZM940.213 54.3532C940.813 54.2986 941.298 54.0832 941.669 53.7071C942.039 53.3253 942.299 52.8281 942.449 52.2154C942.604 51.6022 942.647 50.9165 942.578 50.1582C942.509 49.4 942.342 48.7334 942.079 48.1583C941.821 47.5828 941.476 47.1407 941.042 46.8322C940.609 46.5236 940.093 46.3967 939.493 46.4513C938.887 46.5065 938.394 46.7255 938.012 47.1083C937.636 47.4906 937.371 47.9883 937.216 48.6015C937.066 49.2142 937.026 49.8997 937.095 50.6579C937.164 51.4161 937.327 52.083 937.585 52.6586C937.849 53.2336 938.2 53.6752 938.639 53.9832C939.083 54.2851 939.608 54.4084 940.213 54.3532ZM958.41 37.2906L959.729 39.5496C959.389 39.8886 959.002 40.1521 958.568 40.3399C958.134 40.5221 957.608 40.6642 956.99 40.7662C956.377 40.8677 955.627 40.9674 954.74 41.0653C953.734 41.1684 952.928 41.4044 952.323 41.7734C951.718 42.1423 951.281 42.6756 951.014 43.3732C950.746 44.0651 950.61 44.9505 950.606 46.0292L950.733 46.0176C951.051 45.1842 951.543 44.5174 952.211 44.0172C952.884 43.5166 953.744 43.2186 954.791 43.1232C955.9 43.0221 956.893 43.177 957.769 43.5878C958.65 43.9981 959.365 44.6376 959.912 45.5064C960.459 46.3751 960.79 47.446 960.906 48.7191C961.027 50.0432 960.872 51.2184 960.44 52.2447C960.014 53.2649 959.35 54.0871 958.449 54.7112C957.546 55.3297 956.439 55.6988 955.126 55.8184C953.808 55.9386 952.645 55.7649 951.638 55.2976C950.637 54.8297 949.827 54.0791 949.208 53.0457C948.595 52.0119 948.216 50.7057 948.072 49.127L947.975 48.0575C947.689 44.9171 948.088 42.533 949.172 40.9052C950.256 39.2774 951.982 38.3442 954.351 38.1055C954.995 38.0354 955.577 37.9794 956.099 37.9377C956.62 37.8959 957.073 37.8289 957.458 37.7368C957.849 37.6441 958.166 37.4953 958.41 37.2906ZM954.888 53.016C955.442 52.9654 955.905 52.7778 956.274 52.4532C956.65 52.128 956.921 51.6868 957.087 51.1297C957.258 50.572 957.31 49.9198 957.242 49.1729C957.175 48.4316 957.007 47.8136 956.739 47.3188C956.477 46.8178 956.132 46.4498 955.706 46.2148C955.279 45.9798 954.786 45.8879 954.226 45.9389C953.807 45.9771 953.438 46.0877 953.118 46.2709C952.798 46.4541 952.533 46.7065 952.323 47.0281C952.117 47.3434 951.97 47.7249 951.879 48.1724C951.794 48.6138 951.777 49.1118 951.827 49.6663C951.929 50.781 952.249 51.639 952.789 52.2402C953.334 52.8352 954.034 53.0938 954.888 53.016ZM964.673 41.5466L964.934 44.4154L961.59 44.7201L961.329 41.8513L964.673 41.5466ZM967.296 45.347L971.2 44.9912C972.926 44.8339 974.307 45.1245 975.345 45.863C976.387 46.5953 976.974 47.6487 977.105 49.0232C977.18 49.9177 977.031 50.7243 976.657 51.443C976.283 52.1561 975.703 52.7395 974.917 53.1934C974.136 53.6411 973.172 53.9173 972.023 54.022L965.861 54.5835L964.673 41.5466L968.119 41.2326L969.048 51.4261L971.764 51.1786C972.369 51.1235 972.853 50.9253 973.216 50.5842C973.579 50.2431 973.738 49.8348 973.695 49.3595C973.649 48.8559 973.416 48.4635 972.997 48.1822C972.577 47.8953 972.065 47.7794 971.459 47.8345L967.555 48.1903L967.296 45.347ZM987.551 52.607L986.621 42.4049L984.177 42.6277C983.515 42.688 983.025 42.8867 982.708 43.2237C982.391 43.5607 982.254 43.9383 982.298 44.3565C982.331 44.7814 982.527 45.1258 982.888 45.3896C983.254 45.6472 983.765 45.7461 984.421 45.6863L988.105 45.3506L988.328 47.7951L984.644 48.1307C983.529 48.2323 982.549 48.1505 981.703 47.8852C980.858 47.62 980.187 47.2047 979.69 46.6395C979.193 46.0686 978.91 45.3783 978.842 44.5687C978.759 43.7204 978.909 42.9565 979.293 42.2769C979.675 41.5916 980.26 41.0334 981.048 40.6021C981.841 40.1647 982.798 39.8949 983.919 39.7928L989.733 39.2631L990.921 52.2999L987.551 52.607ZM979.267 53.3619L982.273 46.2416L985.727 45.9268L982.73 53.0463L979.267 53.3619ZM993.73 52.0439L992.542 39.007L998.101 38.5005C999.708 38.354 1001.01 38.5438 1002 39.0698C1002.99 39.5959 1003.53 40.4219 1003.63 41.5479C1003.7 42.2552 1003.49 42.8677 1003.01 43.3853C1002.52 43.9029 1001.82 44.2862 1000.9 44.5354C1001.69 44.5208 1002.37 44.6385 1002.95 44.8884C1003.53 45.1321 1003.98 45.4756 1004.31 45.9189C1004.65 46.3618 1004.85 46.8689 1004.9 47.4404C1004.97 48.1817 1004.83 48.8363 1004.48 49.4043C1004.14 49.9717 1003.6 50.4315 1002.87 50.7835C1002.14 51.135 1001.23 51.3602 1000.15 51.4592L993.73 52.0439ZM996.853 49.0294L999.9 48.7517C1000.4 48.7058 1000.79 48.5512 1001.05 48.2877C1001.31 48.0181 1001.43 47.674 1001.39 47.2552C1001.35 46.7912 1001.17 46.4394 1000.86 46.1998C1000.55 45.9596 1000.14 45.8625 999.641 45.9084L996.594 46.186L996.853 49.0294ZM996.4 44.0641L998.666 43.8576C999.029 43.8246 999.332 43.7456 999.578 43.6206C999.828 43.4893 1000.01 43.3185 1000.13 43.1081C1000.25 42.8972 1000.3 42.6559 1000.28 42.3843C1000.24 41.9825 1000.05 41.6832 999.708 41.4863C999.365 41.2893 998.914 41.2164 998.353 41.2674L996.164 41.4669L996.4 44.0641ZM1006.74 50.8587L1006.46 47.9914L1006.89 47.952C1007.2 47.9241 1007.45 47.8266 1007.66 47.6594C1007.87 47.486 1008.04 47.2228 1008.15 46.8699C1008.27 46.517 1008.34 46.0566 1008.38 45.4887C1008.41 44.9151 1008.41 44.214 1008.36 43.3853L1008.04 37.5944L1017.96 36.691L1019.15 49.7279L1015.7 50.0419L1014.77 39.8484L1011.55 40.1415L1011.71 44.1407C1011.76 45.2374 1011.71 46.1888 1011.57 46.995C1011.43 47.8005 1011.2 48.4722 1010.87 49.0098C1010.55 49.5417 1010.13 49.9505 1009.62 50.2361C1009.12 50.5217 1008.52 50.6963 1007.82 50.7597L1006.74 50.8587ZM1027.91 49.1857C1026.57 49.3079 1025.39 49.1415 1024.38 48.6865C1023.36 48.2253 1022.55 47.5176 1021.94 46.5635C1021.33 45.6038 1020.96 44.4364 1020.83 43.0614C1020.71 41.7204 1020.86 40.5197 1021.29 39.4594C1021.72 38.3992 1022.38 37.543 1023.28 36.8911C1024.17 36.2386 1025.26 35.8541 1026.54 35.7376C1027.4 35.6592 1028.22 35.7249 1028.98 35.9346C1029.75 36.1382 1030.44 36.4891 1031.05 36.9874C1031.66 37.4852 1032.16 38.1359 1032.54 38.9393C1032.93 39.7371 1033.17 40.6905 1033.27 41.7995L1033.36 42.7925L1022.36 43.7957L1022.15 41.555L1029.76 40.862C1029.71 40.3414 1029.55 39.8906 1029.29 39.5094C1029.03 39.1283 1028.69 38.8429 1028.26 38.6532C1027.85 38.4573 1027.37 38.3833 1026.85 38.4312C1026.3 38.4813 1025.82 38.6529 1025.42 38.9462C1025.03 39.2333 1024.73 39.5999 1024.53 40.0459C1024.33 40.4863 1024.25 40.9642 1024.29 41.4797L1024.49 43.61C1024.55 44.2551 1024.72 44.8016 1025 45.2496C1025.28 45.6971 1025.66 46.028 1026.12 46.2424C1026.59 46.4568 1027.12 46.5364 1027.73 46.4813C1028.13 46.4447 1028.49 46.3546 1028.81 46.211C1029.14 46.0674 1029.41 45.8716 1029.63 45.6236C1029.84 45.3756 1030 45.0819 1030.09 44.7423L1033.46 44.6583C1033.36 45.4772 1033.08 46.2106 1032.61 46.8583C1032.14 47.4999 1031.51 48.0252 1030.71 48.4344C1029.92 48.8373 1028.99 49.0878 1027.91 49.1857ZM1044.58 39.3827L1044.84 42.226L1038.03 42.8463L1037.77 40.003L1044.58 39.3827ZM1038.5 34.8192L1039.69 47.856L1036.23 48.1708L1035.05 35.1339L1038.5 34.8192ZM1046.38 34.1006L1047.57 47.1375L1044.14 47.45L1042.96 34.4131L1046.38 34.1006ZM1053.4 41.7971L1057.34 33.1025L1060.9 32.7777L1062.09 45.8146L1058.64 46.1286L1057.89 37.8363L1053.97 46.5548L1050.38 46.8819L1049.19 33.845L1052.64 33.5302L1053.4 41.7971ZM1070.95 45.2637C1069.61 45.3859 1068.43 45.2195 1067.42 44.7645C1066.4 44.3032 1065.59 43.5956 1064.98 42.6415C1064.37 41.6817 1064 40.5144 1063.87 39.1394C1063.75 37.7984 1063.91 36.5977 1064.33 35.5374C1064.76 34.4771 1065.42 33.621 1066.32 32.9691C1067.22 32.3166 1068.3 31.9321 1069.58 31.8156C1070.44 31.7372 1071.26 31.8029 1072.02 32.0126C1072.79 32.2161 1073.48 32.5671 1074.09 33.0654C1074.7 33.5632 1075.2 34.2138 1075.58 35.0173C1075.97 35.815 1076.21 36.7684 1076.31 37.8775L1076.4 38.8705L1065.4 39.8736L1065.19 37.6329L1072.8 36.9399C1072.75 36.4194 1072.59 35.9685 1072.33 35.5874C1072.07 35.2063 1071.73 34.9209 1071.3 34.7311C1070.89 34.5352 1070.41 34.4613 1069.89 34.5092C1069.34 34.5592 1068.86 34.7309 1068.46 35.0242C1068.07 35.3113 1067.77 35.6779 1067.57 36.1239C1067.37 36.5643 1067.29 37.0422 1067.33 37.5576L1067.53 39.688C1067.59 40.3331 1067.76 40.8796 1068.04 41.3276C1068.32 41.775 1068.7 42.106 1069.16 42.3204C1069.63 42.5348 1070.16 42.6144 1070.77 42.5592C1071.17 42.5226 1071.53 42.4325 1071.86 42.2889C1072.18 42.1454 1072.45 41.9496 1072.67 41.7016C1072.88 41.4536 1073.04 41.1598 1073.13 40.8203L1076.5 40.7362C1076.4 41.5552 1076.12 42.2886 1075.65 42.9363C1075.18 43.5779 1074.55 44.1032 1073.75 44.5123C1072.96 44.9153 1072.03 45.1657 1070.95 45.2637ZM1094.02 24.9332L1095.34 27.1922C1095 27.5312 1094.61 27.7947 1094.18 27.9826C1093.74 28.1647 1093.22 28.3068 1092.6 28.4088C1091.99 28.5103 1091.24 28.61 1090.35 28.7079C1089.34 28.811 1088.54 29.047 1087.93 29.416C1087.33 29.785 1086.89 30.3182 1086.62 31.0158C1086.36 31.7078 1086.22 32.5931 1086.22 33.6718L1086.34 33.6602C1086.66 32.8268 1087.15 32.16 1087.82 31.6599C1088.49 31.1592 1089.35 30.8612 1090.4 30.7658C1091.51 30.6647 1092.5 30.8196 1093.38 31.2304C1094.26 31.6407 1094.97 32.2803 1095.52 33.149C1096.07 34.0177 1096.4 35.0886 1096.52 36.3618C1096.64 37.6858 1096.48 38.861 1096.05 39.8873C1095.62 40.9075 1094.96 41.7297 1094.06 42.3538C1093.16 42.9724 1092.05 43.3414 1090.74 43.461C1089.42 43.5812 1088.26 43.4076 1087.25 42.9402C1086.25 42.4723 1085.44 41.7217 1084.82 40.6884C1084.2 39.6545 1083.83 38.3483 1083.68 36.7696L1083.58 35.7002C1083.3 32.5598 1083.7 30.1757 1084.78 28.5478C1085.87 26.92 1087.59 25.9868 1089.96 25.7481C1090.6 25.678 1091.19 25.6221 1091.71 25.5803C1092.23 25.5385 1092.68 25.4715 1093.07 25.3794C1093.46 25.2867 1093.78 25.138 1094.02 24.9332ZM1090.5 40.6586C1091.05 40.6081 1091.51 40.4205 1091.88 40.0958C1092.26 39.7706 1092.53 39.3295 1092.7 38.7723C1092.87 38.2147 1092.92 37.5624 1092.85 36.8155C1092.78 36.0742 1092.62 35.4562 1092.35 34.9614C1092.09 34.4604 1091.74 34.0924 1091.32 33.8574C1090.89 33.6225 1090.4 33.5305 1089.84 33.5815C1089.42 33.6197 1089.05 33.7304 1088.73 33.9136C1088.41 34.0968 1088.14 34.3491 1087.93 34.6707C1087.73 34.986 1087.58 35.3675 1087.49 35.8151C1087.4 36.2564 1087.39 36.7544 1087.44 37.3089C1087.54 38.4236 1087.86 39.2816 1088.4 39.8828C1088.94 40.4779 1089.64 40.7365 1090.5 40.6586ZM1098.72 42.4765L1098.44 39.6093L1098.88 39.5698C1099.18 39.542 1099.44 39.4444 1099.65 39.2772C1099.86 39.1038 1100.02 38.8406 1100.14 38.4877C1100.26 38.1348 1100.33 37.6744 1100.36 37.1065C1100.4 36.5329 1100.39 35.8318 1100.34 35.0031L1100.03 29.2122L1109.94 28.3089L1111.13 41.3458L1107.69 41.6598L1106.76 31.4662L1103.54 31.7593L1103.7 35.7586C1103.75 36.8553 1103.7 37.8067 1103.56 38.6128C1103.42 39.4184 1103.19 40.09 1102.86 40.6276C1102.53 41.1596 1102.11 41.5684 1101.61 41.854C1101.11 42.1396 1100.51 42.3141 1099.81 42.3775L1098.72 42.4765ZM1119.85 40.8082C1118.53 40.9283 1117.36 40.7521 1116.35 40.2796C1115.34 39.8009 1114.53 39.0817 1113.92 38.1219C1113.31 37.1565 1112.94 36.0061 1112.82 34.6708C1112.7 33.3241 1112.85 32.1234 1113.28 31.0688C1113.71 30.0085 1114.37 29.1547 1115.28 28.5074C1116.19 27.8539 1117.3 27.4671 1118.62 27.3469C1119.94 27.2268 1121.1 27.4061 1122.11 27.8848C1123.12 28.3573 1123.94 29.0763 1124.55 30.0417C1125.16 31.0014 1125.53 32.1547 1125.65 33.5013C1125.77 34.8367 1125.62 36.0346 1125.19 37.0948C1124.76 38.1495 1124.09 39.0035 1123.18 39.657C1122.28 40.3043 1121.17 40.6881 1119.85 40.8082ZM1119.61 38.0058C1120.21 37.9511 1120.7 37.7357 1121.07 37.3596C1121.44 36.9778 1121.7 36.4806 1121.85 35.8679C1122 35.2547 1122.04 34.569 1121.98 33.8108C1121.91 33.0526 1121.74 32.3859 1121.48 31.8109C1121.22 31.2353 1120.87 30.7932 1120.44 30.4847C1120.01 30.1761 1119.49 30.0492 1118.89 30.1038C1118.28 30.159 1117.79 30.378 1117.41 30.7608C1117.03 31.1431 1116.77 31.6408 1116.61 32.254C1116.46 32.8667 1116.42 33.5522 1116.49 34.3104C1116.56 35.0686 1116.72 35.7355 1116.98 36.3111C1117.25 36.8861 1117.6 37.3277 1118.04 37.6357C1118.48 37.9376 1119 38.0609 1119.61 38.0058ZM1128.59 39.7546L1127.41 26.7177L1131.02 26.3883L1131.48 31.4468L1132.5 31.354L1135.59 25.9722L1139.83 25.5854L1135.81 32.4729L1141.07 38.6177L1136.78 39.009L1133.14 34.6765L1131.79 34.7994L1132.21 39.4251L1128.59 39.7546ZM1145.62 33.3937L1149.56 24.6991L1153.12 24.3743L1154.31 37.4112L1150.86 37.7252L1150.11 29.4328L1146.19 38.1513L1142.6 38.4785L1141.41 25.4416L1144.86 25.1268L1145.62 33.3937ZM1157.65 42.0359L1156.02 24.1101L1159.59 23.7853L1159.79 25.9751L1159.95 25.9604C1160.07 25.5951 1160.27 25.2178 1160.54 24.8283C1160.81 24.4327 1161.18 24.091 1161.64 23.8034C1162.11 23.5096 1162.71 23.3294 1163.44 23.2629C1164.39 23.1762 1165.29 23.3453 1166.14 23.77C1166.99 24.1891 1167.7 24.8746 1168.27 25.8267C1168.84 26.7731 1169.19 27.9932 1169.33 29.487C1169.46 30.9412 1169.34 32.1904 1168.96 33.2348C1168.59 34.2729 1168.02 35.0861 1167.27 35.6742C1166.52 36.2561 1165.64 36.5922 1164.65 36.6825C1163.95 36.7464 1163.35 36.6848 1162.83 36.4977C1162.32 36.31 1161.9 36.055 1161.56 35.7325C1161.21 35.4044 1160.94 35.0667 1160.74 34.7196L1160.63 34.7296L1161.27 41.7064L1157.65 42.0359ZM1160.15 30.3061C1160.22 31.0813 1160.39 31.7476 1160.66 32.3052C1160.93 32.8628 1161.28 33.2842 1161.72 33.5696C1162.15 33.8494 1162.66 33.9627 1163.25 33.9096C1163.84 33.856 1164.32 33.6493 1164.7 33.2897C1165.07 32.9244 1165.34 32.4436 1165.5 31.8474C1165.66 31.245 1165.71 30.5647 1165.64 29.8064C1165.57 29.0539 1165.4 28.4014 1165.14 27.849C1164.88 27.2965 1164.53 26.8776 1164.09 26.5922C1163.66 26.3068 1163.14 26.1912 1162.55 26.2453C1161.96 26.299 1161.48 26.4999 1161.1 26.8483C1160.72 27.1961 1160.46 27.6655 1160.29 28.2566C1160.13 28.8477 1160.08 29.5309 1160.15 30.3061ZM1178.25 35.4867C1176.93 35.6068 1175.76 35.4306 1174.75 34.9581C1173.74 34.4794 1172.93 33.7602 1172.32 32.8004C1171.71 31.835 1171.34 30.6846 1171.22 29.3492C1171.1 28.0025 1171.25 26.8019 1171.68 25.7472C1172.11 24.687 1172.77 23.8332 1173.68 23.1858C1174.59 22.5323 1175.7 22.1455 1177.02 22.0254C1178.34 21.9053 1179.5 22.0845 1180.51 22.5632C1181.52 23.0358 1182.34 23.7547 1182.95 24.7201C1183.56 25.6799 1183.93 26.8331 1184.05 28.1798C1184.17 29.5152 1184.02 30.713 1183.59 31.7733C1183.16 32.8279 1182.49 33.682 1181.58 34.3355C1180.68 34.9828 1179.57 35.3665 1178.25 35.4867ZM1178.01 32.6842C1178.61 32.6296 1179.09 32.4142 1179.46 32.0381C1179.84 31.6563 1180.1 31.1591 1180.24 30.5464C1180.4 29.9332 1180.44 29.2475 1180.37 28.4892C1180.3 27.731 1180.14 27.0644 1179.87 26.4893C1179.62 25.9138 1179.27 25.4717 1178.84 25.1631C1178.41 24.8546 1177.89 24.7276 1177.29 24.7823C1176.68 24.8375 1176.19 25.0565 1175.81 25.4393C1175.43 25.8215 1175.17 26.3193 1175.01 26.9325C1174.86 27.5452 1174.82 28.2306 1174.89 28.9889C1174.96 29.7471 1175.12 30.414 1175.38 30.9895C1175.64 31.5646 1176 32.0061 1176.43 32.3142C1176.88 32.616 1177.4 32.7394 1178.01 32.6842ZM1186.99 34.4331L1185.8 21.3962L1191.36 20.8896C1192.97 20.7432 1194.27 20.933 1195.26 21.459C1196.25 21.985 1196.79 22.811 1196.9 23.9371C1196.96 24.6444 1196.75 25.2568 1196.27 25.7744C1195.78 26.292 1195.08 26.6754 1194.16 26.9245C1194.95 26.91 1195.63 27.0276 1196.21 27.2775C1196.79 27.5212 1197.24 27.8647 1197.58 28.3081C1197.91 28.7509 1198.11 29.2581 1198.16 29.8296C1198.23 30.5708 1198.09 31.2254 1197.74 31.7934C1197.4 32.3609 1196.86 32.8206 1196.13 33.1726C1195.4 33.5241 1194.49 33.7494 1193.41 33.8484L1186.99 34.4331ZM1190.11 31.4185L1193.16 31.1408C1193.67 31.095 1194.05 30.9403 1194.31 30.6769C1194.58 30.4073 1194.69 30.0631 1194.65 29.6444C1194.61 29.1804 1194.43 28.8286 1194.12 28.5889C1193.81 28.3488 1193.41 28.2516 1192.9 28.2975L1189.86 28.5752L1190.11 31.4185ZM1189.66 26.4533L1191.93 26.2468C1192.29 26.2138 1192.59 26.1348 1192.84 26.0097C1193.09 25.8785 1193.27 25.7076 1193.39 25.4972C1193.52 25.2863 1193.56 25.045 1193.54 24.7734C1193.5 24.3717 1193.31 24.0723 1192.97 23.8754C1192.63 23.6784 1192.18 23.6055 1191.62 23.6565L1189.43 23.8561L1189.66 26.4533ZM1204.5 33.0856C1203.67 33.1614 1202.92 33.0846 1202.24 32.8554C1201.56 32.6204 1201.01 32.2345 1200.58 31.6975C1200.15 31.1544 1199.9 30.4528 1199.82 29.5927C1199.75 28.8685 1199.83 28.2481 1200.05 27.7316C1200.27 27.215 1200.6 26.786 1201.03 26.4443C1201.46 26.1026 1201.96 25.8289 1202.53 25.623C1203.1 25.4166 1203.71 25.2529 1204.35 25.1318C1205.1 24.9835 1205.71 24.8543 1206.16 24.7441C1206.62 24.6283 1206.95 24.4901 1207.15 24.3295C1207.34 24.169 1207.43 23.9501 1207.4 23.6729L1207.4 23.6219C1207.35 23.0844 1207.14 22.684 1206.77 22.4207C1206.41 22.1568 1205.93 22.053 1205.31 22.1092C1204.66 22.1685 1204.15 22.36 1203.79 22.6836C1203.44 23.0016 1203.21 23.3813 1203.13 23.8227L1199.76 23.8558C1199.86 23.0482 1200.13 22.3331 1200.57 21.7106C1201.02 21.0824 1201.62 20.5768 1202.38 20.194C1203.14 19.8049 1204.04 19.5629 1205.08 19.4681C1205.81 19.4021 1206.51 19.4238 1207.19 19.5332C1207.87 19.6421 1208.49 19.8513 1209.03 20.1609C1209.59 20.4699 1210.04 20.8909 1210.39 21.4237C1210.74 21.9509 1210.95 22.6021 1211.02 23.3773L1211.82 32.1704L1208.39 32.4829L1208.23 30.675L1208.13 30.6843C1207.95 31.1108 1207.71 31.4956 1207.38 31.8388C1207.06 32.1763 1206.66 32.4552 1206.19 32.6755C1205.71 32.8901 1205.15 33.0268 1204.5 33.0856ZM1205.31 30.4959C1205.84 30.4474 1206.3 30.2999 1206.69 30.0535C1207.08 29.8013 1207.37 29.4836 1207.57 29.1003C1207.77 28.7171 1207.85 28.2963 1207.81 27.8379L1207.68 26.4545C1207.57 26.5383 1207.43 26.6204 1207.23 26.7007C1207.05 26.7748 1206.83 26.8484 1206.59 26.9215C1206.35 26.9889 1206.12 27.0536 1205.88 27.1153C1205.64 27.1715 1205.42 27.2227 1205.22 27.269C1204.8 27.3699 1204.44 27.5027 1204.14 27.6674C1203.83 27.8321 1203.6 28.0384 1203.45 28.2864C1203.29 28.5287 1203.23 28.8196 1203.26 29.1591C1203.31 29.6514 1203.52 30.0114 1203.9 30.2392C1204.29 30.4609 1204.76 30.5464 1205.31 30.4959ZM1222.97 23.1267L1223.23 25.97L1216.43 26.5903L1216.17 23.747L1222.97 23.1267ZM1216.89 18.5631L1218.08 31.6L1214.63 31.9148L1213.44 18.8779L1216.89 18.5631ZM1224.78 17.8446L1225.97 30.8815L1222.54 31.194L1221.35 18.1571L1224.78 17.8446ZM1234.69 30.3438C1233.37 30.4639 1232.2 30.2877 1231.19 29.8152C1230.18 29.3365 1229.37 28.6173 1228.76 27.6575C1228.15 26.6921 1227.78 25.5417 1227.66 24.2063C1227.53 22.8596 1227.69 21.659 1228.12 20.6044C1228.54 19.5441 1229.21 18.6903 1230.12 18.043C1231.03 17.3895 1232.14 17.0026 1233.46 16.8825C1234.78 16.7624 1235.94 16.9416 1236.95 17.4203C1237.96 17.8929 1238.77 18.6118 1239.39 19.5773C1240 20.537 1240.37 21.6902 1240.49 23.0369C1240.61 24.3723 1240.46 25.5701 1240.03 26.6304C1239.6 27.685 1238.93 28.5391 1238.02 29.1926C1237.12 29.8399 1236 30.2236 1234.69 30.3438ZM1234.45 27.5413C1235.05 27.4867 1235.53 27.2713 1235.9 26.8952C1236.27 26.5134 1236.53 26.0162 1236.68 25.4035C1236.84 24.7903 1236.88 24.1046 1236.81 23.3464C1236.74 22.5881 1236.58 21.9215 1236.31 21.3464C1236.06 20.7709 1235.71 20.3288 1235.28 20.0203C1234.84 19.7117 1234.33 19.5848 1233.73 19.6394C1233.12 19.6946 1232.63 19.9136 1232.25 20.2964C1231.87 20.6787 1231.6 21.1764 1231.45 21.7896C1231.3 22.4023 1231.26 23.0878 1231.33 23.846C1231.4 24.6042 1231.56 25.2711 1231.82 25.8467C1232.08 26.4217 1232.43 26.8633 1232.87 27.1713C1233.32 27.4732 1233.84 27.5965 1234.45 27.5413Z" fill="white"/>
<path d="M935.87 101.844C934.552 101.72 933.439 101.333 932.53 100.682C931.628 100.026 930.963 99.1701 930.538 98.1141C930.113 97.0525 929.964 95.8542 930.089 94.5192C930.216 93.1729 930.588 92.0208 931.203 91.063C931.819 90.0995 932.631 89.3829 933.64 88.913C934.655 88.438 935.821 88.2627 937.139 88.3869C938.457 88.5112 939.568 88.9013 940.47 89.5571C941.379 90.2078 942.046 91.064 942.471 92.1256C942.897 93.1816 943.046 94.3827 942.919 95.729C942.793 97.064 942.422 98.2132 941.806 99.1767C941.191 100.135 940.376 100.851 939.361 101.326C938.352 101.796 937.188 101.969 935.87 101.844ZM936.151 99.0458C936.751 99.1024 937.268 98.9799 937.701 98.6783C938.135 98.3711 938.482 97.9302 938.742 97.3554C939.007 96.7812 939.176 96.1151 939.247 95.3571C939.319 94.5991 939.278 93.9132 939.125 93.2996C938.977 92.6864 938.719 92.1883 938.349 91.8054C937.98 91.4225 937.496 91.2027 936.896 91.1462C936.291 91.0891 935.766 91.2136 935.32 91.5198C934.88 91.8264 934.528 92.2669 934.263 92.8411C934.003 93.4158 933.837 94.0822 933.766 94.8402C933.694 95.5982 933.732 96.2838 933.88 96.8969C934.033 97.5106 934.297 98.0092 934.672 98.3927C935.053 98.771 935.546 98.9887 936.151 99.0458ZM957.175 85.6194L958.056 88.0823C957.659 88.3531 957.231 88.5409 956.77 88.6459C956.31 88.7451 955.766 88.7881 955.14 88.7746C954.519 88.7617 953.764 88.7219 952.874 88.6551C951.866 88.5715 951.031 88.6554 950.368 88.9067C949.705 89.1581 949.178 89.6021 948.787 90.2386C948.396 90.8695 948.1 91.7147 947.897 92.7743L948.025 92.7863C948.49 92.0255 949.097 91.4606 949.845 91.0917C950.599 90.7234 951.499 90.5885 952.546 90.6872C953.654 90.7918 954.601 91.1265 955.387 91.6914C956.178 92.2568 956.763 93.0168 957.141 93.9712C957.519 94.9257 957.648 96.0393 957.528 97.3121C957.403 98.6358 957.034 99.7624 956.422 100.692C955.815 101.616 955.011 102.302 954.01 102.75C953.01 103.192 951.854 103.351 950.541 103.228C949.223 103.103 948.112 102.719 947.209 102.075C946.311 101.431 945.652 100.544 945.234 99.4143C944.821 98.2853 944.689 96.9317 944.838 95.3535L944.938 94.2844C945.234 91.1449 946.065 88.8748 947.43 87.474C948.795 86.0732 950.663 85.4733 953.035 85.6741C953.681 85.7236 954.264 85.7758 954.784 85.8305C955.304 85.8852 955.762 85.9027 956.157 85.883C956.559 85.8637 956.898 85.7759 957.175 85.6194ZM950.822 100.429C951.377 100.482 951.865 100.382 952.288 100.131C952.717 99.8803 953.065 99.4965 953.33 98.9793C953.601 98.4628 953.772 97.8311 953.843 97.0844C953.913 96.3434 953.862 95.7051 953.689 95.1695C953.524 94.6288 953.253 94.2038 952.877 93.8944C952.501 93.585 952.033 93.4039 951.473 93.3511C951.054 93.3116 950.671 93.3525 950.322 93.4738C949.974 93.595 949.667 93.7944 949.401 94.0718C949.142 94.3441 948.926 94.6918 948.755 95.1151C948.59 95.5333 948.482 96.0196 948.429 96.5739C948.324 97.6883 948.482 98.5906 948.902 99.2808C949.328 99.9659 949.968 100.349 950.822 100.429ZM962.549 90.9543L962.279 93.8222L958.935 93.507L959.206 90.639L962.549 90.9543ZM964.428 95.1721L968.332 95.5401C970.057 95.7028 971.361 96.2425 972.245 97.159C973.135 98.0705 973.518 99.2138 973.394 100.589C973.304 101.482 973.009 102.248 972.51 102.885C972.011 103.517 971.333 103.984 970.477 104.286C969.628 104.582 968.628 104.677 967.48 104.568L961.32 103.987L962.549 90.9543L965.994 91.2791L965.033 101.47L967.748 101.726C968.353 101.783 968.866 101.677 969.285 101.408C969.704 101.14 969.936 100.768 969.981 100.293C970.028 99.7892 969.872 99.3607 969.511 99.0071C969.151 98.6479 968.669 98.4397 968.063 98.3826L964.16 98.0146L964.428 95.1721ZM983.004 106.032L983.965 95.8331L981.522 95.6026C980.86 95.5402 980.342 95.6455 979.968 95.9184C979.594 96.1913 979.39 96.5373 979.357 96.9565C979.311 97.3802 979.441 97.7549 979.747 98.0805C980.059 98.401 980.544 98.5922 981.2 98.6541L984.882 99.0013L984.652 101.445L980.969 101.098C979.855 100.993 978.906 100.732 978.124 100.316C977.341 99.8996 976.758 99.368 976.374 98.7212C975.99 98.0686 975.839 97.3382 975.921 96.5298C975.996 95.6808 976.284 94.9574 976.785 94.3598C977.287 93.7566 977.965 93.3154 978.819 93.0364C979.679 92.7523 980.669 92.663 981.789 92.7686L987.601 93.3167L986.372 106.35L983.004 106.032ZM974.722 105.251L978.985 98.8048L982.439 99.1305L978.184 105.578L974.722 105.251ZM989.181 106.615L990.41 93.5816L995.968 94.1056C997.574 94.2571 998.815 94.6824 999.691 95.3813C1000.57 96.0802 1000.95 96.9926 1000.85 98.1182C1000.78 98.8253 1000.46 99.3888 999.89 99.8087C999.319 100.229 998.56 100.477 997.611 100.553C998.386 100.683 999.034 100.924 999.555 101.275C1000.08 101.622 1000.47 102.043 1000.71 102.54C1000.96 103.037 1001.06 103.571 1001 104.143C1000.93 104.884 1000.68 105.502 1000.23 105.996C999.79 106.491 999.178 106.844 998.393 107.055C997.614 107.267 996.682 107.322 995.595 107.22L989.181 106.615ZM992.805 104.226L995.851 104.513C996.354 104.56 996.759 104.479 997.064 104.268C997.375 104.052 997.551 103.734 997.59 103.316C997.634 102.852 997.524 102.473 997.261 102.18C997.003 101.888 996.622 101.718 996.119 101.67L993.073 101.383L992.805 104.226ZM993.273 99.2618L995.538 99.4754C995.9 99.5096 996.213 99.4877 996.477 99.4099C996.748 99.327 996.96 99.1929 997.115 99.0077C997.275 98.8231 997.368 98.595 997.393 98.3235C997.431 97.9218 997.299 97.5927 996.998 97.336C996.697 97.0793 996.267 96.9246 995.707 96.8718L993.518 96.6653L993.273 99.2618ZM1002.18 107.841L1002.44 104.971L1002.87 105.012C1003.18 105.041 1003.45 104.992 1003.68 104.866C1003.92 104.735 1004.13 104.506 1004.31 104.181C1004.49 103.855 1004.65 103.416 1004.79 102.864C1004.92 102.307 1005.05 101.616 1005.15 100.793L1005.91 95.043L1015.82 95.9776L1014.59 109.011L1011.14 108.686L1012.11 98.4952L1008.89 98.192L1008.31 102.152C1008.16 103.239 1007.94 104.166 1007.65 104.932C1007.36 105.698 1007.01 106.316 1006.59 106.784C1006.17 107.246 1005.69 107.572 1005.14 107.76C1004.59 107.948 1003.97 108.009 1003.27 107.943L1002.18 107.841ZM1023.31 110.09C1021.97 109.963 1020.84 109.583 1019.92 108.949C1019.01 108.309 1018.34 107.464 1017.92 106.414C1017.49 105.358 1017.34 104.143 1017.47 102.768C1017.6 101.428 1017.97 100.275 1018.59 99.312C1019.2 98.3485 1020.01 97.6285 1021.01 97.1519C1022.01 96.6758 1023.15 96.4981 1024.43 96.6186C1025.29 96.6997 1026.08 96.9138 1026.79 97.2608C1027.52 97.6028 1028.13 98.0742 1028.63 98.6752C1029.14 99.2767 1029.51 100.008 1029.74 100.869C1029.97 101.724 1030.04 102.706 1029.93 103.815L1029.84 104.807L1018.84 103.77L1019.05 101.53L1026.65 102.247C1026.7 101.726 1026.63 101.254 1026.44 100.831C1026.25 100.408 1025.97 100.065 1025.59 99.8008C1025.21 99.5315 1024.76 99.3721 1024.24 99.3225C1023.69 99.2707 1023.19 99.3521 1022.74 99.5667C1022.3 99.7761 1021.94 100.082 1021.66 100.484C1021.38 100.88 1021.22 101.335 1021.17 101.849L1020.96 103.979C1020.9 104.624 1020.97 105.192 1021.16 105.684C1021.36 106.177 1021.67 106.571 1022.09 106.867C1022.5 107.163 1023.02 107.34 1023.62 107.397C1024.02 107.435 1024.4 107.413 1024.74 107.331C1025.08 107.25 1025.39 107.107 1025.65 106.903C1025.9 106.699 1026.11 106.439 1026.27 106.123L1029.59 106.658C1029.34 107.446 1028.93 108.114 1028.35 108.664C1027.77 109.209 1027.05 109.61 1026.2 109.865C1025.34 110.116 1024.38 110.191 1023.31 110.09ZM1041.49 103.518L1041.22 106.36L1034.42 105.719L1034.69 102.876L1041.49 103.518ZM1036.35 97.9141L1035.13 110.947L1031.67 110.622L1032.9 97.5885L1036.35 97.9141ZM1044.24 98.6575L1043.01 111.691L1039.58 111.367L1040.81 98.3342L1044.24 98.6575ZM1049.72 107.512L1055.19 99.6901L1058.75 100.026L1057.52 113.059L1054.08 112.734L1054.86 104.444L1049.4 112.293L1045.81 111.955L1047.04 98.9219L1050.49 99.2476L1049.72 107.512ZM1066.33 114.147C1064.99 114.021 1063.87 113.64 1062.95 113.006C1062.04 112.367 1061.37 111.522 1060.95 110.472C1060.52 109.416 1060.37 108.2 1060.5 106.826C1060.63 105.485 1061 104.333 1061.62 103.37C1062.23 102.406 1063.04 101.686 1064.04 101.209C1065.04 100.733 1066.18 100.556 1067.46 100.676C1068.32 100.757 1069.11 100.971 1069.82 101.318C1070.54 101.66 1071.15 102.132 1071.66 102.733C1072.17 103.334 1072.54 104.065 1072.77 104.926C1073 105.782 1073.07 106.764 1072.96 107.872L1072.87 108.865L1061.86 107.827L1062.07 105.587L1069.68 106.304C1069.73 105.784 1069.66 105.312 1069.47 104.889C1069.28 104.466 1069 104.122 1068.61 103.858C1068.24 103.589 1067.79 103.43 1067.26 103.38C1066.72 103.328 1066.22 103.41 1065.77 103.624C1065.33 103.834 1064.97 104.139 1064.69 104.541C1064.41 104.937 1064.25 105.393 1064.19 105.907L1063.99 108.037C1063.93 108.681 1064 109.25 1064.19 109.742C1064.39 110.234 1064.7 110.628 1065.12 110.925C1065.53 111.221 1066.04 111.397 1066.65 111.454C1067.05 111.492 1067.42 111.47 1067.77 111.389C1068.11 111.307 1068.41 111.164 1068.67 110.96C1068.93 110.757 1069.14 110.497 1069.29 110.18L1072.62 110.716C1072.37 111.503 1071.96 112.172 1071.37 112.722C1070.8 113.267 1070.08 113.667 1069.22 113.923C1068.37 114.174 1067.41 114.248 1066.33 114.147ZM1092.75 98.4037L1093.63 100.867C1093.23 101.137 1092.8 101.325 1092.34 101.43C1091.88 101.529 1091.34 101.572 1090.71 101.559C1090.09 101.546 1089.33 101.506 1088.44 101.439C1087.44 101.356 1086.6 101.44 1085.94 101.691C1085.28 101.942 1084.75 102.386 1084.36 103.023C1083.97 103.654 1083.67 104.499 1083.47 105.559L1083.59 105.571C1084.06 104.81 1084.67 104.245 1085.42 103.876C1086.17 103.508 1087.07 103.373 1088.12 103.472C1089.22 103.576 1090.17 103.911 1090.96 104.476C1091.75 105.041 1092.33 105.801 1092.71 106.756C1093.09 107.71 1093.22 108.824 1093.1 110.096C1092.97 111.42 1092.6 112.547 1091.99 113.476C1091.39 114.401 1090.58 115.087 1089.58 115.535C1088.58 115.977 1087.42 116.136 1086.11 116.012C1084.79 115.888 1083.68 115.503 1082.78 114.859C1081.88 114.215 1081.22 113.328 1080.8 112.199C1080.39 111.07 1080.26 109.716 1080.41 108.138L1080.51 107.069C1080.8 103.929 1081.64 101.659 1083 100.258C1084.36 98.8575 1086.23 98.2576 1088.61 98.4585C1089.25 98.5079 1089.83 98.5601 1090.35 98.6148C1090.87 98.6695 1091.33 98.687 1091.73 98.6673C1092.13 98.648 1092.47 98.5602 1092.75 98.4037ZM1086.39 113.214C1086.95 113.266 1087.44 113.166 1087.86 112.915C1088.29 112.665 1088.63 112.281 1088.9 111.764C1089.17 111.247 1089.34 110.615 1089.41 109.869C1089.48 109.128 1089.43 108.489 1089.26 107.954C1089.09 107.413 1088.82 106.988 1088.45 106.679C1088.07 106.369 1087.6 106.188 1087.04 106.135C1086.62 106.096 1086.24 106.137 1085.89 106.258C1085.54 106.379 1085.24 106.579 1084.97 106.856C1084.71 107.128 1084.5 107.476 1084.33 107.899C1084.16 108.318 1084.05 108.804 1084 109.358C1083.89 110.473 1084.05 111.375 1084.47 112.065C1084.9 112.75 1085.54 113.133 1086.39 113.214ZM1094.14 116.513L1094.4 113.643L1094.83 113.684C1095.14 113.713 1095.41 113.664 1095.64 113.538C1095.88 113.406 1096.09 113.178 1096.27 112.852C1096.45 112.527 1096.61 112.088 1096.74 111.536C1096.88 110.978 1097 110.288 1097.11 109.465L1097.87 103.715L1107.78 104.649L1106.55 117.682L1103.1 117.358L1104.06 107.167L1100.85 106.864L1100.27 110.824C1100.12 111.911 1099.89 112.837 1099.61 113.603C1099.32 114.37 1098.97 114.987 1098.55 115.456C1098.13 115.918 1097.64 116.244 1097.1 116.432C1096.55 116.619 1095.93 116.681 1095.23 116.615L1094.14 116.513ZM1115.22 118.757C1113.9 118.632 1112.78 118.245 1111.88 117.594C1110.97 116.938 1110.31 116.082 1109.88 115.026C1109.46 113.965 1109.31 112.766 1109.43 111.431C1109.56 110.085 1109.93 108.933 1110.55 107.975C1111.16 107.012 1111.98 106.295 1112.98 105.825C1114 105.35 1115.17 105.175 1116.48 105.299C1117.8 105.423 1118.91 105.814 1119.82 106.469C1120.72 107.12 1121.39 107.976 1121.82 109.038C1122.24 110.094 1122.39 111.295 1122.26 112.641C1122.14 113.976 1121.77 115.125 1121.15 116.089C1120.54 117.047 1119.72 117.763 1118.71 118.238C1117.7 118.708 1116.53 118.881 1115.22 118.757ZM1115.5 115.958C1116.1 116.015 1116.61 115.892 1117.05 115.591C1117.48 115.283 1117.83 114.842 1118.09 114.268C1118.35 113.693 1118.52 113.027 1118.59 112.269C1118.66 111.511 1118.62 110.825 1118.47 110.212C1118.32 109.599 1118.06 109.101 1117.69 108.718C1117.33 108.335 1116.84 108.115 1116.24 108.058C1115.64 108.001 1115.11 108.126 1114.67 108.432C1114.23 108.739 1113.87 109.179 1113.61 109.753C1113.35 110.328 1113.18 110.994 1113.11 111.752C1113.04 112.51 1113.08 113.196 1113.23 113.809C1113.38 114.423 1113.64 114.921 1114.02 115.305C1114.4 115.683 1114.89 115.901 1115.5 115.958ZM1124 119.329L1125.23 106.295L1128.85 106.636L1128.37 111.693L1129.39 111.789L1133.41 107.067L1137.66 107.467L1132.44 113.498L1136.48 120.505L1132.18 120.1L1129.4 115.172L1128.06 115.045L1127.62 119.669L1124 119.329ZM1141.91 116.206L1147.38 108.384L1150.94 108.72L1149.71 121.753L1146.27 121.428L1147.05 113.138L1141.59 120.987L1138 120.649L1139.23 107.616L1142.69 107.941L1141.91 116.206ZM1152.15 126.914L1153.84 108.993L1157.4 109.329L1157.2 111.518L1157.36 111.534C1157.55 111.198 1157.81 110.863 1158.15 110.529C1158.49 110.19 1158.91 109.922 1159.42 109.725C1159.94 109.522 1160.56 109.456 1161.29 109.524C1162.24 109.614 1163.09 109.946 1163.85 110.519C1164.61 111.087 1165.18 111.891 1165.57 112.932C1165.95 113.968 1166.08 115.232 1165.94 116.725C1165.8 118.179 1165.45 119.384 1164.88 120.341C1164.33 121.293 1163.62 121.989 1162.77 122.428C1161.92 122.862 1161.01 123.032 1160.02 122.938C1159.31 122.872 1158.73 122.7 1158.26 122.422C1157.79 122.144 1157.42 121.815 1157.14 121.435C1156.87 121.049 1156.66 120.668 1156.53 120.29L1156.42 120.28L1155.77 127.254L1152.15 126.914ZM1156.76 115.843C1156.69 116.618 1156.74 117.304 1156.9 117.902C1157.06 118.499 1157.33 118.978 1157.7 119.339C1158.08 119.694 1158.56 119.899 1159.14 119.954C1159.73 120.009 1160.24 119.895 1160.68 119.611C1161.12 119.322 1161.47 118.898 1161.73 118.341C1162 117.778 1162.17 117.118 1162.25 116.36C1162.32 115.608 1162.27 114.936 1162.12 114.345C1161.96 113.754 1161.7 113.278 1161.32 112.917C1160.94 112.556 1160.46 112.348 1159.86 112.292C1159.28 112.237 1158.76 112.345 1158.33 112.618C1157.9 112.891 1157.55 113.303 1157.28 113.854C1157.01 114.405 1156.84 115.068 1156.76 115.843ZM1173.6 124.262C1172.28 124.138 1171.17 123.75 1170.26 123.099C1169.35 122.444 1168.69 121.588 1168.26 120.532C1167.84 119.47 1167.69 118.272 1167.82 116.937C1167.94 115.591 1168.31 114.438 1168.93 113.481C1169.55 112.517 1170.36 111.801 1171.37 111.331C1172.38 110.856 1173.55 110.68 1174.87 110.805C1176.18 110.929 1177.29 111.319 1178.2 111.975C1179.11 112.625 1179.77 113.482 1180.2 114.543C1180.62 115.599 1180.77 116.8 1180.65 118.147C1180.52 119.482 1180.15 120.631 1179.53 121.594C1178.92 122.552 1178.1 123.269 1177.09 123.744C1176.08 124.213 1174.92 124.386 1173.6 124.262ZM1173.88 121.463C1174.48 121.52 1174.99 121.398 1175.43 121.096C1175.86 120.789 1176.21 120.348 1176.47 119.773C1176.73 119.199 1176.9 118.533 1176.97 117.775C1177.05 117.017 1177 116.331 1176.85 115.717C1176.7 115.104 1176.45 114.606 1176.08 114.223C1175.71 113.84 1175.22 113.62 1174.62 113.564C1174.02 113.507 1173.49 113.631 1173.05 113.937C1172.61 114.244 1172.25 114.684 1171.99 115.259C1171.73 115.833 1171.56 116.5 1171.49 117.258C1171.42 118.016 1171.46 118.701 1171.61 119.315C1171.76 119.928 1172.02 120.427 1172.4 120.81C1172.78 121.189 1173.27 121.406 1173.88 121.463ZM1182.39 124.834L1183.62 111.801L1189.17 112.325C1190.78 112.476 1192.02 112.902 1192.9 113.601C1193.77 114.3 1194.16 115.212 1194.05 116.338C1193.98 117.045 1193.67 117.608 1193.1 118.028C1192.52 118.448 1191.77 118.696 1190.82 118.772C1191.59 118.902 1192.24 119.143 1192.76 119.494C1193.29 119.841 1193.67 120.262 1193.92 120.759C1194.17 121.256 1194.26 121.791 1194.21 122.362C1194.14 123.103 1193.88 123.721 1193.44 124.215C1193 124.71 1192.38 125.063 1191.6 125.275C1190.82 125.487 1189.89 125.541 1188.8 125.439L1182.39 124.834ZM1186.01 122.445L1189.06 122.732C1189.56 122.78 1189.96 122.698 1190.27 122.487C1190.58 122.271 1190.76 121.954 1190.8 121.535C1190.84 121.071 1190.73 120.693 1190.47 120.4C1190.21 120.107 1189.83 119.937 1189.32 119.89L1186.28 119.602L1186.01 122.445ZM1186.48 117.481L1188.74 117.695C1189.11 117.729 1189.42 117.707 1189.68 117.629C1189.95 117.546 1190.17 117.412 1190.32 117.227C1190.48 117.042 1190.57 116.814 1190.6 116.543C1190.64 116.141 1190.5 115.812 1190.2 115.555C1189.9 115.299 1189.47 115.144 1188.91 115.091L1186.72 114.885L1186.48 117.481ZM1199.85 126.729C1199.01 126.65 1198.29 126.436 1197.66 126.086C1197.04 125.731 1196.57 125.25 1196.24 124.642C1195.92 124.03 1195.8 123.294 1195.89 122.434C1195.95 121.71 1196.14 121.115 1196.46 120.648C1196.77 120.181 1197.17 119.819 1197.65 119.562C1198.14 119.306 1198.68 119.128 1199.28 119.031C1199.88 118.933 1200.51 118.884 1201.16 118.883C1201.93 118.875 1202.54 118.859 1203.01 118.835C1203.48 118.805 1203.83 118.729 1204.05 118.608C1204.28 118.486 1204.4 118.287 1204.43 118.009L1204.43 117.958C1204.48 117.421 1204.35 116.989 1204.04 116.663C1203.73 116.338 1203.27 116.146 1202.66 116.088C1202.01 116.026 1201.47 116.122 1201.06 116.374C1200.65 116.62 1200.36 116.953 1200.2 117.371L1196.88 116.784C1197.12 116.008 1197.52 115.355 1198.08 114.825C1198.63 114.289 1199.31 113.903 1200.13 113.666C1200.95 113.424 1201.88 113.352 1202.92 113.45C1203.65 113.519 1204.33 113.669 1204.98 113.901C1205.63 114.133 1206.19 114.452 1206.68 114.857C1207.16 115.263 1207.53 115.76 1207.78 116.348C1208.02 116.93 1208.11 117.609 1208.04 118.384L1207.21 127.175L1203.78 126.851L1203.95 125.044L1203.85 125.035C1203.6 125.422 1203.29 125.755 1202.91 126.033C1202.53 126.305 1202.08 126.506 1201.58 126.635C1201.07 126.758 1200.49 126.79 1199.85 126.729ZM1201.12 124.332C1201.65 124.382 1202.13 124.321 1202.55 124.151C1202.98 123.974 1203.33 123.716 1203.6 123.376C1203.86 123.035 1204.02 122.636 1204.06 122.178L1204.19 120.795C1204.07 120.858 1203.91 120.911 1203.7 120.955C1203.51 120.993 1203.28 121.026 1203.04 121.054C1202.79 121.076 1202.54 121.096 1202.29 121.113C1202.05 121.124 1201.82 121.134 1201.62 121.144C1201.19 121.166 1200.81 121.23 1200.48 121.336C1200.15 121.442 1199.89 121.602 1199.69 121.818C1199.5 122.027 1199.38 122.302 1199.35 122.641C1199.3 123.133 1199.45 123.526 1199.78 123.82C1200.12 124.109 1200.56 124.279 1201.12 124.332ZM1219.83 120.336L1219.57 123.178L1212.76 122.536L1213.03 119.694L1219.83 120.336ZM1214.7 114.732L1213.47 127.765L1210.01 127.439L1211.24 114.406L1214.7 114.732ZM1222.58 115.475L1221.35 128.508L1217.92 128.185L1219.15 115.152L1222.58 115.475ZM1230.02 129.582C1228.7 129.458 1227.59 129.071 1226.68 128.42C1225.78 127.764 1225.11 126.908 1224.69 125.852C1224.26 124.791 1224.11 123.592 1224.24 122.257C1224.36 120.911 1224.74 119.759 1225.35 118.801C1225.97 117.838 1226.78 117.121 1227.79 116.651C1228.8 116.176 1229.97 116.001 1231.29 116.125C1232.61 116.249 1233.72 116.639 1234.62 117.295C1235.53 117.946 1236.19 118.802 1236.62 119.864C1237.04 120.92 1237.19 122.121 1237.07 123.467C1236.94 124.802 1236.57 125.951 1235.95 126.915C1235.34 127.873 1234.52 128.589 1233.51 129.064C1232.5 129.534 1231.34 129.707 1230.02 129.582ZM1230.3 126.784C1230.9 126.841 1231.42 126.718 1231.85 126.417C1232.28 126.109 1232.63 125.668 1232.89 125.094C1233.16 124.519 1233.32 123.853 1233.4 123.095C1233.47 122.337 1233.43 121.651 1233.27 121.038C1233.13 120.425 1232.87 119.927 1232.5 119.544C1232.13 119.161 1231.64 118.941 1231.04 118.884C1230.44 118.827 1229.91 118.952 1229.47 119.258C1229.03 119.565 1228.68 120.005 1228.41 120.579C1228.15 121.154 1227.99 121.82 1227.91 122.578C1227.84 123.336 1227.88 124.022 1228.03 124.635C1228.18 125.249 1228.45 125.747 1228.82 126.131C1229.2 126.509 1229.69 126.727 1230.3 126.784Z" fill="white"/>
<path d="M180.897 30.0267C179.58 29.8945 178.469 29.5003 177.564 28.8441C176.665 28.1828 176.006 27.323 175.587 26.2644C175.169 25.2003 175.026 24.0011 175.16 22.6669C175.295 21.3214 175.673 20.1716 176.295 19.2175C176.916 18.2577 177.733 17.546 178.745 17.0822C179.762 16.6134 180.93 16.4451 182.247 16.5773C183.564 16.7096 184.672 17.1063 185.571 17.7676C186.476 18.4238 187.138 19.2839 187.556 20.3481C187.975 21.4066 188.117 22.6086 187.982 23.9542C187.848 25.2884 187.47 26.4353 186.849 27.3951C186.227 28.3492 185.408 29.0606 184.39 29.5295C183.379 29.9932 182.214 30.159 180.897 30.0267ZM181.195 27.23C181.794 27.2902 182.311 27.1708 182.747 26.8719C183.183 26.5673 183.532 26.1285 183.796 25.5553C184.064 24.9827 184.237 24.3176 184.313 23.5601C184.389 22.8025 184.352 22.1164 184.202 21.5018C184.059 20.8878 183.803 20.3882 183.436 20.003C183.07 19.6179 182.587 19.3952 181.987 19.335C181.382 19.2743 180.856 19.3957 180.409 19.6991C179.967 20.0031 179.612 20.4414 179.343 21.014C179.08 21.5872 178.911 22.2525 178.835 23.0101C178.759 23.7676 178.793 24.4534 178.936 25.0675C179.086 25.6821 179.347 26.1822 179.719 26.568C180.098 26.9486 180.59 27.1693 181.195 27.23ZM202.299 13.9308L203.165 16.399C202.767 16.6674 202.337 16.8526 201.876 16.9548C201.415 17.0513 200.871 17.0909 200.245 17.0737C199.624 17.0571 198.869 17.0127 197.98 16.9405C196.972 16.8508 196.137 16.9296 195.472 17.177C194.808 17.4244 194.278 17.8651 193.883 18.4993C193.489 19.1278 193.187 19.9712 192.978 21.0295L193.105 21.0423C193.576 20.2843 194.186 19.7232 194.936 19.3588C195.692 18.995 196.593 18.8656 197.639 18.9706C198.747 19.0819 199.692 19.4223 200.474 19.9919C201.262 20.5621 201.842 21.3256 202.215 22.2823C202.587 23.2391 202.709 24.3534 202.581 25.6255C202.449 26.9484 202.073 28.0727 201.455 28.9985C200.843 29.9193 200.035 30.6005 199.031 31.0422C198.028 31.4783 196.871 31.6305 195.559 31.4988C194.242 31.3665 193.133 30.9754 192.233 30.3255C191.339 29.6761 190.686 28.7854 190.275 27.6534C189.869 26.5219 189.745 25.1675 189.903 23.5902L190.01 22.5218C190.325 19.3841 191.169 17.119 192.543 15.7265C193.916 14.334 195.788 13.7454 198.159 13.9606C198.805 14.014 199.387 14.0696 199.907 14.1275C200.426 14.1854 200.884 14.2056 201.28 14.1882C201.681 14.1714 202.021 14.0856 202.299 13.9308ZM195.857 28.7021C196.411 28.7577 196.9 28.6612 197.325 28.4126C197.755 28.1646 198.105 27.7828 198.374 27.2673C198.648 26.7524 198.823 26.1218 198.898 25.3755C198.972 24.6349 198.925 23.9963 198.756 23.4597C198.593 22.9181 198.325 22.4914 197.951 22.1797C197.577 21.8681 197.11 21.6841 196.55 21.628C196.132 21.5859 195.748 21.6245 195.399 21.7437C195.05 21.8628 194.742 22.0603 194.475 22.3361C194.213 22.6068 193.996 22.9533 193.822 23.3755C193.654 23.7927 193.543 24.2783 193.487 24.8323C193.375 25.9461 193.527 26.8493 193.943 27.542C194.365 28.2297 195.003 28.6163 195.857 28.7021ZM207.641 19.2981L207.353 22.1644L204.012 21.8289L204.3 18.9626L207.641 19.2981ZM209.495 23.5272L213.395 23.9188C215.12 24.0919 216.421 24.6394 217.299 25.5613C218.184 26.4781 218.56 27.6237 218.427 28.998C218.332 29.8907 218.033 30.6544 217.529 31.2891C217.026 31.9181 216.346 32.3809 215.488 32.6774C214.637 32.9687 213.637 33.0568 212.49 32.9416L206.333 32.3235L207.641 19.2981L211.084 19.6437L210.061 29.8283L212.775 30.1008C213.38 30.1615 213.893 30.0588 214.313 29.7927C214.734 29.5266 214.968 29.1561 215.016 28.6812C215.066 28.178 214.912 27.7486 214.554 27.3928C214.196 27.0314 213.715 26.8204 213.11 26.7596L209.209 26.368L209.495 23.5272ZM228.004 34.4992L229.027 24.3061L226.585 24.0609C225.924 23.9945 225.405 24.0967 225.03 24.3673C224.654 24.638 224.448 24.9828 224.412 25.4017C224.364 25.8251 224.491 26.2006 224.795 26.528C225.106 26.8504 225.589 27.0445 226.245 27.1104L229.925 27.4799L229.68 29.9221L225.999 29.5526C224.886 29.4408 223.939 29.1744 223.159 28.7535C222.379 28.3326 221.799 27.7975 221.418 27.1483C221.039 26.4935 220.892 25.7621 220.979 24.9543C221.059 24.1057 221.351 23.3841 221.856 22.7896C222.362 22.1893 223.042 21.7523 223.898 21.4784C224.759 21.1995 225.75 21.1162 226.869 21.2286L232.678 21.8118L231.37 34.8372L228.004 34.4992ZM219.727 33.6683L224.029 27.2477L227.481 27.5942L223.187 34.0156L219.727 33.6683ZM234.177 35.119L235.485 22.0936L241.04 22.6512C242.645 22.8124 243.884 23.2451 244.755 23.9494C245.627 24.6536 246.006 25.5682 245.893 26.6932C245.822 27.3999 245.5 27.9615 244.927 28.3779C244.354 28.7944 243.593 29.0377 242.644 29.108C243.419 29.2429 244.065 29.4877 244.583 29.8424C245.108 30.192 245.491 30.6158 245.732 31.114C245.979 31.6128 246.074 32.1476 246.016 32.7186C245.942 33.4592 245.68 34.0754 245.231 34.5671C244.788 35.0593 244.173 35.4087 243.387 35.6154C242.607 35.8225 241.674 35.8716 240.588 35.7627L234.177 35.119ZM237.816 32.7519L240.86 33.0575C241.363 33.108 241.768 33.0288 242.074 32.8197C242.387 32.6055 242.565 32.2893 242.607 31.8709C242.653 31.4074 242.546 31.0282 242.284 30.7336C242.028 30.4395 241.648 30.2672 241.145 30.2167L238.101 29.911L237.816 32.7519ZM238.314 27.791L240.578 28.0183C240.94 28.0547 241.253 28.0347 241.517 27.9585C241.788 27.8772 242.002 27.7444 242.157 27.5602C242.318 27.3765 242.412 27.149 242.44 26.8776C242.48 26.4762 242.35 26.1463 242.051 25.8878C241.751 25.6293 241.322 25.4719 240.762 25.4158L238.574 25.1961L238.314 27.791ZM247.173 36.4238L247.444 33.5558L247.876 33.5992C248.182 33.6299 248.452 33.5828 248.687 33.4579C248.929 33.328 249.14 33.1008 249.321 32.7763C249.502 32.4519 249.663 32.0141 249.804 31.4629C249.946 30.9061 250.072 30.2164 250.183 29.3938L250.974 23.6486L260.879 24.6431L259.571 37.6685L256.128 37.3228L257.151 27.1382L253.937 26.8156L253.334 30.7723C253.173 31.8583 252.946 32.7834 252.653 33.5477C252.365 34.3125 252.009 34.9277 251.585 35.3934C251.162 35.8535 250.676 36.1758 250.126 36.3605C249.576 36.5451 248.954 36.6026 248.259 36.5327L247.173 36.4238ZM268.282 38.8C266.942 38.6655 265.816 38.2784 264.904 37.6386C263.998 36.9937 263.335 36.1448 262.915 35.092C262.496 34.0334 262.356 32.8173 262.494 31.4435C262.628 30.1037 263.006 28.9539 263.628 27.9941C264.25 27.0344 265.061 26.3192 266.062 25.8487C267.068 25.3787 268.211 25.2078 269.488 25.3361C270.348 25.4224 271.134 25.6412 271.846 25.9926C272.565 26.3389 273.174 26.814 273.673 27.418C274.178 28.0226 274.544 28.756 274.772 29.6183C275 30.4749 275.058 31.4572 274.947 32.5653L274.847 33.5575L263.849 32.4532L264.073 30.2145L271.671 30.9773C271.724 30.4572 271.657 29.9851 271.471 29.561C271.285 29.1369 271.003 28.7916 270.624 28.5252C270.252 28.2537 269.803 28.0915 269.277 28.0387C268.728 27.9837 268.23 28.0621 267.78 28.2739C267.337 28.4807 266.975 28.7841 266.695 29.1843C266.416 29.5788 266.247 30.033 266.19 30.5469L265.976 32.6754C265.911 33.3199 265.974 33.8887 266.165 34.3817C266.361 34.8754 266.666 35.2715 267.082 35.5702C267.497 35.8689 268.007 36.0486 268.612 36.1093C269.014 36.1496 269.387 36.13 269.732 36.0504C270.077 35.9708 270.379 35.8299 270.639 35.6276C270.899 35.4253 271.108 35.1664 271.265 34.851L274.584 35.4069C274.334 36.1927 273.916 36.8588 273.33 37.4053C272.751 37.9467 272.031 38.3427 271.172 38.5934C270.32 38.839 269.356 38.9079 268.282 38.8ZM286.507 32.3383L286.222 35.1792L279.421 34.4963L279.706 31.6555L286.507 32.3383ZM281.403 26.7036L280.095 39.729L276.644 39.3825L277.951 26.3571L281.403 26.7036ZM289.281 27.4945L287.973 40.52L284.547 40.176L285.855 27.1506L289.281 27.4945ZM294.706 36.3821L300.224 28.5933L303.786 28.9508L302.478 41.9763L299.035 41.6306L299.867 33.3455L294.363 41.1615L290.776 40.8014L292.083 27.7759L295.535 28.1224L294.706 36.3821ZM311.285 43.1174C309.945 42.9829 308.819 42.5957 307.907 41.9559C307.001 41.3111 306.338 40.4622 305.918 39.4093C305.499 38.3508 305.358 37.1346 305.496 35.7609C305.631 34.421 306.009 33.2712 306.631 32.3115C307.252 31.3517 308.064 30.6366 309.065 30.166C310.071 29.6961 311.213 29.5252 312.491 29.6535C313.35 29.7397 314.136 29.9586 314.849 30.3099C315.568 30.6562 316.177 31.1314 316.676 31.7354C317.181 32.3399 317.547 33.0734 317.774 33.9356C318.002 34.7922 318.061 35.7746 317.949 36.8826L317.85 37.8748L306.851 36.7706L307.076 34.5318L314.674 35.2947C314.726 34.7746 314.659 34.3025 314.474 33.8784C314.288 33.4543 314.005 33.109 313.627 32.8426C313.254 32.571 312.805 32.4089 312.279 32.3561C311.731 32.301 311.232 32.3794 310.783 32.5913C310.339 32.798 309.978 33.1015 309.698 33.5016C309.418 33.8962 309.25 34.3504 309.192 34.8642L308.979 36.9928C308.914 37.6372 308.977 38.206 309.167 38.6991C309.363 39.1927 309.669 39.5889 310.084 39.8876C310.5 40.1862 311.01 40.3659 311.615 40.4267C312.016 40.467 312.389 40.4473 312.734 40.3677C313.079 40.2882 313.382 40.1472 313.642 39.9449C313.902 39.7426 314.111 39.4838 314.268 39.1684L317.587 39.7243C317.337 40.5101 316.919 41.1762 316.333 41.7226C315.753 42.264 315.034 42.6601 314.175 42.9107C313.322 43.1563 312.359 43.2252 311.285 43.1174ZM337.79 27.5338L338.656 30.0019C338.258 30.2703 337.828 30.4556 337.367 30.5577C336.906 30.6542 336.362 30.6939 335.736 30.6767C335.115 30.66 334.36 30.6156 333.471 30.5435C332.463 30.4538 331.627 30.5326 330.963 30.78C330.298 31.0273 329.769 31.4681 329.374 32.1023C328.98 32.7308 328.678 33.5742 328.469 34.6325L328.596 34.6452C329.066 33.8873 329.677 33.3261 330.427 32.9618C331.183 32.598 332.084 32.4686 333.13 32.5736C334.238 32.6848 335.183 33.0253 335.965 33.5949C336.753 34.1651 337.333 34.9285 337.705 35.8853C338.078 36.842 338.2 37.9564 338.072 39.2284C337.939 40.5513 337.564 41.6757 336.945 42.6015C336.333 43.5222 335.525 44.2034 334.522 44.6452C333.519 45.0812 332.361 45.2334 331.05 45.1017C329.732 44.9695 328.624 44.5784 327.724 43.9284C326.83 43.279 326.177 42.3883 325.765 41.2563C325.359 40.1249 325.235 38.7705 325.394 37.1932L325.501 36.1247C325.816 32.9871 326.66 30.722 328.033 29.3295C329.407 27.937 331.279 27.3483 333.65 27.5635C334.296 27.6169 334.878 27.6726 335.398 27.7304C335.917 27.7883 336.375 27.8086 336.771 27.7912C337.172 27.7744 337.512 27.6886 337.79 27.5338ZM331.348 42.305C331.902 42.3606 332.391 42.2641 332.816 42.0156C333.246 41.7675 333.596 41.3858 333.864 40.8703C334.139 40.3553 334.313 39.7247 334.388 38.9785C334.463 38.2379 334.415 37.5993 334.247 37.0627C334.084 36.521 333.816 36.0943 333.441 35.7827C333.067 35.471 332.6 35.2871 332.041 35.2309C331.622 35.1889 331.239 35.2275 330.89 35.3466C330.541 35.4658 330.233 35.6633 329.965 35.9391C329.704 36.2098 329.486 36.5562 329.313 36.9785C329.145 37.3957 329.034 37.8813 328.978 38.4353C328.866 39.549 329.018 40.4522 329.434 41.145C329.856 41.8326 330.494 42.2193 331.348 42.305ZM339.078 45.6508L339.349 42.7829L339.782 42.8263C340.087 42.8569 340.357 42.8098 340.592 42.685C340.834 42.555 341.045 42.3278 341.226 42.0034C341.407 41.6789 341.568 41.2411 341.709 40.69C341.851 40.1331 341.977 39.4434 342.088 38.6209L342.879 32.8757L352.784 33.8701L351.476 46.8955L348.033 46.5499L349.056 36.3653L345.842 36.0426L345.239 39.9993C345.079 41.0853 344.852 42.0105 344.558 42.7747C344.27 43.5395 343.914 44.1548 343.49 44.6205C343.067 45.0805 342.581 45.4029 342.031 45.5875C341.482 45.7722 340.859 45.8296 340.164 45.7598L339.078 45.6508ZM360.136 48.022C358.819 47.8897 357.708 47.4955 356.803 46.8393C355.905 46.1781 355.246 45.3182 354.827 44.2597C354.408 43.1955 354.266 41.9963 354.4 40.6621C354.535 39.3166 354.913 38.1668 355.534 37.2127C356.156 36.253 356.972 35.5412 357.984 35.0774C359.002 34.6086 360.169 34.4403 361.487 34.5725C362.804 34.7048 363.912 35.1015 364.811 35.7628C365.715 36.419 366.377 37.2792 366.796 38.3433C367.215 39.4019 367.357 40.6039 367.222 41.9494C367.088 43.2836 366.71 44.4306 366.088 45.3903C365.467 46.3444 364.648 47.0559 363.63 47.5247C362.618 47.9885 361.454 48.1542 360.136 48.022ZM360.434 45.2252C361.034 45.2854 361.551 45.166 361.986 44.8671C362.422 44.5626 362.772 44.1237 363.035 43.5505C363.304 42.9779 363.476 42.3129 363.552 41.5553C363.628 40.7977 363.592 40.1117 363.442 39.4971C363.298 38.883 363.043 38.3834 362.676 37.9983C362.309 37.6131 361.826 37.3904 361.227 37.3303C360.622 37.2695 360.096 37.3909 359.649 37.6943C359.207 37.9983 358.852 38.4366 358.583 39.0092C358.32 39.5824 358.15 40.2478 358.074 41.0053C357.998 41.7629 358.032 42.4487 358.176 43.0627C358.326 43.6773 358.587 44.1775 358.959 44.5632C359.338 44.9438 359.829 45.1645 360.434 45.2252ZM368.922 48.6471L370.23 35.6216L373.842 35.9843L373.335 41.0385L374.352 41.1406L378.404 36.4424L382.644 36.868L377.391 42.8676L381.388 49.8986L377.097 49.4678L374.347 44.5235L372.998 44.3881L372.534 49.0097L368.922 48.6471ZM386.844 45.6325L392.363 37.8437L395.924 38.2013L394.617 51.2267L391.174 50.8811L392.005 42.596L386.501 50.412L382.914 50.0518L384.222 37.0264L387.673 37.3729L386.844 45.6325ZM397.022 56.402L398.82 38.4921L402.382 38.8496L402.162 41.0375L402.323 41.0537C402.517 40.7191 402.782 40.3859 403.118 40.0542C403.46 39.7173 403.886 39.4518 404.397 39.2575C404.913 39.0581 405.537 38.9951 406.266 39.0683C407.216 39.1636 408.067 39.5003 408.82 40.0784C409.573 40.6509 410.14 41.4587 410.521 42.502C410.902 43.5396 411.018 44.8046 410.868 46.2971C410.722 47.75 410.364 48.9533 409.795 49.9068C409.231 50.8553 408.522 51.5464 407.668 51.9803C406.819 52.4091 405.901 52.5738 404.911 52.4744C404.21 52.4041 403.626 52.2283 403.157 51.9471C402.694 51.6665 402.325 51.3354 402.049 50.9536C401.774 50.5662 401.572 50.1834 401.445 49.8051L401.334 49.7941L400.635 56.7647L397.022 56.402ZM401.703 45.3598C401.625 46.1343 401.664 46.8207 401.821 47.4189C401.978 48.0171 402.244 48.4978 402.619 48.8609C402.994 49.2183 403.473 49.4263 404.055 49.4848C404.643 49.5438 405.157 49.4326 405.596 49.1512C406.036 48.8642 406.39 48.4429 406.657 47.8872C406.93 47.3265 407.105 46.6673 407.181 45.9098C407.256 45.1579 407.218 44.4859 407.066 43.8939C406.914 43.302 406.651 42.8244 406.276 42.4613C405.902 42.0982 405.418 41.8868 404.824 41.8272C404.236 41.7682 403.723 41.8737 403.285 42.1438C402.852 42.4144 402.5 42.8245 402.227 43.3739C401.955 43.9233 401.78 44.5853 401.703 45.3598ZM418.484 53.8799C417.166 53.7477 416.055 53.3535 415.151 52.6973C414.252 52.036 413.593 51.1761 413.174 50.1176C412.755 49.0534 412.613 47.8542 412.747 46.52C412.882 45.1745 413.26 44.0247 413.881 43.0706C414.503 42.1109 415.32 41.3991 416.331 40.9354C417.349 40.4665 418.517 40.2982 419.834 40.4305C421.151 40.5627 422.259 40.9595 423.158 41.6207C424.063 42.2769 424.724 43.1371 425.143 44.2013C425.562 45.2598 425.704 46.4618 425.569 47.8073C425.435 49.1415 425.057 50.2885 424.435 51.2482C423.814 52.2023 422.995 52.9138 421.977 53.3826C420.965 53.8464 419.801 54.0122 418.484 53.8799ZM418.782 51.0832C419.381 51.1433 419.898 51.024 420.334 50.7251C420.77 50.4205 421.119 49.9816 421.382 49.4085C421.651 48.8359 421.824 48.1708 421.9 47.4132C421.976 46.6557 421.939 45.9696 421.789 45.355C421.645 44.7409 421.39 44.2414 421.023 43.8562C420.657 43.471 420.174 43.2484 419.574 43.1882C418.969 43.1275 418.443 43.2488 417.996 43.5523C417.554 43.8562 417.199 44.2945 416.93 44.8671C416.667 45.4403 416.498 46.1057 416.421 46.8632C416.345 47.6208 416.379 48.3066 416.523 48.9206C416.673 49.5352 416.934 50.0354 417.306 50.4211C417.685 50.8018 418.177 51.0225 418.782 51.0832ZM427.269 54.505L428.577 41.4796L434.131 42.0372C435.737 42.1984 436.975 42.6311 437.847 43.3353C438.718 44.0396 439.098 44.9542 438.985 46.0792C438.914 46.7859 438.592 47.3474 438.019 47.7639C437.446 48.1803 436.685 48.4237 435.736 48.494C436.51 48.6289 437.157 48.8736 437.675 49.2283C438.2 49.5779 438.582 50.0018 438.824 50.5C439.071 50.9987 439.165 51.5336 439.108 52.1046C439.034 52.8452 438.772 53.4613 438.323 53.953C437.879 54.4453 437.265 54.7947 436.479 55.0013C435.698 55.2085 434.766 55.2576 433.68 55.1486L427.269 54.505ZM430.907 52.1378L433.952 52.4435C434.455 52.494 434.86 52.4147 435.166 52.2057C435.479 51.9915 435.656 51.6753 435.698 51.2569C435.745 50.7933 435.637 50.4142 435.376 50.1196C435.12 49.8255 434.74 49.6532 434.237 49.6026L431.193 49.297L430.907 52.1378ZM431.405 47.177L433.67 47.4043C434.031 47.4406 434.345 47.4207 434.609 47.3445C434.88 47.2632 435.093 47.1304 435.249 46.9461C435.41 46.7624 435.504 46.5349 435.532 46.2636C435.572 45.8622 435.442 45.5322 435.143 45.2737C434.843 45.0153 434.414 44.8579 433.854 44.8017L431.666 44.5821L431.405 47.177ZM444.718 56.5052C443.887 56.4217 443.161 56.2032 442.539 55.8496C441.919 55.4904 441.448 55.0063 441.126 54.3972C440.811 53.7831 440.697 53.0464 440.783 52.1871C440.855 51.4635 441.049 50.8691 441.364 50.4039C441.68 49.9387 442.081 49.5793 442.569 49.3257C443.057 49.072 443.6 48.8981 444.198 48.8039C444.801 48.7103 445.428 48.6647 446.079 48.6673C446.844 48.6642 447.462 48.652 447.932 48.6307C448.403 48.6037 448.75 48.5301 448.974 48.4097C449.197 48.2894 449.323 48.0907 449.351 47.8137L449.356 47.7628C449.41 47.2258 449.282 46.7932 448.972 46.4652C448.668 46.1377 448.208 45.943 447.592 45.8812C446.942 45.8159 446.41 45.9081 445.996 46.1579C445.584 46.4019 445.293 46.7326 445.126 47.1497L441.812 46.5429C442.061 45.7685 442.463 45.1179 443.019 44.5912C443.575 44.0589 444.261 43.6767 445.078 43.4446C445.901 43.2075 446.833 43.1411 447.873 43.2456C448.597 43.3182 449.281 43.4726 449.926 43.7086C450.576 43.9451 451.14 44.2673 451.619 44.6752C452.103 45.0835 452.467 45.5826 452.71 46.1724C452.954 46.7565 453.037 47.4358 452.96 48.2103L452.078 56.9957L448.652 56.6517L448.833 54.8455L448.731 54.8353C448.481 55.2213 448.165 55.5522 447.784 55.828C447.403 56.098 446.957 56.296 446.448 56.4219C445.939 56.5421 445.362 56.5699 444.718 56.5052ZM446.003 54.1159C446.534 54.1693 447.014 54.1118 447.442 53.9435C447.87 53.7695 448.219 53.5133 448.487 53.1747C448.755 52.8362 448.912 52.4379 448.958 51.98L449.097 50.5977C448.976 50.6599 448.814 50.7121 448.61 50.7544C448.412 50.7917 448.189 50.8235 447.941 50.85C447.693 50.8708 447.446 50.8888 447.199 50.904C446.952 50.9135 446.729 50.9225 446.528 50.9309C446.098 50.9505 445.717 51.0122 445.387 51.1161C445.057 51.22 444.793 51.3791 444.594 51.5933C444.396 51.8018 444.28 52.0757 444.246 52.4149C444.197 52.9067 444.337 53.3006 444.667 53.5964C445.003 53.8871 445.449 54.0603 446.003 54.1159ZM464.744 50.2329L464.459 53.0737L457.658 52.3909L457.943 49.5501L464.744 50.2329ZM459.639 44.5982L458.332 57.6236L454.88 57.2771L456.188 44.2517L459.639 44.5982ZM467.518 45.3891L466.21 58.4145L462.784 58.0706L464.092 45.0451L467.518 45.3891ZM474.872 59.5412C473.555 59.4089 472.444 59.0147 471.539 58.3585C470.64 57.6973 469.981 56.8374 469.562 55.7789C469.144 54.7147 469.001 53.5155 469.135 52.1813C469.271 50.8358 469.649 49.686 470.27 48.7319C470.891 47.7722 471.708 47.0604 472.72 46.5966C473.738 46.1278 474.905 45.9595 476.222 46.0917C477.54 46.224 478.648 46.6207 479.546 47.282C480.451 47.9382 481.113 48.7984 481.531 49.8625C481.95 50.9211 482.092 52.1231 481.957 53.4686C481.823 54.8028 481.446 55.9498 480.824 56.9095C480.203 57.8636 479.383 58.5751 478.365 59.0439C477.354 59.5077 476.189 59.6734 474.872 59.5412ZM475.17 56.7444C475.769 56.8046 476.287 56.6852 476.722 56.3863C477.158 56.0818 477.508 55.6429 477.771 55.0697C478.04 54.4971 478.212 53.8321 478.288 53.0745C478.364 52.3169 478.327 51.6309 478.178 51.0163C478.034 50.4022 477.778 49.9026 477.412 49.5175C477.045 49.1323 476.562 48.9096 475.963 48.8495C475.358 48.7887 474.832 48.9101 474.384 49.2135C473.943 49.5175 473.587 49.9558 473.319 50.5284C473.056 51.1016 472.886 51.7669 472.81 52.5245C472.734 53.2821 472.768 53.9679 472.912 54.5819C473.061 55.1965 473.322 55.6967 473.695 56.0824C474.073 56.463 474.565 56.6837 475.17 56.7444Z" fill="white"/>
<path d="M182.634 126.681C181.317 126.813 180.15 126.647 179.133 126.183C178.121 125.712 177.305 125 176.684 124.046C176.063 123.085 175.686 121.938 175.553 120.604C175.419 119.258 175.562 118.056 175.982 116.998C176.401 115.934 177.06 115.075 177.96 114.42C178.865 113.759 179.976 113.362 181.293 113.231C182.611 113.1 183.775 113.269 184.787 113.739C185.804 114.203 186.623 114.915 187.244 115.875C187.865 116.83 188.242 117.98 188.376 119.326C188.509 120.66 188.366 121.859 187.947 122.923C187.527 123.981 186.865 124.841 185.96 125.502C185.06 126.157 183.952 126.55 182.634 126.681ZM182.372 123.881C182.971 123.821 183.455 123.602 183.823 123.223C184.19 122.838 184.445 122.338 184.59 121.724C184.74 121.11 184.777 120.424 184.701 119.666C184.626 118.909 184.454 118.243 184.186 117.671C183.923 117.097 183.574 116.658 183.138 116.353C182.702 116.048 182.184 115.926 181.585 115.986C180.98 116.046 180.488 116.269 180.11 116.655C179.737 117.041 179.476 117.541 179.326 118.155C179.182 118.769 179.147 119.455 179.223 120.212C179.298 120.97 179.467 121.635 179.73 122.209C179.999 122.782 180.353 123.22 180.795 123.524C181.241 123.823 181.767 123.941 182.372 123.881ZM200.424 106.665L201.761 108.912C201.424 109.254 201.04 109.521 200.608 109.713C200.175 109.898 199.65 110.045 199.033 110.152C198.421 110.259 197.672 110.365 196.786 110.47C195.781 110.582 194.977 110.825 194.375 111.199C193.773 111.573 193.341 112.11 193.08 112.81C192.818 113.504 192.689 114.39 192.694 115.469L192.821 115.457C193.132 114.62 193.619 113.95 194.282 113.444C194.951 112.937 195.808 112.632 196.854 112.528C197.962 112.417 198.956 112.564 199.836 112.967C200.721 113.37 201.441 114.003 201.995 114.867C202.55 115.731 202.89 116.8 203.017 118.072C203.149 119.395 203.004 120.571 202.581 121.601C202.163 122.625 201.506 123.453 200.61 124.084C199.713 124.711 198.609 125.089 197.297 125.22C195.98 125.351 194.816 125.187 193.805 124.728C192.8 124.269 191.984 123.525 191.356 122.497C190.734 121.469 190.344 120.166 190.187 118.588L190.08 117.52C189.767 114.382 190.146 111.995 191.216 110.358C192.287 108.721 194.005 107.773 196.372 107.514C197.015 107.438 197.597 107.378 198.118 107.331C198.639 107.285 199.091 107.214 199.476 107.119C199.866 107.023 200.182 106.872 200.424 106.665ZM197.035 122.419C197.589 122.364 198.05 122.173 198.417 121.845C198.79 121.517 199.057 121.073 199.218 120.515C199.385 119.955 199.431 119.303 199.357 118.556C199.283 117.816 199.11 117.199 198.838 116.707C198.572 116.208 198.224 115.843 197.796 115.612C197.367 115.38 196.873 115.292 196.313 115.348C195.895 115.39 195.526 115.504 195.208 115.69C194.89 115.876 194.627 116.13 194.419 116.453C194.217 116.771 194.072 117.153 193.986 117.602C193.904 118.044 193.891 118.542 193.946 119.096C194.057 120.21 194.385 121.065 194.93 121.661C195.48 122.252 196.182 122.505 197.035 122.419ZM206.723 110.867L207.008 113.734L203.667 114.067L203.381 111.2L206.723 110.867ZM209.378 114.645L213.279 114.257C215.003 114.085 216.387 114.363 217.43 115.093C218.479 115.817 219.075 116.865 219.217 118.238C219.301 119.132 219.158 119.94 218.791 120.662C218.422 121.378 217.847 121.966 217.065 122.427C216.288 122.881 215.326 123.166 214.178 123.28L208.021 123.894L206.723 110.867L210.166 110.524L211.181 120.709L213.895 120.439C214.5 120.379 214.982 120.176 215.342 119.832C215.702 119.488 215.858 119.078 215.81 118.604C215.76 118.1 215.524 117.71 215.103 117.432C214.68 117.149 214.167 117.037 213.562 117.098L209.661 117.486L209.378 114.645ZM229.694 121.733L228.677 111.539L226.235 111.783C225.574 111.849 225.086 112.052 224.771 112.391C224.457 112.731 224.323 113.11 224.37 113.528C224.407 113.952 224.607 114.295 224.97 114.556C225.338 114.81 225.85 114.905 226.505 114.839L230.186 114.472L230.43 116.915L226.749 117.282C225.635 117.393 224.654 117.319 223.806 117.061C222.958 116.803 222.284 116.394 221.782 115.833C221.281 115.266 220.992 114.578 220.917 113.769C220.827 112.922 220.971 112.156 221.348 111.474C221.725 110.785 222.305 110.222 223.089 109.784C223.879 109.34 224.833 109.062 225.953 108.95L231.762 108.371L233.06 121.398L229.694 121.733ZM221.416 122.558L224.361 115.413L227.813 115.069L224.877 122.213L221.416 122.558ZM235.868 121.118L234.569 108.091L240.124 107.538C241.73 107.378 243.029 107.556 244.023 108.074C245.017 108.592 245.57 109.413 245.682 110.538C245.752 111.245 245.548 111.859 245.069 112.381C244.59 112.902 243.892 113.292 242.976 113.549C243.762 113.527 244.444 113.639 245.022 113.884C245.605 114.123 246.065 114.463 246.4 114.903C246.74 115.343 246.939 115.849 246.996 116.42C247.07 117.16 246.936 117.816 246.593 118.387C246.256 118.957 245.722 119.422 244.993 119.78C244.269 120.138 243.365 120.37 242.279 120.479L235.868 121.118ZM238.965 118.077L242.009 117.773C242.512 117.723 242.894 117.565 243.153 117.3C243.417 117.028 243.528 116.683 243.486 116.264C243.44 115.801 243.259 115.45 242.945 115.213C242.635 114.976 242.229 114.882 241.726 114.932L238.682 115.236L238.965 118.077ZM238.47 113.116L240.734 112.89C241.096 112.854 241.399 112.772 241.644 112.645C241.893 112.512 242.076 112.339 242.192 112.128C242.313 111.916 242.361 111.674 242.334 111.403C242.294 111.001 242.101 110.704 241.756 110.51C241.411 110.316 240.959 110.247 240.399 110.302L238.211 110.521L238.47 113.116ZM248.864 119.822L248.562 116.957L248.994 116.914C249.299 116.884 249.555 116.784 249.761 116.615C249.972 116.44 250.134 116.175 250.247 115.822C250.36 115.468 250.431 115.007 250.46 114.438C250.489 113.865 250.476 113.164 250.422 112.335L250.059 106.547L259.964 105.56L261.263 118.586L257.82 118.929L256.804 108.744L253.59 109.065L253.783 113.062C253.841 114.159 253.802 115.11 253.665 115.918C253.535 116.724 253.308 117.398 252.985 117.938C252.661 118.473 252.248 118.885 251.746 119.175C251.244 119.465 250.645 119.645 249.95 119.714L248.864 119.822ZM270.026 117.97C268.686 118.103 267.505 117.947 266.484 117.5C265.469 117.048 264.651 116.347 264.031 115.398C263.41 114.444 263.032 113.279 262.895 111.906C262.761 110.566 262.904 109.364 263.323 108.3C263.742 107.236 264.396 106.374 265.284 105.715C266.177 105.055 267.263 104.661 268.541 104.534C269.4 104.448 270.214 104.507 270.982 104.71C271.755 104.907 272.446 105.252 273.055 105.745C273.67 106.238 274.174 106.884 274.568 107.684C274.961 108.479 275.213 109.43 275.323 110.538L275.422 111.53L264.423 112.627L264.199 110.388L271.798 109.63C271.746 109.11 271.587 108.661 271.321 108.282C271.055 107.903 270.71 107.621 270.286 107.434C269.867 107.242 269.395 107.172 268.869 107.225C268.32 107.279 267.847 107.455 267.448 107.752C267.055 108.042 266.76 108.411 266.565 108.859C266.369 109.301 266.294 109.779 266.34 110.295L266.552 112.423C266.616 113.068 266.791 113.613 267.075 114.058C267.365 114.503 267.743 114.831 268.209 115.042C268.676 115.252 269.211 115.327 269.816 115.267C270.218 115.227 270.579 115.134 270.902 114.987C271.224 114.841 271.493 114.643 271.708 114.393C271.922 114.143 272.076 113.848 272.167 113.508L275.531 113.395C275.441 114.215 275.163 114.951 274.697 115.602C274.236 116.248 273.61 116.779 272.818 117.195C272.03 117.604 271.1 117.863 270.026 117.97ZM286.61 108.025L286.893 110.867L280.091 111.545L279.808 108.704L286.61 108.025ZM280.49 103.514L281.788 116.54L278.337 116.884L277.038 103.858L280.49 103.514ZM288.368 102.728L289.667 115.755L286.241 116.096L284.942 103.07L288.368 102.728ZM295.446 110.365L299.313 101.637L302.875 101.282L304.173 114.309L300.73 114.652L299.904 106.366L296.057 115.118L292.47 115.475L291.171 102.449L294.623 102.105L295.446 110.365ZM313.031 113.682C311.691 113.816 310.511 113.66 309.49 113.213C308.474 112.761 307.656 112.06 307.036 111.111C306.416 110.157 306.037 108.992 305.9 107.618C305.767 106.279 305.909 105.077 306.329 104.013C306.748 102.949 307.402 102.087 308.289 101.428C309.183 100.768 310.268 100.374 311.546 100.246C312.406 100.161 313.219 100.22 313.988 100.423C314.761 100.62 315.452 100.965 316.061 101.458C316.675 101.951 317.179 102.597 317.573 103.397C317.966 104.192 318.218 105.143 318.329 106.251L318.428 107.243L307.428 108.34L307.205 106.101L314.804 105.343C314.752 104.823 314.593 104.374 314.327 103.995C314.06 103.616 313.715 103.333 313.291 103.147C312.873 102.955 312.4 102.885 311.874 102.937C311.326 102.992 310.852 103.168 310.454 103.464C310.06 103.755 309.766 104.124 309.571 104.572C309.375 105.014 309.3 105.492 309.345 106.007L309.558 108.136C309.622 108.781 309.796 109.326 310.08 109.771C310.37 110.216 310.748 110.544 311.215 110.754C311.681 110.965 312.217 111.04 312.822 110.98C313.223 110.94 313.585 110.846 313.907 110.7C314.23 110.554 314.498 110.356 314.713 110.106C314.928 109.856 315.081 109.561 315.173 109.221L318.536 109.108C318.447 109.928 318.169 110.664 317.703 111.315C317.242 111.961 316.615 112.492 315.823 112.907C315.036 113.317 314.105 113.575 313.031 113.682ZM335.924 93.1569L337.262 95.4047C336.925 95.7466 336.54 96.0133 336.108 96.2049C335.675 96.3907 335.15 96.5373 334.533 96.6445C333.921 96.7512 333.172 96.8572 332.287 96.9627C331.281 97.0743 330.478 97.3172 329.875 97.6912C329.273 98.0653 328.841 98.6023 328.58 99.3021C328.318 99.9963 328.189 100.883 328.194 101.961L328.321 101.949C328.632 101.113 329.119 100.442 329.782 99.936C330.451 99.4296 331.309 99.1243 332.355 99.02C333.463 98.9096 334.457 99.056 335.336 99.4594C336.221 99.8622 336.941 100.496 337.496 101.36C338.05 102.224 338.39 103.292 338.517 104.564C338.649 105.887 338.504 107.063 338.081 108.093C337.664 109.117 337.007 109.945 336.11 110.577C335.214 111.203 334.109 111.581 332.798 111.712C331.48 111.843 330.316 111.68 329.305 111.221C328.3 110.761 327.484 110.018 326.856 108.99C326.234 107.961 325.844 106.658 325.687 105.081L325.581 104.012C325.268 100.874 325.646 98.4868 326.717 96.8499C327.787 95.2129 329.505 94.265 331.872 94.0063C332.515 93.9307 333.097 93.8698 333.618 93.8236C334.139 93.7774 334.591 93.7066 334.976 93.6112C335.366 93.5152 335.682 93.3638 335.924 93.1569ZM332.536 108.912C333.09 108.856 333.55 108.665 333.917 108.337C334.29 108.009 334.557 107.565 334.718 107.007C334.885 106.448 334.931 105.795 334.857 105.049C334.783 104.308 334.61 103.691 334.339 103.199C334.072 102.7 333.724 102.335 333.296 102.104C332.867 101.872 332.373 101.785 331.814 101.84C331.395 101.882 331.027 101.996 330.708 102.182C330.39 102.368 330.127 102.622 329.919 102.946C329.717 103.263 329.572 103.646 329.486 104.094C329.404 104.536 329.391 105.034 329.446 105.588C329.557 106.702 329.885 107.557 330.43 108.154C330.98 108.744 331.682 108.997 332.536 108.912ZM340.776 110.66L340.473 107.795L340.906 107.752C341.211 107.721 341.467 107.622 341.672 107.453C341.883 107.277 342.045 107.013 342.159 106.659C342.272 106.305 342.343 105.844 342.372 105.276C342.4 104.702 342.388 104.001 342.333 103.173L341.971 97.3848L351.876 96.3974L353.175 109.424L349.731 109.767L348.716 99.5816L345.502 99.902L345.695 103.9C345.753 104.996 345.713 105.948 345.577 106.755C345.446 107.562 345.219 108.235 344.896 108.776C344.573 109.311 344.16 109.723 343.658 110.013C343.156 110.303 342.557 110.482 341.861 110.551L340.776 110.66ZM361.886 108.812C360.569 108.944 359.402 108.777 358.385 108.313C357.373 107.843 356.557 107.131 355.936 106.176C355.315 105.216 354.938 104.069 354.805 102.735C354.671 101.389 354.814 100.187 355.234 99.1289C355.653 98.065 356.313 97.2056 357.212 96.5506C358.117 95.8894 359.228 95.4931 360.546 95.3618C361.863 95.2305 363.027 95.3999 364.039 95.87C365.056 96.3339 365.875 97.046 366.496 98.0062C367.117 98.9607 367.494 100.111 367.628 101.456C367.761 102.791 367.618 103.99 367.199 105.054C366.779 106.112 366.117 106.972 365.212 107.633C364.312 108.288 363.204 108.681 361.886 108.812ZM361.624 106.012C362.224 105.952 362.707 105.733 363.075 105.353C363.442 104.968 363.697 104.469 363.842 103.855C363.992 103.241 364.029 102.555 363.954 101.797C363.878 101.039 363.706 100.374 363.438 99.8014C363.175 99.228 362.826 98.7889 362.39 98.484C361.954 98.1792 361.437 98.0566 360.837 98.1164C360.232 98.1767 359.741 98.3998 359.362 98.7859C358.99 99.1713 358.728 99.6713 358.578 100.286C358.434 100.9 358.399 101.586 358.475 102.343C358.55 103.101 358.72 103.766 358.982 104.34C359.251 104.912 359.606 105.351 360.047 105.655C360.494 105.953 361.019 106.072 361.624 106.012ZM370.622 107.684L369.323 94.6581L372.936 94.298L373.44 99.3525L374.457 99.251L377.498 93.8431L381.739 93.4204L377.778 100.342L383.088 106.442L378.797 106.869L375.122 102.568L373.774 102.702L374.234 107.324L370.622 107.684ZM387.591 101.179L391.458 92.4516L395.019 92.0965L396.318 105.123L392.875 105.466L392.049 97.1804L388.202 105.932L384.615 106.29L383.316 93.2632L386.768 92.9191L387.591 101.179ZM399.701 109.719L397.916 91.8078L401.478 91.4527L401.696 93.6407L401.857 93.6246C401.98 93.2583 402.174 92.8793 402.437 92.4876C402.706 92.0897 403.071 91.7449 403.533 91.4533C404 91.1555 404.598 90.9703 405.328 90.8976C406.278 90.8029 407.179 90.9643 408.031 91.3818C408.883 91.7936 409.599 92.4731 410.179 93.4203C410.758 94.3618 411.122 95.5789 411.271 97.0715C411.416 98.5245 411.303 99.7747 410.934 100.822C410.569 101.864 410.011 102.681 409.26 103.276C408.513 103.864 407.645 104.208 406.656 104.306C405.955 104.376 405.347 104.32 404.832 104.137C404.323 103.954 403.895 103.702 403.549 103.383C403.203 103.058 402.929 102.722 402.729 102.377L402.619 102.388L403.314 109.359L399.701 109.719ZM402.101 97.9684C402.179 98.743 402.353 99.4079 402.626 99.9632C402.898 100.518 403.254 100.937 403.693 101.219C404.132 101.495 404.642 101.604 405.224 101.546C405.812 101.487 406.294 101.276 406.669 100.913C407.043 100.545 407.306 100.062 407.458 99.4643C407.615 98.8605 407.655 98.1799 407.58 97.4223C407.505 96.6703 407.334 96.0192 407.068 95.4691C406.802 94.9189 406.449 94.5029 406.01 94.2213C405.571 93.9396 405.055 93.8283 404.461 93.8875C403.873 93.9461 403.391 94.1512 403.015 94.5027C402.645 94.8537 402.38 95.3254 402.222 95.9179C402.064 96.5103 402.024 97.1938 402.101 97.9684ZM420.238 102.995C418.92 103.127 417.753 102.96 416.736 102.496C415.724 102.026 414.908 101.314 414.288 100.359C413.667 99.3992 413.29 98.252 413.157 96.9177C413.023 95.5721 413.165 94.3702 413.585 93.312C414.005 92.2481 414.664 91.3886 415.564 90.7337C416.469 90.0725 417.58 89.6762 418.897 89.5449C420.214 89.4136 421.379 89.583 422.391 90.0531C423.408 90.517 424.227 91.2291 424.848 92.1892C425.468 93.1438 425.845 94.2938 425.98 95.6394C426.113 96.9737 425.969 98.1728 425.55 99.2367C425.13 100.295 424.468 101.155 423.563 101.816C422.664 102.471 421.555 102.864 420.238 102.995ZM419.976 100.195C420.575 100.135 421.058 99.9157 421.426 99.5365C421.793 99.1516 422.049 98.6522 422.193 98.0382C422.343 97.4237 422.38 96.7377 422.305 95.98C422.229 95.2224 422.057 94.5572 421.789 93.9844C421.526 93.4111 421.177 92.972 420.741 92.6671C420.305 92.3622 419.788 92.2397 419.189 92.2994C418.584 92.3597 418.092 92.5829 417.714 92.9689C417.341 93.3544 417.08 93.8544 416.93 94.4689C416.785 95.0828 416.751 95.7686 416.826 96.5262C416.902 97.2838 417.071 97.9493 417.334 98.5226C417.602 99.0954 417.957 99.534 418.398 99.8383C418.845 100.136 419.371 100.255 419.976 100.195ZM428.973 101.868L427.674 88.8412L433.229 88.2874C434.835 88.1274 436.135 88.3061 437.128 88.8237C438.122 89.3414 438.675 90.1627 438.787 91.2878C438.858 91.9946 438.653 92.6088 438.174 93.1304C437.695 93.6521 436.998 94.0414 436.081 94.2984C436.867 94.2772 437.549 94.389 438.127 94.634C438.711 94.8728 439.17 95.2124 439.505 95.6529C439.846 96.0929 440.045 96.5984 440.102 97.1694C440.175 97.9101 440.041 98.5658 439.698 99.1367C439.361 99.7071 438.828 100.171 438.098 100.53C437.375 100.887 436.47 101.12 435.384 101.228L428.973 101.868ZM432.07 98.8266L435.115 98.523C435.618 98.4729 435.999 98.315 436.258 98.0493C436.522 97.7775 436.633 97.4324 436.592 97.014C436.545 96.5504 436.365 96.2001 436.05 95.9631C435.741 95.7255 435.335 95.6319 434.831 95.682L431.787 95.9855L432.07 98.8266ZM431.576 93.8653L433.84 93.6396C434.202 93.6035 434.505 93.5219 434.749 93.3948C434.998 93.2615 435.181 93.0891 435.297 92.8777C435.419 92.6657 435.466 92.424 435.439 92.1526C435.399 91.7512 435.206 91.4535 434.862 91.2595C434.517 91.0655 434.065 90.9963 433.505 91.0521L431.317 91.2703L431.576 93.8653ZM446.472 100.371C445.641 100.454 444.886 100.384 444.207 100.16C443.527 99.9313 442.97 99.5501 442.534 99.0168C442.103 98.4773 441.845 97.7779 441.76 96.9185C441.687 96.1948 441.76 95.5738 441.976 95.0554C442.193 94.537 442.515 94.1052 442.944 93.7599C443.372 93.4146 443.869 93.1366 444.436 92.9259C445.009 92.7146 445.615 92.5457 446.253 92.4193C447.003 92.2646 447.606 92.1303 448.063 92.0162C448.519 91.8965 448.845 91.7555 449.04 91.5933C449.235 91.4311 449.319 91.2115 449.291 90.9345L449.286 90.8836C449.233 90.3465 449.022 89.9478 448.653 89.6877C448.29 89.4269 447.801 89.3273 447.184 89.3887C446.534 89.4535 446.031 89.6492 445.675 89.9759C445.319 90.2969 445.1 90.6785 445.019 91.1206L441.65 91.1823C441.741 90.3738 442.006 89.6565 442.446 89.0302C442.886 88.3983 443.483 87.8876 444.238 87.4983C444.998 87.1028 445.898 86.8532 446.938 86.7495C447.662 86.6774 448.363 86.6931 449.041 86.7968C449.726 86.8999 450.343 87.1039 450.893 87.4088C451.448 87.7131 451.904 88.1302 452.259 88.6601C452.614 89.1843 452.83 89.8337 452.907 90.6082L453.783 99.3942L450.357 99.7358L450.177 97.9294L450.075 97.9396C449.907 98.3675 449.662 98.7544 449.343 99.1003C449.023 99.4405 448.626 99.7228 448.151 99.9471C447.676 100.166 447.116 100.307 446.472 100.371ZM447.258 97.775C447.789 97.722 448.248 97.5707 448.635 97.3209C449.02 97.0655 449.311 96.7453 449.507 96.3603C449.702 95.9754 449.777 95.5539 449.732 95.096L449.594 93.7136C449.488 93.7984 449.339 93.8817 449.148 93.9636C448.961 94.0393 448.749 94.1147 448.511 94.1899C448.272 94.2593 448.033 94.326 447.794 94.3898C447.554 94.4479 447.337 94.501 447.142 94.549C446.724 94.6535 446.364 94.7893 446.061 94.9566C445.758 95.1238 445.53 95.3321 445.378 95.5814C445.225 95.825 445.166 96.1164 445.199 96.4557C445.248 96.9475 445.464 97.3058 445.846 97.5303C446.233 97.7487 446.704 97.8302 447.258 97.775ZM464.859 90.2562L465.142 93.0972L458.341 93.7752L458.057 90.9342L464.859 90.2562ZM458.739 85.7444L460.038 98.7707L456.586 99.1148L455.288 86.0885L458.739 85.7444ZM466.618 84.959L467.916 97.9853L464.49 98.3269L463.192 85.3006L466.618 84.959ZM476.63 97.3736C475.313 97.505 474.146 97.3387 473.129 96.8747C472.117 96.4046 471.301 95.6923 470.68 94.7378C470.059 93.7776 469.682 92.6304 469.549 91.2961C469.415 89.9505 469.558 88.7485 469.978 87.6903C470.397 86.6264 471.056 85.767 471.956 85.112C472.861 84.4508 473.972 84.0546 475.289 83.9233C476.607 83.7919 477.771 83.9613 478.783 84.4315C479.8 84.8954 480.619 85.6074 481.24 86.5676C481.86 87.5221 482.238 88.6722 482.372 90.0178C482.505 91.3521 482.362 92.5512 481.943 93.615C481.523 94.6733 480.86 95.533 479.956 96.1942C479.056 96.8492 477.947 97.2423 476.63 97.3736ZM476.368 94.5733C476.967 94.5136 477.451 94.2941 477.818 93.9148C478.185 93.5299 478.441 93.0305 478.586 92.4166C478.736 91.8021 478.773 91.116 478.697 90.3584C478.622 89.6008 478.45 88.9356 478.181 88.3628C477.919 87.7894 477.569 87.3503 477.134 87.0455C476.698 86.7406 476.18 86.618 475.581 86.6778C474.976 86.7381 474.484 86.9613 474.106 87.3473C473.733 87.7327 473.472 88.2327 473.322 88.8472C473.178 89.4612 473.143 90.1469 473.219 90.9046C473.294 91.6622 473.463 92.3276 473.726 92.901C473.994 93.4738 474.349 93.9123 474.791 94.2166C475.237 94.5147 475.763 94.6336 476.368 94.5733Z" fill="white"/>
</g>
<defs>
<clipPath id="clip0_5_2">
<rect width="1390" height="145" fill="white"/>
</clipPath>
</defs>
</svg>
