<svg width="1390" height="145" viewBox="0 0 1390 145" fill="none" xmlns="http://www.w3.org/2000/svg">
<g clip-path="url(#clip0_5_2)">
<rect x="-95" y="129.925" width="1584.2" height="27" transform="rotate(-5.1399 -95 129.925)" fill="#D3C68C"/>
<rect x="-107.503" y="-16" width="1614" height="27" transform="rotate(5.30651 -107.503 -16)" fill="#D3C68C"/>
<path d="M940.451 57.1557C939.133 57.2758 937.967 57.0996 936.954 56.6271C935.946 56.1484 935.136 55.4292 934.524 54.4694C933.911 53.504 933.544 52.3536 933.422 51.0182C933.299 49.6715 933.452 48.4709 933.881 47.4163C934.309 46.356 934.976 45.5022 935.881 44.8548C936.792 44.2014 937.906 43.8145 939.225 43.6944C940.543 43.5743 941.706 43.7535 942.714 44.2322C943.727 44.7048 944.54 45.4237 945.153 46.3891C945.765 47.3489 946.133 48.5021 946.255 49.8488C946.377 51.1842 946.224 52.382 945.795 53.4423C945.367 54.4969 944.697 55.351 943.787 56.0045C942.881 56.6518 941.77 57.0355 940.451 57.1557ZM940.213 54.3532C940.813 54.2986 941.298 54.0832 941.669 53.7071C942.039 53.3253 942.299 52.8281 942.449 52.2154C942.604 51.6022 942.647 50.9165 942.578 50.1582C942.509 49.4 942.342 48.7334 942.079 48.1583C941.821 47.5828 941.476 47.1407 941.042 46.8322C940.609 46.5236 940.093 46.3967 939.493 46.4513C938.887 46.5065 938.394 46.7255 938.012 47.1083C937.636 47.4906 937.371 47.9883 937.216 48.6015C937.066 49.2142 937.026 49.8997 937.095 50.6579C937.164 51.4161 937.327 52.083 937.585 52.6586C937.849 53.2336 938.2 53.6752 938.639 53.9832C939.083 54.2851 939.608 54.4084 940.213 54.3532ZM958.41 37.2906L959.729 39.5496C959.389 39.8886 959.002 40.1521 958.568 40.3399C958.134 40.5221 957.608 40.6642 956.99 40.7662C956.377 40.8677 955.627 40.9674 954.74 41.0653C953.734 41.1684 952.928 41.4044 952.323 41.7734C951.718 42.1423 951.281 42.6756 951.014 43.3732C950.746 44.0651 950.61 44.9505 950.606 46.0292L950.733 46.0176C951.051 45.1842 951.543 44.5174 952.211 44.0172C952.884 43.5166 953.744 43.2186 954.791 43.1232C955.9 43.0221 956.893 43.177 957.769 43.5878C958.65 43.9981 959.365 44.6376 959.912 45.5064C960.459 46.3751 960.79 47.446 960.906 48.7191C961.027 50.0432 960.872 51.2184 960.44 52.2447C960.014 53.2649 959.35 54.0871 958.449 54.7112C957.546 55.3297 956.439 55.6988 955.126 55.8184C953.808 55.9386 952.645 55.7649 951.638 55.2976C950.637 54.8297 949.827 54.0791 949.208 53.0457C948.595 52.0119 948.216 50.7057 948.072 49.127L947.975 48.0575C947.689 44.9171 948.088 42.533 949.172 40.9052C950.256 39.2774 951.982 38.3442 954.351 38.1055C954.995 38.0354 955.577 37.9794 956.099 37.9377C956.62 37.8959 957.073 37.8289 957.458 37.7368C957.849 37.6441 958.166 37.4953 958.41 37.2906ZM954.888 53.016C955.442 52.9654 955.905 52.7778 956.274 52.4532C956.65 52.128 956.921 51.6868 957.087 51.1297C957.258 50.572 957.31 49.9198 957.242 49.1729C957.175 48.4316 957.007 47.8136 956.739 47.3188C956.477 46.8178 956.132 46.4498 955.706 46.2148C955.279 45.9798 954.786 45.8879 954.226 45.9389C953.807 45.9771 953.438 46.0877 953.118 46.2709C952.798 46.4541 952.533 46.7065 952.323 47.0281C952.117 47.3434 951.97 47.7249 951.879 48.1724C951.794 48.6138 951.777 49.1118 951.827 49.6663C951.929 50.781 952.249 51.639 952.789 52.2402C953.334 52.8352 954.034 53.0938 954.888 53.016ZM964.673 41.5466L964.934 44.4154L961.59 44.7201L961.329 41.8513L964.673 41.5466ZM967.296 45.347L971.2 44.9912C972.926 44.8339 974.307 45.1245 975.345 45.863C976.387 46.5953 976.974 47.6487 977.105 49.0232C977.18 49.9177 977.031 50.7243 976.657 51.443C976.283 52.1561 975.703 52.7395 974.917 53.1934C974.136 53.6411 973.172 53.9173 972.023 54.022L965.861 54.5835L964.673 41.5466L968.119 41.2326L969.048 51.4261L971.764 51.1786C972.369 51.1235 972.853 50.9253 973.216 50.5842C973.579 50.2431 973.738 49.8348 973.695 49.3595C973.649 48.8559 973.416 48.4635 972.997 48.1822C972.577 47.8953 972.065 47.7794 971.459 47.8345L967.555 48.1903L967.296 45.347ZM987.551 52.607L986.621 42.4049L984.177 42.6277C983.515 42.688 983.025 42.8867 982.708 43.2237C982.391 43.5607 982.254 43.9383 982.298 44.3565C982.331 44.7814 982.527 45.1258 982.888 45.3896C983.254 45.6472 983.765 45.7461 984.421 45.6863L988.105 45.3506L988.328 47.7951L984.644 48.1307C983.529 48.2323 982.549 48.1505 981.703 47.8852C980.858 47.62 980.187 47.2047 979.69 46.6395C979.193 46.0686 978.91 45.3783 978.842 44.5687C978.759 43.7204 978.909 42.9565 979.293 42.2769C979.675 41.5916 980.26 41.0334 981.048 40.6021C981.841 40.1647 982.798 39.8949 983.919 39.7928L989.733 39.2631L990.921 52.2999L987.551 52.607ZM979.267 53.3619L982.273 46.2416L985.727 45.9268L982.73 53.0463L979.267 53.3619ZM993.73 52.0439L992.542 39.007L998.101 38.5005C999.708 38.354 1001.01 38.5438 1002 39.0698C1002.99 39.5959 1003.53 40.4219 1003.63 41.5479C1003.7 42.2552 1003.49 42.8677 1003.01 43.3853C1002.52 43.9029 1001.82 44.2862 1000.9 44.5354C1001.69 44.5208 1002.37 44.6385 1002.95 44.8884C1003.53 45.1321 1003.98 45.4756 1004.31 45.9189C1004.65 46.3618 1004.85 46.8689 1004.9 47.4404C1004.97 48.1817 1004.83 48.8363 1004.48 49.4043C1004.14 49.9717 1003.6 50.4315 1002.87 50.7835C1002.14 51.135 1001.23 51.3602 1000.15 51.4592L993.73 52.0439ZM996.853 49.0294L999.9 48.7517C1000.4 48.7058 1000.79 48.5512 1001.05 48.2877C1001.31 48.0181 1001.43 47.674 1001.39 47.2552C1001.35 46.7912 1001.17 46.4394 1000.86 46.1998C1000.55 45.9596 1000.14 45.8625 999.641 45.9084L996.594 46.186L996.853 49.0294ZM996.4 44.0641L998.666 43.8576C999.029 43.8246 999.332 43.7456 999.578 43.6206C999.828 43.4893 1000.01 43.3185 1000.13 43.1081C1000.25 42.8972 1000.3 42.6559 1000.28 42.3843C1000.24 41.9825 1000.05 41.6832 999.708 41.4863C999.365 41.2893 998.914 41.2164 998.353 41.2674L996.164 41.4669L996.4 44.0641ZM1006.74 50.8587L1006.46 47.9914L1006.89 47.952C1007.2 47.9241 1007.45 47.8266 1007.66 47.6594C1007.87 47.486 1008.04 47.2228 1008.15 46.8699C1008.27 46.517 1008.34 46.0566 1008.38 45.4887C1008.41 44.9151 1008.41 44.214 1008.36 43.3853L1008.04 37.5944L1017.96 36.691L1019.15 49.7279L1015.7 50.0419L1014.77 39.8484L1011.55 40.1415L1011.71 44.1407C1011.76 45.2374 1011.71 46.1888 1011.57 46.995C1011.43 47.8005 1011.2 48.4722 1010.87 49.0098C1010.55 49.5417 1010.13 49.9505 1009.62 50.2361C1009.12 50.5217 1008.52 50.6963 1007.82 50.7597L1006.74 50.8587ZM1027.91 49.1857C1026.57 49.3079 1025.39 49.1415 1024.38 48.6865C1023.36 48.2253 1022.55 47.5176 1021.94 46.5635C1021.33 45.6038 1020.96 44.4364 1020.83 43.0614C1020.71 41.7204 1020.86 40.5197 1021.29 39.4594C1021.72 38.3992 1022.38 37.543 1023.28 36.8911C1024.17 36.2386 1025.26 35.8541 1026.54 35.7376C1027.4 35.6592 1028.22 35.7249 1028.98 35.9346C1029.75 36.1382 1030.44 36.4891 1031.05 36.9874C1031.66 37.4852 1032.16 38.1359 1032.54 38.9393C1032.93 39.7371 1033.17 40.6905 1033.27 41.7995L1033.36 42.7925L1022.36 43.7957L1022.15 41.555L1029.76 40.862C1029.71 40.3414 1029.55 39.8906 1029.29 39.5094C1029.03 39.1283 1028.69 38.8429 1028.26 38.6532C1027.85 38.4573 1027.37 38.3833 1026.85 38.4312C1026.3 38.4813 1025.82 38.6529 1025.42 38.9462C1025.03 39.2333 1024.73 39.5999 1024.53 40.0459C1024.33 40.4863 1024.25 40.9642 1024.29 41.4797L1024.49 43.61C1024.55 44.2551 1024.72 44.8016 1025 45.2496C1025.28 45.6971 1025.66 46.028 1026.12 46.2424C1026.59 46.4568 1027.12 46.5364 1027.73 46.4813C1028.13 46.4447 1028.49 46.3546 1028.81 46.211C1029.14 46.0674 1029.41 45.8716 1029.63 45.6236C1029.84 45.3756 1030 45.0819 1030.09 44.7423L1033.46 44.6583C1033.36 45.4772 1033.08 46.2106 1032.61 46.8583C1032.14 47.4999 1031.51 48.0252 1030.71 48.4344C1029.92 48.8373 1028.99 49.0878 1027.91 49.1857ZM1044.58 39.3827L1044.84 42.226L1038.03 42.8463L1037.77 40.003L1044.58 39.3827ZM1038.5 34.8192L1039.69 47.856L1036.23 48.1708L1035.05 35.1339L1038.5 34.8192ZM1046.38 34.1006L1047.57 47.1375L1044.14 47.45L1042.96 34.4131L1046.38 34.1006ZM1053.4 41.7971L1057.34 33.1025L1060.9 32.7777L1062.09 45.8146L1058.64 46.1286L1057.89 37.8363L1053.97 46.5548L1050.38 46.8819L1049.19 33.845L1052.64 33.5302L1053.4 41.7971ZM1070.95 45.2637C1069.61 45.3859 1068.43 45.2195 1067.42 44.7645C1066.4 44.3032 1065.59 43.5956 1064.98 42.6415C1064.37 41.6817 1064 40.5144 1063.87 39.1394C1063.75 37.7984 1063.91 36.5977 1064.33 35.5374C1064.76 34.4771 1065.42 33.621 1066.32 32.9691C1067.22 32.3166 1068.3 31.9321 1069.58 31.8156C1070.44 31.7372 1071.26 31.8029 1072.02 32.0126C1072.79 32.2161 1073.48 32.5671 1074.09 33.0654C1074.7 33.5632 1075.2 34.2138 1075.58 35.0173C1075.97 35.815 1076.21 36.7684 1076.31 37.8775L1076.4 38.8705L1065.4 39.8736L1065.19 37.6329L1072.8 36.9399C1072.75 36.4194 1072.59 35.9685 1072.33 35.5874C1072.07 35.2063 1071.73 34.9209 1071.3 34.7311C1070.89 34.5352 1070.41 34.4613 1069.89 34.5092C1069.34 34.5592 1068.86 34.7309 1068.46 35.0242C1068.07 35.3113 1067.77 35.6779 1067.57 36.1239C1067.37 36.5643 1067.29 37.0422 1067.33 37.5576L1067.53 39.688C1067.59 40.3331 1067.76 40.8796 1068.04 41.3276C1068.32 41.775 1068.7 42.106 1069.16 42.3204C1069.63 42.5348 1070.16 42.6144 1070.77 42.5592C1071.17 42.5226 1071.53 42.4325 1071.86 42.2889C1072.18 42.1454 1072.45 41.9496 1072.67 41.7016C1072.88 41.4536 1073.04 41.1598 1073.13 40.8203L1076.5 40.7362C1076.4 41.5552 1076.12 42.2886 1075.65 42.9363C1075.18 43.5779 1074.55 44.1032 1073.75 44.5123C1072.96 44.9153 1072.03 45.1657 1070.95 45.2637ZM1083.8 40.1137L1087.3 39.7943C1087.36 40.2228 1087.58 40.5448 1087.97 40.7602C1088.36 40.9757 1088.85 41.0568 1089.43 41.0037C1090.02 40.9501 1090.51 40.7692 1090.88 40.461C1091.26 40.1471 1091.42 39.7327 1091.38 39.2178C1091.35 38.9009 1091.24 38.6337 1091.06 38.4162C1090.88 38.193 1090.65 38.0263 1090.35 37.9163C1090.06 37.8063 1089.72 37.7683 1089.35 37.8023L1087.47 37.9733L1087.26 35.6052L1089.13 35.4343C1089.69 35.3833 1090.11 35.2139 1090.39 34.9263C1090.67 34.6382 1090.79 34.2989 1090.76 33.9085C1090.72 33.4671 1090.52 33.1279 1090.18 32.8909C1089.85 32.6476 1089.41 32.5502 1088.88 32.5987C1088.34 32.6477 1087.91 32.8101 1087.57 33.0859C1087.25 33.3555 1087.09 33.6832 1087.12 34.069L1083.63 34.3869C1083.57 33.605 1083.74 32.9074 1084.15 32.2941C1084.56 31.6804 1085.14 31.1823 1085.89 30.7999C1086.65 30.4171 1087.52 30.1813 1088.49 30.0926C1089.55 29.9956 1090.49 30.0621 1091.28 30.2918C1092.08 30.5154 1092.72 30.8828 1093.18 31.3941C1093.65 31.9048 1093.92 32.5392 1093.99 33.2975C1094.05 33.9878 1093.88 34.5856 1093.47 35.0908C1093.05 35.596 1092.45 35.9848 1091.65 36.2571L1091.67 36.3929C1092.21 36.3779 1092.71 36.4778 1093.17 36.6927C1093.63 36.9076 1094 37.2268 1094.31 37.65C1094.61 38.0677 1094.78 38.5792 1094.84 39.1847C1094.91 39.9938 1094.74 40.7086 1094.32 41.3291C1093.9 41.949 1093.29 42.4525 1092.49 42.8395C1091.69 43.2204 1090.75 43.4595 1089.68 43.5569C1088.64 43.6518 1087.7 43.587 1086.84 43.3623C1085.99 43.1316 1085.3 42.7441 1084.76 42.2C1084.22 41.6553 1083.9 40.9599 1083.8 40.1137ZM1101.13 42.5057C1100.29 42.5815 1099.54 42.5047 1098.86 42.2755C1098.19 42.0405 1097.63 41.6546 1097.2 41.1176C1096.77 40.5745 1096.52 39.8729 1096.44 39.0128C1096.38 38.2886 1096.46 37.6682 1096.68 37.1517C1096.9 36.6351 1097.22 36.2061 1097.65 35.8644C1098.09 35.5227 1098.59 35.249 1099.15 35.0431C1099.73 34.8367 1100.34 34.673 1100.97 34.552C1101.73 34.4036 1102.33 34.2744 1102.79 34.1642C1103.25 34.0484 1103.57 33.9102 1103.77 33.7497C1103.97 33.5891 1104.05 33.3702 1104.03 33.093L1104.02 33.042C1103.97 32.5045 1103.76 32.1041 1103.4 31.8408C1103.04 31.577 1102.55 31.4731 1101.93 31.5293C1101.28 31.5886 1100.78 31.7801 1100.42 32.1038C1100.06 32.4217 1099.84 32.8014 1099.75 33.2428L1096.38 33.2759C1096.48 32.4683 1096.75 31.7532 1097.2 31.1307C1097.64 30.5025 1098.24 29.9969 1099 29.6141C1099.76 29.225 1100.67 28.983 1101.71 28.8882C1102.43 28.8222 1103.13 28.8439 1103.81 28.9533C1104.49 29.0622 1105.11 29.2714 1105.66 29.581C1106.21 29.89 1106.66 30.311 1107.01 30.8438C1107.36 31.371 1107.57 32.0222 1107.64 32.7974L1108.45 41.5905L1105.02 41.903L1104.85 40.0952L1104.75 40.1044C1104.58 40.5309 1104.33 40.9157 1104.01 41.2589C1103.69 41.5964 1103.29 41.8753 1102.81 42.0956C1102.33 42.3102 1101.77 42.4469 1101.13 42.5057ZM1101.93 39.916C1102.47 39.8675 1102.93 39.72 1103.31 39.4736C1103.7 39.2214 1104 38.9037 1104.19 38.5204C1104.39 38.1372 1104.47 37.7164 1104.43 37.258L1104.3 35.8746C1104.2 35.9584 1104.05 36.0405 1103.86 36.1208C1103.67 36.1949 1103.46 36.2685 1103.22 36.3416C1102.98 36.4091 1102.74 36.4737 1102.5 36.5354C1102.26 36.5916 1102.04 36.6428 1101.85 36.6891C1101.43 36.79 1101.07 36.9228 1100.76 37.0875C1100.46 37.2522 1100.23 37.4585 1100.07 37.7065C1099.92 37.9488 1099.86 38.2397 1099.89 38.5792C1099.93 39.0715 1100.14 39.4315 1100.52 39.6593C1100.91 39.881 1101.38 39.9665 1101.93 39.916ZM1111.25 41.3349L1110.06 28.298L1115.62 27.7914C1117.23 27.645 1118.53 27.8348 1119.52 28.3608C1120.51 28.8869 1121.05 29.7129 1121.15 30.8389C1121.22 31.5462 1121.01 32.1586 1120.53 32.6762C1120.04 33.1938 1119.34 33.5772 1118.42 33.8264C1119.21 33.8118 1119.89 33.9295 1120.47 34.1793C1121.05 34.4231 1121.5 34.7666 1121.84 35.2099C1122.17 35.6528 1122.37 36.1599 1122.42 36.7314C1122.49 37.4727 1122.35 38.1273 1122 38.6953C1121.66 39.2627 1121.12 39.7225 1120.39 40.0745C1119.66 40.426 1118.75 40.6512 1117.67 40.7502L1111.25 41.3349ZM1114.37 38.3203L1117.42 38.0427C1117.92 37.9968 1118.31 37.8421 1118.57 37.5787C1118.83 37.3091 1118.95 36.9649 1118.91 36.5462C1118.87 36.0822 1118.69 35.7304 1118.38 35.4908C1118.07 35.2506 1117.67 35.1535 1117.16 35.1994L1114.11 35.477L1114.37 38.3203ZM1113.92 33.3551L1116.19 33.1486C1116.55 33.1156 1116.85 33.0366 1117.1 32.9115C1117.35 32.7803 1117.53 32.6095 1117.65 32.3991C1117.77 32.1881 1117.82 31.9469 1117.8 31.6753C1117.76 31.2735 1117.57 30.9742 1117.23 30.7772C1116.89 30.5803 1116.43 30.5073 1115.87 30.5584L1113.68 30.7579L1113.92 33.3551ZM1130.99 39.7933C1129.65 39.9155 1128.47 39.7491 1127.45 39.294C1126.44 38.8328 1125.63 38.1252 1125.01 37.1711C1124.4 36.2113 1124.03 35.0439 1123.91 33.669C1123.78 32.3279 1123.94 31.1273 1124.37 30.067C1124.79 29.0067 1125.46 28.1506 1126.35 27.4986C1127.25 26.8462 1128.34 26.4617 1129.62 26.3452C1130.48 26.2668 1131.29 26.3325 1132.06 26.5422C1132.83 26.7457 1133.52 27.0966 1134.12 27.595C1134.73 28.0928 1135.23 28.7434 1135.62 29.5468C1136 30.3446 1136.25 31.298 1136.35 32.407L1136.44 33.4001L1125.43 34.4032L1125.22 32.1625L1132.83 31.4695C1132.78 30.9489 1132.63 30.4981 1132.36 30.117C1132.1 29.7359 1131.76 29.4504 1131.34 29.2607C1130.92 29.0648 1130.45 28.9908 1129.92 29.0388C1129.37 29.0888 1128.9 29.2605 1128.5 29.5538C1128.1 29.8409 1127.8 30.2075 1127.6 30.6535C1127.4 31.0939 1127.32 31.5718 1127.37 32.0872L1127.56 34.2176C1127.62 34.8626 1127.79 35.4091 1128.07 35.8571C1128.35 36.3046 1128.73 36.6356 1129.19 36.85C1129.66 37.0644 1130.19 37.144 1130.8 37.0888C1131.2 37.0522 1131.56 36.9621 1131.89 36.8185C1132.21 36.6749 1132.48 36.4791 1132.7 36.2312C1132.92 35.9832 1133.07 35.6894 1133.17 35.3499L1136.53 35.2658C1136.43 36.0848 1136.15 36.8181 1135.68 37.4659C1135.21 38.1074 1134.58 38.6328 1133.78 39.0419C1132.99 39.4449 1132.06 39.6953 1130.99 39.7933ZM1139.75 43.6672L1138.12 25.7415L1141.68 25.4166L1141.88 27.6064L1142.04 27.5917C1142.17 27.2265 1142.37 26.8491 1142.63 26.4597C1142.91 26.064 1143.27 25.7224 1143.74 25.4347C1144.21 25.1409 1144.81 24.9607 1145.54 24.8942C1146.49 24.8076 1147.39 24.9766 1148.24 25.4014C1149.09 25.8204 1149.8 26.506 1150.37 27.458C1150.94 28.4044 1151.29 29.6245 1151.43 31.1183C1151.56 32.5725 1151.44 33.8218 1151.06 34.8661C1150.69 35.9043 1150.12 36.7174 1149.36 37.3055C1148.61 37.8875 1147.74 38.2236 1146.75 38.3138C1146.05 38.3778 1145.44 38.3162 1144.93 38.129C1144.42 37.9414 1144 37.6863 1143.65 37.3639C1143.31 37.0357 1143.04 36.6981 1142.84 36.3509L1142.73 36.361L1143.37 43.3377L1139.75 43.6672ZM1142.25 31.9374C1142.32 32.7126 1142.49 33.379 1142.76 33.9365C1143.03 34.4941 1143.38 34.9156 1143.82 35.201C1144.25 35.4807 1144.76 35.5941 1145.34 35.5409C1145.93 35.4873 1146.42 35.2807 1146.79 34.921C1147.17 34.5557 1147.44 34.075 1147.6 33.4787C1147.76 32.8763 1147.8 32.196 1147.73 31.4378C1147.67 30.6852 1147.5 30.0327 1147.24 29.4803C1146.98 28.9279 1146.63 28.509 1146.19 28.2236C1145.76 27.9382 1145.24 27.8225 1144.65 27.8767C1144.06 27.9303 1143.57 28.1313 1143.19 28.4796C1142.82 28.8274 1142.55 29.2969 1142.39 29.888C1142.23 30.4791 1142.18 31.1622 1142.25 31.9374ZM1153.24 24.3632L1156.7 24.0485L1157.62 34.2166L1161.3 33.8817L1160.37 23.7136L1163.83 23.3988L1164.75 33.5669L1168.43 33.232L1167.5 23.0639L1170.96 22.7491L1172.14 35.786L1154.43 37.4001L1153.24 24.3632ZM1180.91 35.2438C1179.57 35.366 1178.39 35.1996 1177.38 34.7446C1176.36 34.2833 1175.55 33.5757 1174.94 32.6216C1174.33 31.6618 1173.96 30.4945 1173.83 29.1195C1173.71 27.7785 1173.86 26.5778 1174.29 25.5175C1174.72 24.4572 1175.38 23.6011 1176.27 22.9492C1177.17 22.2967 1178.26 21.9122 1179.54 21.7957C1180.4 21.7173 1181.21 21.783 1181.98 21.9927C1182.75 22.1962 1183.44 22.5472 1184.05 23.0455C1184.66 23.5433 1185.15 24.1939 1185.54 24.9974C1185.93 25.7951 1186.17 26.7485 1186.27 27.8576L1186.36 28.8506L1175.35 29.8537L1175.15 27.613L1182.76 26.92C1182.71 26.3995 1182.55 25.9486 1182.29 25.5675C1182.03 25.1864 1181.68 24.901 1181.26 24.7112C1180.84 24.5153 1180.37 24.4414 1179.85 24.4893C1179.3 24.5393 1178.82 24.711 1178.42 25.0043C1178.03 25.2914 1177.73 25.658 1177.53 26.104C1177.33 26.5444 1177.25 27.0223 1177.29 27.5377L1177.49 29.6681C1177.54 30.3132 1177.71 30.8597 1177.99 31.3077C1178.28 31.7551 1178.66 32.0861 1179.12 32.3005C1179.59 32.5149 1180.12 32.5945 1180.73 32.5393C1181.13 32.5027 1181.49 32.4126 1181.81 32.2691C1182.14 32.1255 1182.41 31.9297 1182.62 31.6817C1182.84 31.4337 1183 31.1399 1183.09 30.8004L1186.46 30.7163C1186.36 31.5353 1186.08 32.2687 1185.6 32.9164C1185.14 33.558 1184.51 34.0833 1183.71 34.4924C1182.92 34.8954 1181.99 35.1458 1180.91 35.2438ZM1197.58 25.4408L1197.84 28.2841L1191.03 28.9044L1190.77 26.0611L1197.58 25.4408ZM1191.5 20.8772L1192.69 33.9141L1189.23 34.2289L1188.04 21.192L1191.5 20.8772ZM1199.38 20.1587L1200.57 33.1956L1197.14 33.5081L1195.95 20.4712L1199.38 20.1587ZM1209.29 32.6579C1207.97 32.778 1206.81 32.6018 1205.79 32.1293C1204.79 31.6506 1203.98 30.9314 1203.36 29.9716C1202.75 29.0062 1202.38 27.8558 1202.26 26.5204C1202.14 25.1737 1202.29 23.9731 1202.72 22.9184C1203.15 21.8582 1203.82 21.0044 1204.72 20.357C1205.63 19.7035 1206.75 19.3167 1208.06 19.1966C1209.38 19.0765 1210.55 19.2557 1211.55 19.7344C1212.57 20.207 1213.38 20.9259 1213.99 21.8913C1214.6 22.8511 1214.97 24.0043 1215.09 25.351C1215.22 26.6864 1215.06 27.8842 1214.63 28.9445C1214.21 29.9991 1213.54 30.8532 1212.63 31.5067C1211.72 32.154 1210.61 32.5377 1209.29 32.6579ZM1209.05 29.8554C1209.65 29.8008 1210.14 29.5854 1210.51 29.2093C1210.88 28.8275 1211.14 28.3303 1211.29 27.7176C1211.44 27.1044 1211.49 26.4187 1211.42 25.6604C1211.35 24.9022 1211.18 24.2356 1210.92 23.6605C1210.66 23.085 1210.31 22.6429 1209.88 22.3343C1209.45 22.0258 1208.93 21.8988 1208.33 21.9535C1207.73 22.0087 1207.23 22.2277 1206.85 22.6105C1206.48 22.9927 1206.21 23.4905 1206.05 24.1037C1205.91 24.7164 1205.87 25.4018 1205.93 26.1601C1206 26.9183 1206.17 27.5852 1206.42 28.1608C1206.69 28.7358 1207.04 29.1773 1207.48 29.4854C1207.92 29.7872 1208.45 29.9106 1209.05 29.8554Z" fill="white"/>
<path d="M935.87 101.844C934.552 101.72 933.439 101.333 932.53 100.682C931.628 100.026 930.963 99.1701 930.538 98.1141C930.113 97.0525 929.964 95.8542 930.089 94.5192C930.216 93.1729 930.588 92.0208 931.203 91.063C931.819 90.0995 932.631 89.3829 933.64 88.913C934.655 88.438 935.821 88.2627 937.139 88.3869C938.457 88.5112 939.568 88.9013 940.47 89.5571C941.379 90.2078 942.046 91.064 942.471 92.1256C942.897 93.1816 943.046 94.3827 942.919 95.729C942.793 97.064 942.422 98.2132 941.806 99.1767C941.191 100.135 940.376 100.851 939.361 101.326C938.352 101.796 937.188 101.969 935.87 101.844ZM936.151 99.0458C936.751 99.1024 937.268 98.9799 937.701 98.6783C938.135 98.3711 938.482 97.9302 938.742 97.3554C939.007 96.7812 939.176 96.1151 939.247 95.3571C939.319 94.5991 939.278 93.9132 939.125 93.2996C938.977 92.6864 938.719 92.1883 938.349 91.8054C937.98 91.4225 937.496 91.2027 936.896 91.1462C936.291 91.0891 935.766 91.2136 935.32 91.5198C934.88 91.8264 934.528 92.2669 934.263 92.8411C934.003 93.4158 933.837 94.0822 933.766 94.8402C933.694 95.5982 933.732 96.2838 933.88 96.8969C934.033 97.5106 934.297 98.0092 934.672 98.3927C935.053 98.771 935.546 98.9887 936.151 99.0458ZM957.175 85.6194L958.056 88.0823C957.659 88.3531 957.231 88.5409 956.77 88.6459C956.31 88.7451 955.766 88.7881 955.14 88.7746C954.519 88.7617 953.764 88.7219 952.874 88.6551C951.866 88.5715 951.031 88.6554 950.368 88.9067C949.705 89.1581 949.178 89.6021 948.787 90.2386C948.396 90.8695 948.1 91.7147 947.897 92.7743L948.025 92.7863C948.49 92.0255 949.097 91.4606 949.845 91.0917C950.599 90.7234 951.499 90.5885 952.546 90.6872C953.654 90.7918 954.601 91.1265 955.387 91.6914C956.178 92.2568 956.763 93.0168 957.141 93.9712C957.519 94.9257 957.648 96.0393 957.528 97.3121C957.403 98.6358 957.034 99.7624 956.422 100.692C955.815 101.616 955.011 102.302 954.01 102.75C953.01 103.192 951.854 103.351 950.541 103.228C949.223 103.103 948.112 102.719 947.209 102.075C946.311 101.431 945.652 100.544 945.234 99.4143C944.821 98.2853 944.689 96.9317 944.838 95.3535L944.938 94.2844C945.234 91.1449 946.065 88.8748 947.43 87.474C948.795 86.0732 950.663 85.4733 953.035 85.6741C953.681 85.7236 954.264 85.7758 954.784 85.8305C955.304 85.8852 955.762 85.9027 956.157 85.883C956.559 85.8637 956.898 85.7759 957.175 85.6194ZM950.822 100.429C951.377 100.482 951.865 100.382 952.288 100.131C952.717 99.8803 953.065 99.4965 953.33 98.9793C953.601 98.4628 953.772 97.8311 953.843 97.0844C953.913 96.3434 953.862 95.7051 953.689 95.1695C953.524 94.6288 953.253 94.2038 952.877 93.8944C952.501 93.585 952.033 93.4039 951.473 93.3511C951.054 93.3116 950.671 93.3525 950.322 93.4738C949.974 93.595 949.667 93.7944 949.401 94.0718C949.142 94.3441 948.926 94.6918 948.755 95.1151C948.59 95.5333 948.482 96.0196 948.429 96.5739C948.324 97.6883 948.482 98.5906 948.902 99.2808C949.328 99.9659 949.968 100.349 950.822 100.429ZM962.549 90.9543L962.279 93.8222L958.935 93.507L959.206 90.639L962.549 90.9543ZM964.428 95.1721L968.332 95.5401C970.057 95.7028 971.361 96.2425 972.245 97.159C973.135 98.0705 973.518 99.2138 973.394 100.589C973.304 101.482 973.009 102.248 972.51 102.885C972.011 103.517 971.333 103.984 970.477 104.286C969.628 104.582 968.628 104.677 967.48 104.568L961.32 103.987L962.549 90.9543L965.994 91.2791L965.033 101.47L967.748 101.726C968.353 101.783 968.866 101.677 969.285 101.408C969.704 101.14 969.936 100.768 969.981 100.293C970.028 99.7892 969.872 99.3607 969.511 99.0071C969.151 98.6479 968.669 98.4397 968.063 98.3826L964.16 98.0146L964.428 95.1721ZM983.004 106.032L983.965 95.8331L981.522 95.6026C980.86 95.5402 980.342 95.6455 979.968 95.9184C979.594 96.1913 979.39 96.5373 979.357 96.9565C979.311 97.3802 979.441 97.7549 979.747 98.0805C980.059 98.401 980.544 98.5922 981.2 98.6541L984.882 99.0013L984.652 101.445L980.969 101.098C979.855 100.993 978.906 100.732 978.124 100.316C977.341 99.8996 976.758 99.368 976.374 98.7212C975.99 98.0686 975.839 97.3382 975.921 96.5298C975.996 95.6808 976.284 94.9574 976.785 94.3598C977.287 93.7566 977.965 93.3154 978.819 93.0364C979.679 92.7523 980.669 92.663 981.789 92.7686L987.601 93.3167L986.372 106.35L983.004 106.032ZM974.722 105.251L978.985 98.8048L982.439 99.1305L978.184 105.578L974.722 105.251ZM989.181 106.615L990.41 93.5816L995.968 94.1056C997.574 94.2571 998.815 94.6824 999.691 95.3813C1000.57 96.0802 1000.95 96.9926 1000.85 98.1182C1000.78 98.8253 1000.46 99.3888 999.89 99.8087C999.319 100.229 998.56 100.477 997.611 100.553C998.386 100.683 999.034 100.924 999.555 101.275C1000.08 101.622 1000.47 102.043 1000.71 102.54C1000.96 103.037 1001.06 103.571 1001 104.143C1000.93 104.884 1000.68 105.502 1000.23 105.996C999.79 106.491 999.178 106.844 998.393 107.055C997.614 107.267 996.682 107.322 995.595 107.22L989.181 106.615ZM992.805 104.226L995.851 104.513C996.354 104.56 996.759 104.479 997.064 104.268C997.375 104.052 997.551 103.734 997.59 103.316C997.634 102.852 997.524 102.473 997.261 102.18C997.003 101.888 996.622 101.718 996.119 101.67L993.073 101.383L992.805 104.226ZM993.273 99.2618L995.538 99.4754C995.9 99.5096 996.213 99.4877 996.477 99.4099C996.748 99.327 996.96 99.1929 997.115 99.0077C997.275 98.8231 997.368 98.595 997.393 98.3235C997.431 97.9218 997.299 97.5927 996.998 97.336C996.697 97.0793 996.267 96.9246 995.707 96.8718L993.518 96.6653L993.273 99.2618ZM1002.18 107.841L1002.44 104.971L1002.87 105.012C1003.18 105.041 1003.45 104.992 1003.68 104.866C1003.92 104.735 1004.13 104.506 1004.31 104.181C1004.49 103.855 1004.65 103.416 1004.79 102.864C1004.92 102.307 1005.05 101.616 1005.15 100.793L1005.91 95.043L1015.82 95.9776L1014.59 109.011L1011.14 108.686L1012.11 98.4952L1008.89 98.192L1008.31 102.152C1008.16 103.239 1007.94 104.166 1007.65 104.932C1007.36 105.698 1007.01 106.316 1006.59 106.784C1006.17 107.246 1005.69 107.572 1005.14 107.76C1004.59 107.948 1003.97 108.009 1003.27 107.943L1002.18 107.841ZM1023.31 110.09C1021.97 109.963 1020.84 109.583 1019.92 108.949C1019.01 108.309 1018.34 107.464 1017.92 106.414C1017.49 105.358 1017.34 104.143 1017.47 102.768C1017.6 101.428 1017.97 100.275 1018.59 99.312C1019.2 98.3485 1020.01 97.6285 1021.01 97.1519C1022.01 96.6758 1023.15 96.4981 1024.43 96.6186C1025.29 96.6997 1026.08 96.9138 1026.79 97.2608C1027.52 97.6028 1028.13 98.0742 1028.63 98.6752C1029.14 99.2767 1029.51 100.008 1029.74 100.869C1029.97 101.724 1030.04 102.706 1029.93 103.815L1029.84 104.807L1018.84 103.77L1019.05 101.53L1026.65 102.247C1026.7 101.726 1026.63 101.254 1026.44 100.831C1026.25 100.408 1025.97 100.065 1025.59 99.8008C1025.21 99.5315 1024.76 99.3721 1024.24 99.3225C1023.69 99.2707 1023.19 99.3521 1022.74 99.5667C1022.3 99.7761 1021.94 100.082 1021.66 100.484C1021.38 100.88 1021.22 101.335 1021.17 101.849L1020.96 103.979C1020.9 104.624 1020.97 105.192 1021.16 105.684C1021.36 106.177 1021.67 106.571 1022.09 106.867C1022.5 107.163 1023.02 107.34 1023.62 107.397C1024.02 107.435 1024.4 107.413 1024.74 107.331C1025.08 107.25 1025.39 107.107 1025.65 106.903C1025.9 106.699 1026.11 106.439 1026.27 106.123L1029.59 106.658C1029.34 107.446 1028.93 108.114 1028.35 108.664C1027.77 109.209 1027.05 109.61 1026.2 109.865C1025.34 110.116 1024.38 110.191 1023.31 110.09ZM1041.49 103.518L1041.22 106.36L1034.42 105.719L1034.69 102.876L1041.49 103.518ZM1036.35 97.9141L1035.13 110.947L1031.67 110.622L1032.9 97.5885L1036.35 97.9141ZM1044.24 98.6575L1043.01 111.691L1039.58 111.367L1040.81 98.3342L1044.24 98.6575ZM1049.72 107.512L1055.19 99.6901L1058.75 100.026L1057.52 113.059L1054.08 112.734L1054.86 104.444L1049.4 112.293L1045.81 111.955L1047.04 98.9219L1050.49 99.2476L1049.72 107.512ZM1066.33 114.147C1064.99 114.021 1063.87 113.64 1062.95 113.006C1062.04 112.367 1061.37 111.522 1060.95 110.472C1060.52 109.416 1060.37 108.2 1060.5 106.826C1060.63 105.485 1061 104.333 1061.62 103.37C1062.23 102.406 1063.04 101.686 1064.04 101.209C1065.04 100.733 1066.18 100.556 1067.46 100.676C1068.32 100.757 1069.11 100.971 1069.82 101.318C1070.54 101.66 1071.15 102.132 1071.66 102.733C1072.17 103.334 1072.54 104.065 1072.77 104.926C1073 105.782 1073.07 106.764 1072.96 107.872L1072.87 108.865L1061.86 107.827L1062.07 105.587L1069.68 106.304C1069.73 105.784 1069.66 105.312 1069.47 104.889C1069.28 104.466 1069 104.122 1068.61 103.858C1068.24 103.589 1067.79 103.43 1067.26 103.38C1066.72 103.328 1066.22 103.41 1065.77 103.624C1065.33 103.834 1064.97 104.139 1064.69 104.541C1064.41 104.937 1064.25 105.393 1064.19 105.907L1063.99 108.037C1063.93 108.681 1064 109.25 1064.19 109.742C1064.39 110.234 1064.7 110.628 1065.12 110.925C1065.53 111.221 1066.04 111.397 1066.65 111.454C1067.05 111.492 1067.42 111.47 1067.77 111.389C1068.11 111.307 1068.41 111.164 1068.67 110.96C1068.93 110.757 1069.14 110.497 1069.29 110.18L1072.62 110.716C1072.37 111.503 1071.96 112.172 1071.37 112.722C1070.8 113.267 1070.08 113.667 1069.22 113.923C1068.37 114.174 1067.41 114.248 1066.33 114.147ZM1079.91 111.446L1083.41 111.777C1083.39 112.208 1083.55 112.566 1083.89 112.849C1084.24 113.133 1084.7 113.302 1085.28 113.357C1085.87 113.413 1086.38 113.324 1086.81 113.09C1087.23 112.851 1087.47 112.474 1087.52 111.959C1087.55 111.642 1087.5 111.36 1087.36 111.113C1087.23 110.861 1087.02 110.653 1086.75 110.491C1086.48 110.329 1086.16 110.23 1085.79 110.195L1083.91 110.018L1084.14 107.65L1086.01 107.827C1086.57 107.88 1087.01 107.79 1087.34 107.558C1087.67 107.327 1087.85 107.016 1087.89 106.626C1087.93 106.185 1087.8 105.816 1087.51 105.52C1087.23 105.22 1086.82 105.044 1086.29 104.994C1085.75 104.943 1085.29 105.023 1084.91 105.232C1084.54 105.437 1084.33 105.731 1084.28 106.115L1080.79 105.786C1080.88 105.006 1081.18 104.352 1081.69 103.824C1082.21 103.297 1082.87 102.914 1083.68 102.677C1084.5 102.44 1085.39 102.367 1086.36 102.459C1087.43 102.559 1088.33 102.795 1089.07 103.168C1089.82 103.535 1090.37 104.012 1090.73 104.6C1091.1 105.188 1091.25 105.861 1091.17 106.619C1091.11 107.309 1090.83 107.865 1090.33 108.286C1089.84 108.707 1089.17 108.979 1088.34 109.1L1088.33 109.235C1088.86 109.32 1089.33 109.51 1089.74 109.806C1090.16 110.101 1090.47 110.485 1090.69 110.956C1090.91 111.422 1090.99 111.958 1090.93 112.563C1090.85 113.372 1090.55 114.042 1090.02 114.575C1089.5 115.107 1088.81 115.49 1087.95 115.723C1087.09 115.95 1086.13 116.014 1085.06 115.913C1084.02 115.815 1083.1 115.577 1082.3 115.199C1081.51 114.816 1080.9 114.308 1080.47 113.674C1080.04 113.04 1079.86 112.298 1079.91 111.446ZM1096.5 116.983C1095.67 116.905 1094.94 116.691 1094.32 116.341C1093.7 115.985 1093.22 115.504 1092.9 114.897C1092.58 114.285 1092.46 113.549 1092.54 112.689C1092.61 111.965 1092.8 111.369 1093.11 110.902C1093.42 110.435 1093.82 110.073 1094.31 109.817C1094.79 109.56 1095.34 109.383 1095.93 109.285C1096.54 109.188 1097.16 109.139 1097.81 109.137C1098.58 109.129 1099.2 109.113 1099.67 109.089C1100.14 109.06 1100.48 108.984 1100.71 108.862C1100.93 108.74 1101.05 108.541 1101.08 108.264L1101.09 108.213C1101.14 107.676 1101.01 107.244 1100.69 106.918C1100.39 106.592 1099.93 106.4 1099.31 106.342C1098.66 106.281 1098.13 106.376 1097.72 106.628C1097.31 106.875 1097.02 107.207 1096.85 107.625L1093.53 107.039C1093.78 106.263 1094.18 105.61 1094.73 105.08C1095.28 104.544 1095.97 104.158 1096.78 103.921C1097.6 103.679 1098.53 103.607 1099.58 103.705C1100.3 103.773 1100.98 103.923 1101.63 104.155C1102.28 104.388 1102.85 104.707 1103.33 105.112C1103.82 105.517 1104.18 106.014 1104.43 106.602C1104.68 107.185 1104.77 107.864 1104.69 108.639L1103.86 117.429L1100.44 117.106L1100.61 115.299L1100.5 115.289C1100.26 115.677 1099.94 116.009 1099.56 116.287C1099.18 116.56 1098.74 116.76 1098.23 116.889C1097.72 117.013 1097.15 117.044 1096.5 116.983ZM1097.77 114.586C1098.3 114.636 1098.78 114.576 1099.21 114.405C1099.64 114.228 1099.98 113.97 1100.25 113.63C1100.52 113.29 1100.67 112.891 1100.71 112.432L1100.84 111.049C1100.72 111.112 1100.56 111.165 1100.36 111.209C1100.16 111.247 1099.94 111.281 1099.69 111.309C1099.44 111.331 1099.19 111.35 1098.95 111.367C1098.7 111.378 1098.48 111.388 1098.28 111.398C1097.85 111.42 1097.47 111.484 1097.14 111.59C1096.81 111.696 1096.54 111.857 1096.35 112.072C1096.15 112.282 1096.04 112.556 1096 112.896C1095.96 113.388 1096.1 113.781 1096.43 114.075C1096.77 114.363 1097.22 114.534 1097.77 114.586ZM1106.67 117.694L1107.9 104.661L1113.45 105.185C1115.06 105.336 1116.3 105.761 1117.18 106.46C1118.05 107.159 1118.44 108.072 1118.33 109.197C1118.27 109.904 1117.95 110.468 1117.38 110.888C1116.81 111.308 1116.05 111.556 1115.1 111.632C1115.87 111.762 1116.52 112.003 1117.04 112.354C1117.57 112.701 1117.95 113.122 1118.2 113.619C1118.45 114.116 1118.55 114.65 1118.49 115.222C1118.42 115.963 1118.16 116.581 1117.72 117.075C1117.28 117.57 1116.66 117.923 1115.88 118.134C1115.1 118.346 1114.17 118.401 1113.08 118.299L1106.67 117.694ZM1110.29 115.305L1113.34 115.592C1113.84 115.639 1114.25 115.558 1114.55 115.347C1114.86 115.131 1115.04 114.813 1115.08 114.395C1115.12 113.931 1115.01 113.552 1114.75 113.259C1114.49 112.967 1114.11 112.797 1113.61 112.749L1110.56 112.462L1110.29 115.305ZM1110.76 110.341L1113.02 110.554C1113.39 110.589 1113.7 110.567 1113.96 110.489C1114.23 110.406 1114.45 110.272 1114.6 110.087C1114.76 109.902 1114.85 109.674 1114.88 109.402C1114.92 109.001 1114.79 108.672 1114.48 108.415C1114.18 108.158 1113.75 108.004 1113.19 107.951L1111 107.744L1110.76 110.341ZM1126.35 119.807C1125.01 119.68 1123.88 119.3 1122.96 118.665C1122.05 118.026 1121.39 117.181 1120.96 116.131C1120.54 115.075 1120.39 113.86 1120.52 112.485C1120.64 111.144 1121.01 109.992 1121.63 109.029C1122.25 108.065 1123.05 107.345 1124.05 106.869C1125.06 106.393 1126.2 106.215 1127.47 106.336C1128.33 106.417 1129.12 106.631 1129.84 106.978C1130.56 107.32 1131.17 107.791 1131.67 108.392C1132.18 108.994 1132.55 109.725 1132.78 110.586C1133.02 111.441 1133.08 112.423 1132.98 113.532L1132.88 114.524L1121.88 113.487L1122.09 111.247L1129.69 111.963C1129.74 111.443 1129.67 110.971 1129.48 110.548C1129.29 110.125 1129.01 109.782 1128.63 109.518C1128.26 109.248 1127.81 109.089 1127.28 109.039C1126.73 108.988 1126.23 109.069 1125.78 109.284C1125.34 109.493 1124.98 109.799 1124.7 110.201C1124.43 110.597 1124.26 111.052 1124.21 111.566L1124.01 113.696C1123.95 114.341 1124.01 114.909 1124.21 115.401C1124.4 115.894 1124.71 116.288 1125.13 116.584C1125.55 116.88 1126.06 117.057 1126.66 117.114C1127.07 117.152 1127.44 117.13 1127.78 117.048C1128.13 116.967 1128.43 116.824 1128.69 116.62C1128.95 116.416 1129.15 116.156 1129.31 115.84L1132.63 116.375C1132.39 117.163 1131.97 117.831 1131.39 118.381C1130.81 118.926 1130.1 119.327 1129.24 119.582C1128.39 119.833 1127.42 119.908 1126.35 119.807ZM1134.25 125.226L1135.94 107.305L1139.51 107.641L1139.3 109.831L1139.46 109.846C1139.65 109.51 1139.92 109.175 1140.25 108.842C1140.59 108.503 1141.02 108.235 1141.52 108.037C1142.04 107.835 1142.66 107.768 1143.39 107.837C1144.34 107.926 1145.2 108.258 1145.95 108.831C1146.71 109.399 1147.28 110.204 1147.67 111.245C1148.06 112.28 1148.18 113.544 1148.04 115.038C1147.9 116.491 1147.55 117.697 1146.99 118.654C1146.43 119.606 1145.72 120.301 1144.87 120.74C1144.03 121.174 1143.11 121.344 1142.12 121.251C1141.42 121.185 1140.83 121.012 1140.36 120.734C1139.9 120.456 1139.53 120.127 1139.25 119.747C1138.97 119.362 1138.77 118.98 1138.64 118.602L1138.53 118.592L1137.87 125.567L1134.25 125.226ZM1138.87 114.156C1138.79 114.931 1138.84 115.617 1139 116.214C1139.16 116.811 1139.43 117.29 1139.8 117.651C1140.18 118.006 1140.66 118.211 1141.25 118.266C1141.83 118.322 1142.35 118.208 1142.78 117.923C1143.22 117.634 1143.57 117.21 1143.84 116.653C1144.11 116.091 1144.28 115.431 1144.35 114.673C1144.42 113.92 1144.38 113.248 1144.22 112.657C1144.07 112.066 1143.8 111.59 1143.42 111.23C1143.05 110.869 1142.56 110.66 1141.97 110.604C1141.38 110.549 1140.87 110.657 1140.43 110.93C1140 111.203 1139.65 111.616 1139.38 112.167C1139.11 112.718 1138.94 113.381 1138.87 114.156ZM1151.06 108.731L1154.52 109.057L1153.56 119.222L1157.23 119.569L1158.19 109.403L1161.65 109.729L1160.69 119.894L1164.36 120.241L1165.32 110.076L1168.77 110.401L1167.54 123.434L1149.84 121.764L1151.06 108.731ZM1176.26 124.513C1174.92 124.387 1173.79 124.006 1172.88 123.372C1171.97 122.733 1171.3 121.888 1170.87 120.838C1170.45 119.782 1170.3 118.566 1170.43 117.192C1170.56 115.851 1170.93 114.699 1171.54 113.736C1172.16 112.772 1172.96 112.052 1173.96 111.575C1174.97 111.099 1176.11 110.922 1177.39 111.042C1178.25 111.123 1179.03 111.337 1179.75 111.684C1180.47 112.026 1181.08 112.498 1181.58 113.099C1182.09 113.7 1182.46 114.432 1182.7 115.292C1182.93 116.148 1182.99 117.13 1182.89 118.238L1182.79 119.231L1171.79 118.193L1172 115.953L1179.6 116.67C1179.65 116.15 1179.58 115.678 1179.39 115.255C1179.21 114.832 1178.92 114.489 1178.54 114.224C1178.17 113.955 1177.72 113.796 1177.19 113.746C1176.64 113.694 1176.14 113.776 1175.7 113.99C1175.25 114.2 1174.89 114.505 1174.62 114.907C1174.34 115.303 1174.17 115.759 1174.12 116.273L1173.92 118.403C1173.86 119.047 1173.92 119.616 1174.12 120.108C1174.32 120.6 1174.62 120.995 1175.04 121.291C1175.46 121.587 1175.97 121.763 1176.58 121.821C1176.98 121.858 1177.35 121.836 1177.69 121.755C1178.04 121.673 1178.34 121.53 1178.6 121.327C1178.86 121.123 1179.07 120.863 1179.22 120.546L1182.54 121.082C1182.3 121.869 1181.88 122.538 1181.3 123.088C1180.72 123.633 1180.01 124.033 1179.15 124.289C1178.3 124.54 1177.34 124.615 1176.26 124.513ZM1194.45 117.942L1194.18 120.784L1187.37 120.142L1187.64 117.3L1194.45 117.942ZM1189.31 112.338L1188.08 125.371L1184.63 125.045L1185.86 112.012L1189.31 112.338ZM1197.19 113.081L1195.96 126.114L1192.53 125.791L1193.76 112.758L1197.19 113.081ZM1204.63 127.188C1203.31 127.064 1202.2 126.677 1201.29 126.026C1200.39 125.37 1199.72 124.514 1199.3 123.458C1198.87 122.397 1198.72 121.198 1198.85 119.863C1198.98 118.517 1199.35 117.365 1199.96 116.407C1200.58 115.444 1201.39 114.727 1202.4 114.257C1203.42 113.782 1204.58 113.607 1205.9 113.731C1207.22 113.855 1208.33 114.245 1209.23 114.901C1210.14 115.552 1210.81 116.408 1211.23 117.47C1211.66 118.526 1211.81 119.727 1211.68 121.073C1211.55 122.408 1211.18 123.557 1210.57 124.521C1209.95 125.479 1209.14 126.195 1208.12 126.67C1207.11 127.14 1205.95 127.313 1204.63 127.188ZM1204.91 124.39C1205.51 124.447 1206.03 124.324 1206.46 124.022C1206.9 123.715 1207.24 123.274 1207.5 122.7C1207.77 122.125 1207.94 121.459 1208.01 120.701C1208.08 119.943 1208.04 119.257 1207.89 118.644C1207.74 118.031 1207.48 117.533 1207.11 117.15C1206.74 116.767 1206.26 116.547 1205.66 116.49C1205.05 116.433 1204.53 116.558 1204.08 116.864C1203.64 117.171 1203.29 117.611 1203.02 118.185C1202.76 118.76 1202.6 119.426 1202.53 120.184C1202.46 120.942 1202.49 121.628 1202.64 122.241C1202.79 122.855 1203.06 123.353 1203.43 123.737C1203.81 124.115 1204.31 124.333 1204.91 124.39Z" fill="white"/>
<path d="M180.897 30.0267C179.58 29.8945 178.469 29.5003 177.564 28.8441C176.665 28.1828 176.006 27.323 175.587 26.2644C175.169 25.2003 175.026 24.0011 175.16 22.6669C175.295 21.3214 175.673 20.1716 176.295 19.2175C176.916 18.2577 177.733 17.546 178.745 17.0822C179.762 16.6134 180.93 16.4451 182.247 16.5773C183.564 16.7096 184.672 17.1063 185.571 17.7676C186.476 18.4238 187.138 19.2839 187.556 20.3481C187.975 21.4066 188.117 22.6086 187.982 23.9542C187.848 25.2884 187.47 26.4353 186.849 27.3951C186.227 28.3492 185.408 29.0606 184.39 29.5295C183.379 29.9932 182.214 30.159 180.897 30.0267ZM181.195 27.23C181.794 27.2902 182.311 27.1708 182.747 26.8719C183.183 26.5673 183.532 26.1285 183.796 25.5553C184.064 24.9827 184.237 24.3176 184.313 23.5601C184.389 22.8025 184.352 22.1164 184.202 21.5018C184.059 20.8878 183.803 20.3882 183.436 20.003C183.07 19.6179 182.587 19.3952 181.987 19.335C181.382 19.2743 180.856 19.3957 180.409 19.6991C179.967 20.0031 179.612 20.4414 179.343 21.014C179.08 21.5872 178.911 22.2525 178.835 23.0101C178.759 23.7676 178.793 24.4534 178.936 25.0675C179.086 25.6821 179.347 26.1822 179.719 26.568C180.098 26.9486 180.59 27.1693 181.195 27.23ZM202.299 13.9308L203.165 16.399C202.767 16.6674 202.337 16.8526 201.876 16.9548C201.415 17.0513 200.871 17.0909 200.245 17.0737C199.624 17.0571 198.869 17.0127 197.98 16.9405C196.972 16.8508 196.137 16.9296 195.472 17.177C194.808 17.4244 194.278 17.8651 193.883 18.4993C193.489 19.1278 193.187 19.9712 192.978 21.0295L193.105 21.0423C193.576 20.2843 194.186 19.7232 194.936 19.3588C195.692 18.995 196.593 18.8656 197.639 18.9706C198.747 19.0819 199.692 19.4223 200.474 19.9919C201.262 20.5621 201.842 21.3256 202.215 22.2823C202.587 23.2391 202.709 24.3534 202.581 25.6255C202.449 26.9484 202.073 28.0727 201.455 28.9985C200.843 29.9193 200.035 30.6005 199.031 31.0422C198.028 31.4783 196.871 31.6305 195.559 31.4988C194.242 31.3665 193.133 30.9754 192.233 30.3255C191.339 29.6761 190.686 28.7854 190.275 27.6534C189.869 26.5219 189.745 25.1675 189.903 23.5902L190.01 22.5218C190.325 19.3841 191.169 17.119 192.543 15.7265C193.916 14.334 195.788 13.7454 198.159 13.9606C198.805 14.014 199.387 14.0696 199.907 14.1275C200.426 14.1854 200.884 14.2056 201.28 14.1882C201.681 14.1714 202.021 14.0856 202.299 13.9308ZM195.857 28.7021C196.411 28.7577 196.9 28.6612 197.325 28.4126C197.755 28.1646 198.105 27.7828 198.374 27.2673C198.648 26.7524 198.823 26.1218 198.898 25.3755C198.972 24.6349 198.925 23.9963 198.756 23.4597C198.593 22.9181 198.325 22.4914 197.951 22.1797C197.577 21.8681 197.11 21.6841 196.55 21.628C196.132 21.5859 195.748 21.6245 195.399 21.7437C195.05 21.8628 194.742 22.0603 194.475 22.3361C194.213 22.6068 193.996 22.9533 193.822 23.3755C193.654 23.7927 193.543 24.2783 193.487 24.8323C193.375 25.9461 193.527 26.8493 193.943 27.542C194.365 28.2297 195.003 28.6163 195.857 28.7021ZM207.641 19.2981L207.353 22.1644L204.012 21.8289L204.3 18.9626L207.641 19.2981ZM209.495 23.5272L213.395 23.9188C215.12 24.0919 216.421 24.6394 217.299 25.5613C218.184 26.4781 218.56 27.6237 218.427 28.998C218.332 29.8907 218.033 30.6544 217.529 31.2891C217.026 31.9181 216.346 32.3809 215.488 32.6774C214.637 32.9687 213.637 33.0568 212.49 32.9416L206.333 32.3235L207.641 19.2981L211.084 19.6437L210.061 29.8283L212.775 30.1008C213.38 30.1615 213.893 30.0588 214.313 29.7927C214.734 29.5266 214.968 29.1561 215.016 28.6812C215.066 28.178 214.912 27.7486 214.554 27.3928C214.196 27.0314 213.715 26.8204 213.11 26.7596L209.209 26.368L209.495 23.5272ZM228.004 34.4992L229.027 24.3061L226.585 24.0609C225.924 23.9945 225.405 24.0967 225.03 24.3673C224.654 24.638 224.448 24.9828 224.412 25.4017C224.364 25.8251 224.491 26.2006 224.795 26.528C225.106 26.8504 225.589 27.0445 226.245 27.1104L229.925 27.4799L229.68 29.9221L225.999 29.5526C224.886 29.4408 223.939 29.1744 223.159 28.7535C222.379 28.3326 221.799 27.7975 221.418 27.1483C221.039 26.4935 220.892 25.7621 220.979 24.9543C221.059 24.1057 221.351 23.3841 221.856 22.7896C222.362 22.1893 223.042 21.7523 223.898 21.4784C224.759 21.1995 225.75 21.1162 226.869 21.2286L232.678 21.8118L231.37 34.8372L228.004 34.4992ZM219.727 33.6683L224.029 27.2477L227.481 27.5942L223.187 34.0156L219.727 33.6683ZM234.177 35.119L235.485 22.0936L241.04 22.6512C242.645 22.8124 243.884 23.2451 244.755 23.9494C245.627 24.6536 246.006 25.5682 245.893 26.6932C245.822 27.3999 245.5 27.9615 244.927 28.3779C244.354 28.7944 243.593 29.0377 242.644 29.108C243.419 29.2429 244.065 29.4877 244.583 29.8424C245.108 30.192 245.491 30.6158 245.732 31.114C245.979 31.6128 246.074 32.1476 246.016 32.7186C245.942 33.4592 245.68 34.0754 245.231 34.5671C244.788 35.0593 244.173 35.4087 243.387 35.6154C242.607 35.8225 241.674 35.8716 240.588 35.7627L234.177 35.119ZM237.816 32.7519L240.86 33.0575C241.363 33.108 241.768 33.0288 242.074 32.8197C242.387 32.6055 242.565 32.2893 242.607 31.8709C242.653 31.4074 242.546 31.0282 242.284 30.7336C242.028 30.4395 241.648 30.2672 241.145 30.2167L238.101 29.911L237.816 32.7519ZM238.314 27.791L240.578 28.0183C240.94 28.0547 241.253 28.0347 241.517 27.9585C241.788 27.8772 242.002 27.7444 242.157 27.5602C242.318 27.3765 242.412 27.149 242.44 26.8776C242.48 26.4762 242.35 26.1463 242.051 25.8878C241.751 25.6293 241.322 25.4719 240.762 25.4158L238.574 25.1961L238.314 27.791ZM247.173 36.4238L247.444 33.5558L247.876 33.5992C248.182 33.6299 248.452 33.5828 248.687 33.4579C248.929 33.328 249.14 33.1008 249.321 32.7763C249.502 32.4519 249.663 32.0141 249.804 31.4629C249.946 30.9061 250.072 30.2164 250.183 29.3938L250.974 23.6486L260.879 24.6431L259.571 37.6685L256.128 37.3228L257.151 27.1382L253.937 26.8156L253.334 30.7723C253.173 31.8583 252.946 32.7834 252.653 33.5477C252.365 34.3125 252.009 34.9277 251.585 35.3934C251.162 35.8535 250.676 36.1758 250.126 36.3605C249.576 36.5451 248.954 36.6026 248.259 36.5327L247.173 36.4238ZM268.282 38.8C266.942 38.6655 265.816 38.2784 264.904 37.6386C263.998 36.9937 263.335 36.1448 262.915 35.092C262.496 34.0334 262.356 32.8173 262.494 31.4435C262.628 30.1037 263.006 28.9539 263.628 27.9941C264.25 27.0344 265.061 26.3192 266.062 25.8487C267.068 25.3787 268.211 25.2078 269.488 25.3361C270.348 25.4224 271.134 25.6412 271.846 25.9926C272.565 26.3389 273.174 26.814 273.673 27.418C274.178 28.0226 274.544 28.756 274.772 29.6183C275 30.4749 275.058 31.4572 274.947 32.5653L274.847 33.5575L263.849 32.4532L264.073 30.2145L271.671 30.9773C271.724 30.4572 271.657 29.9851 271.471 29.561C271.285 29.1369 271.003 28.7916 270.624 28.5252C270.252 28.2537 269.803 28.0915 269.277 28.0387C268.728 27.9837 268.23 28.0621 267.78 28.2739C267.337 28.4807 266.975 28.7841 266.695 29.1843C266.416 29.5788 266.247 30.033 266.19 30.5469L265.976 32.6754C265.911 33.3199 265.974 33.8887 266.165 34.3817C266.361 34.8754 266.666 35.2715 267.082 35.5702C267.497 35.8689 268.007 36.0486 268.612 36.1093C269.014 36.1496 269.387 36.13 269.732 36.0504C270.077 35.9708 270.379 35.8299 270.639 35.6276C270.899 35.4253 271.108 35.1664 271.265 34.851L274.584 35.4069C274.334 36.1927 273.916 36.8588 273.33 37.4053C272.751 37.9467 272.031 38.3427 271.172 38.5934C270.32 38.839 269.356 38.9079 268.282 38.8ZM286.507 32.3383L286.222 35.1792L279.421 34.4963L279.706 31.6555L286.507 32.3383ZM281.403 26.7036L280.095 39.729L276.644 39.3825L277.951 26.3571L281.403 26.7036ZM289.281 27.4945L287.973 40.52L284.547 40.176L285.855 27.1506L289.281 27.4945ZM294.706 36.3821L300.224 28.5933L303.786 28.9508L302.478 41.9763L299.035 41.6306L299.867 33.3455L294.363 41.1615L290.776 40.8014L292.083 27.7759L295.535 28.1224L294.706 36.3821ZM311.285 43.1174C309.945 42.9829 308.819 42.5957 307.907 41.9559C307.001 41.3111 306.338 40.4622 305.918 39.4093C305.499 38.3508 305.358 37.1346 305.496 35.7609C305.631 34.421 306.009 33.2712 306.631 32.3115C307.252 31.3517 308.064 30.6366 309.065 30.166C310.071 29.6961 311.213 29.5252 312.491 29.6535C313.35 29.7397 314.136 29.9586 314.849 30.3099C315.568 30.6562 316.177 31.1314 316.676 31.7354C317.181 32.3399 317.547 33.0734 317.774 33.9356C318.002 34.7922 318.061 35.7746 317.949 36.8826L317.85 37.8748L306.851 36.7706L307.076 34.5318L314.674 35.2947C314.726 34.7746 314.659 34.3025 314.474 33.8784C314.288 33.4543 314.005 33.109 313.627 32.8426C313.254 32.571 312.805 32.4089 312.279 32.3561C311.731 32.301 311.232 32.3794 310.783 32.5913C310.339 32.798 309.978 33.1015 309.698 33.5016C309.418 33.8962 309.25 34.3504 309.192 34.8642L308.979 36.9928C308.914 37.6372 308.977 38.206 309.167 38.6991C309.363 39.1927 309.669 39.5889 310.084 39.8876C310.5 40.1862 311.01 40.3659 311.615 40.4267C312.016 40.467 312.389 40.4473 312.734 40.3677C313.079 40.2882 313.382 40.1472 313.642 39.9449C313.902 39.7426 314.111 39.4838 314.268 39.1684L317.587 39.7243C317.337 40.5101 316.919 41.1762 316.333 41.7226C315.753 42.264 315.034 42.6601 314.175 42.9107C313.322 43.1563 312.359 43.2252 311.285 43.1174ZM324.873 40.4987L328.376 40.8503C328.35 41.2817 328.508 41.6402 328.85 41.9258C329.193 42.2114 329.655 42.3835 330.237 42.442C330.825 42.501 331.334 42.415 331.762 42.1839C332.192 41.9472 332.432 41.5716 332.484 41.0571C332.515 40.7405 332.464 40.4584 332.329 40.2107C332.194 39.9574 331.993 39.7487 331.723 39.5846C331.454 39.4206 331.133 39.3198 330.76 39.2824L328.886 39.0942L329.124 36.7283L330.998 36.9164C331.557 36.9726 332 36.8857 332.326 36.6557C332.657 36.4263 332.843 36.1166 332.882 35.7265C332.926 35.2855 332.803 34.9163 332.513 34.6188C332.23 34.3162 331.822 34.1383 331.291 34.0849C330.754 34.031 330.295 34.1077 329.914 34.315C329.54 34.5173 329.328 34.8101 329.278 35.1934L325.792 34.8434C325.882 34.0644 326.185 33.4124 326.7 32.8874C327.221 32.3629 327.887 31.9844 328.698 31.7518C329.515 31.5197 330.41 31.4525 331.382 31.5501C332.445 31.6568 333.346 31.8986 334.085 32.2754C334.83 32.6472 335.381 33.1279 335.739 33.7178C336.102 34.3081 336.246 34.9821 336.17 35.7397C336.1 36.4294 335.816 36.9833 335.318 37.4015C334.819 37.8197 334.152 38.0868 333.318 38.203L333.305 38.3386C333.838 38.4265 334.31 38.6194 334.72 38.9176C335.13 39.2157 335.442 39.6011 335.657 40.0738C335.873 40.5409 335.951 41.0769 335.89 41.6818C335.809 42.4902 335.502 43.1589 334.969 43.6879C334.442 44.2174 333.747 44.596 332.885 44.8235C332.029 45.0459 331.067 45.1034 329.998 44.9962C328.958 44.8917 328.04 44.6483 327.245 44.2658C326.456 43.8782 325.848 43.366 325.42 42.7292C324.999 42.093 324.817 41.3495 324.873 40.4987ZM341.432 46.1356C340.601 46.0521 339.875 45.8336 339.254 45.48C338.633 45.1208 338.162 44.6366 337.841 44.0276C337.526 43.4135 337.411 42.6768 337.497 41.8175C337.57 41.0938 337.764 40.4994 338.079 40.0343C338.394 39.5691 338.796 39.2097 339.284 38.956C339.772 38.7024 340.314 38.5285 340.912 38.4343C341.515 38.3407 342.142 38.2951 342.793 38.2976C343.559 38.2945 344.177 38.2824 344.647 38.2611C345.118 38.2341 345.465 38.1605 345.688 38.0401C345.912 37.9198 346.037 37.7211 346.065 37.4441L346.07 37.3932C346.124 36.8561 345.996 36.4236 345.687 36.0956C345.383 35.7681 344.922 35.5734 344.306 35.5116C343.656 35.4463 343.124 35.5385 342.711 35.7882C342.298 36.0323 342.008 36.3629 341.84 36.7801L338.527 36.1733C338.776 35.3989 339.178 34.7483 339.733 34.2216C340.289 33.6892 340.976 33.307 341.793 33.075C342.616 32.8379 343.548 32.7715 344.588 32.876C345.312 32.9486 345.996 33.1029 346.64 33.3389C347.29 33.5755 347.855 33.8977 348.333 34.3055C348.818 34.7139 349.181 35.213 349.425 35.8028C349.669 36.3869 349.752 37.0662 349.674 37.8407L348.792 46.6261L345.366 46.2821L345.548 44.4759L345.446 44.4656C345.196 44.8517 344.88 45.1826 344.498 45.4583C344.117 45.7284 343.672 45.9264 343.162 46.0523C342.653 46.1725 342.077 46.2003 341.432 46.1356ZM342.717 43.7463C343.249 43.7996 343.728 43.7422 344.156 43.5738C344.585 43.3999 344.933 43.1436 345.201 42.8051C345.47 42.4665 345.627 42.0683 345.673 41.6104L345.811 40.2281C345.691 40.2903 345.529 40.3425 345.325 40.3848C345.127 40.4221 344.904 40.4539 344.655 40.4804C344.408 40.5012 344.16 40.5192 343.913 40.5344C343.667 40.5439 343.443 40.5528 343.243 40.5612C342.812 40.5809 342.432 40.6426 342.102 40.7465C341.772 40.8504 341.507 41.0095 341.309 41.2236C341.111 41.4322 340.995 41.7061 340.961 42.0453C340.911 42.5371 341.052 42.9309 341.382 43.2268C341.718 43.5175 342.163 43.6907 342.717 43.7463ZM351.595 46.9075L352.903 33.882L358.457 34.4397C360.063 34.6009 361.301 35.0336 362.173 35.7378C363.044 36.442 363.424 37.3567 363.311 38.4817C363.24 39.1884 362.918 39.7499 362.345 40.1664C361.772 40.5828 361.011 40.8262 360.062 40.8965C360.836 41.0313 361.482 41.2761 362.001 41.6308C362.525 41.9804 362.908 42.4043 363.149 42.9025C363.396 43.4012 363.491 43.9361 363.434 44.5071C363.359 45.2477 363.098 45.8638 362.649 46.3555C362.205 46.8478 361.59 47.1972 360.804 47.4038C360.024 47.611 359.091 47.6601 358.006 47.5511L351.595 46.9075ZM355.233 44.5403L358.277 44.846C358.781 44.8965 359.185 44.8172 359.492 44.6081C359.805 44.394 359.982 44.0777 360.024 43.6594C360.071 43.1958 359.963 42.8167 359.701 42.522C359.445 42.2279 359.066 42.0556 358.563 42.0051L355.518 41.6995L355.233 44.5403ZM355.731 39.5795L357.995 39.8068C358.357 39.8431 358.67 39.8232 358.935 39.7469C359.206 39.6656 359.419 39.5329 359.575 39.3486C359.736 39.1649 359.83 38.9374 359.857 38.666C359.898 38.2647 359.768 37.9347 359.468 37.6762C359.169 37.4177 358.739 37.2604 358.18 37.2042L355.992 36.9845L355.731 39.5795ZM371.264 49.1392C369.925 49.0047 368.799 48.6175 367.886 47.9778C366.98 47.3329 366.317 46.484 365.898 45.4311C365.479 44.3726 365.338 43.1565 365.476 41.7827C365.611 40.4428 365.989 39.293 366.61 38.3333C367.232 37.3736 368.043 36.6584 369.044 36.1879C370.051 35.7179 371.193 35.547 372.471 35.6753C373.33 35.7616 374.116 35.9804 374.829 36.3318C375.548 36.678 376.157 37.1532 376.656 37.7572C377.16 38.3618 377.526 39.0952 377.754 39.9575C377.982 40.8141 378.04 41.7964 377.929 42.9045L377.829 43.8966L366.831 42.7924L367.056 40.5537L374.654 41.3165C374.706 40.7964 374.639 40.3243 374.453 39.9002C374.267 39.4761 373.985 39.1308 373.607 38.8644C373.234 38.5929 372.785 38.4307 372.259 38.3779C371.711 38.3229 371.212 38.4013 370.762 38.6131C370.319 38.8198 369.957 39.1233 369.677 39.5235C369.398 39.918 369.229 40.3722 369.172 40.8861L368.958 43.0146C368.894 43.6591 368.957 44.2278 369.147 44.7209C369.343 45.2146 369.649 45.6107 370.064 45.9094C370.479 46.2081 370.99 46.3878 371.595 46.4485C371.996 46.4888 372.369 46.4692 372.714 46.3896C373.059 46.31 373.361 46.1691 373.622 45.9668C373.882 45.7645 374.09 45.5056 374.248 45.1902L377.567 45.7461C377.317 46.5319 376.898 47.198 376.313 47.7445C375.733 48.2859 375.014 48.6819 374.155 48.9326C373.302 49.1782 372.339 49.247 371.264 49.1392ZM379.135 54.6062L380.934 36.6963L384.495 37.0539L384.276 39.2417L384.437 39.2579C384.63 38.9233 384.895 38.5901 385.231 38.2584C385.573 37.9216 385.999 37.656 386.51 37.4617C387.027 37.2623 387.65 37.1993 388.379 37.2725C389.329 37.3678 390.18 37.7046 390.933 38.2827C391.687 38.8551 392.254 39.663 392.634 40.7062C393.015 41.7438 393.131 43.0088 392.981 44.5013C392.835 45.9542 392.478 47.1575 391.908 48.111C391.344 49.0595 390.635 49.7506 389.781 50.1845C388.933 50.6133 388.014 50.778 387.025 50.6787C386.324 50.6083 385.739 50.4325 385.27 50.1513C384.807 49.8707 384.438 49.5396 384.162 49.1579C383.887 48.7705 383.686 48.3876 383.558 48.0094L383.448 47.9983L382.748 54.9689L379.135 54.6062ZM383.816 43.564C383.738 44.3385 383.778 45.0249 383.935 45.6231C384.092 46.2213 384.357 46.702 384.732 47.0651C385.107 47.4226 385.586 47.6305 386.168 47.689C386.756 47.748 387.27 47.6368 387.71 47.3555C388.149 47.0684 388.503 46.6471 388.77 46.0914C389.043 45.5307 389.218 44.8716 389.294 44.114C389.37 43.3621 389.331 42.6902 389.18 42.0982C389.028 41.5062 388.764 41.0286 388.39 40.6655C388.015 40.3024 387.531 40.0911 386.937 40.0315C386.349 39.9724 385.836 40.0779 385.398 40.348C384.965 40.6187 384.613 41.0287 384.341 41.5781C384.069 42.1275 383.894 42.7895 383.816 43.564ZM396.045 38.2134L399.497 38.56L398.477 48.7191L402.148 49.0878L403.168 38.9286L406.62 39.2751L405.6 49.4343L409.272 49.8029L410.292 39.6438L413.743 39.9903L412.435 53.0157L394.737 51.2389L396.045 38.2134ZM421.146 54.1472C419.807 54.0127 418.681 53.6256 417.768 52.9858C416.862 52.3409 416.199 51.4921 415.78 50.4392C415.361 49.3807 415.22 48.1645 415.358 46.7907C415.493 45.4509 415.871 44.3011 416.492 43.3413C417.114 42.3816 417.925 41.6665 418.926 41.1959C419.933 40.7259 421.075 40.5551 422.353 40.6833C423.212 40.7696 423.998 40.9884 424.711 41.3398C425.43 41.6861 426.039 42.1612 426.538 42.7652C427.042 43.3698 427.408 44.1032 427.636 44.9655C427.864 45.8221 427.922 46.8044 427.811 47.9125L427.712 48.9047L416.713 47.8004L416.938 45.5617L424.536 46.3245C424.588 45.8044 424.521 45.3323 424.335 44.9082C424.15 44.4841 423.867 44.1389 423.489 43.8724C423.116 43.6009 422.667 43.4388 422.141 43.386C421.593 43.3309 421.094 43.4093 420.644 43.6211C420.201 43.8279 419.839 44.1313 419.559 44.5315C419.28 44.926 419.111 45.3802 419.054 45.8941L418.84 48.0226C418.776 48.6671 418.839 49.2359 419.029 49.729C419.225 50.2226 419.531 50.6188 419.946 50.9174C420.361 51.2161 420.872 51.3958 421.477 51.4565C421.878 51.4968 422.251 51.4772 422.596 51.3976C422.941 51.318 423.243 51.1771 423.504 50.9748C423.764 50.7725 423.972 50.5136 424.13 50.1982L427.449 50.7542C427.199 51.5399 426.78 52.206 426.195 52.7525C425.615 53.2939 424.896 53.6899 424.037 53.9406C423.184 54.1862 422.221 54.2551 421.146 54.1472ZM439.372 47.6855L439.087 50.5264L432.285 49.8436L432.571 47.0027L439.372 47.6855ZM434.267 42.0508L432.959 55.0763L429.508 54.7298L430.816 41.7043L434.267 42.0508ZM442.145 42.8418L440.837 55.8672L437.411 55.5232L438.719 42.4978L442.145 42.8418ZM449.5 56.9938C448.182 56.8616 447.071 56.4674 446.166 55.8112C445.268 55.1499 444.609 54.2901 444.19 53.2315C443.771 52.1674 443.629 50.9682 443.763 49.634C443.898 48.2885 444.276 47.1387 444.897 46.1846C445.519 45.2248 446.336 44.5131 447.347 44.0493C448.365 43.5805 449.533 43.4122 450.85 43.5444C452.167 43.6767 453.275 44.0734 454.174 44.7347C455.079 45.3909 455.74 46.251 456.159 47.3152C456.578 48.3737 456.72 49.5757 456.585 50.9213C456.451 52.2555 456.073 53.4024 455.451 54.3622C454.83 55.3162 454.011 56.0277 452.993 56.4966C451.981 56.9603 450.817 57.1261 449.5 56.9938ZM449.798 54.1971C450.397 54.2573 450.914 54.1379 451.35 53.839C451.786 53.5344 452.135 53.0956 452.398 52.5224C452.667 51.9498 452.84 51.2847 452.916 50.5272C452.992 49.7696 452.955 49.0835 452.805 48.4689C452.661 47.8549 452.406 47.3553 452.039 46.9701C451.672 46.585 451.189 46.3623 450.59 46.3021C449.985 46.2414 449.459 46.3628 449.012 46.6662C448.57 46.9702 448.215 47.4085 447.946 47.9811C447.683 48.5542 447.513 49.2196 447.437 49.9772C447.361 50.7347 447.395 51.4205 447.539 52.0346C447.689 52.6492 447.95 53.1493 448.322 53.5351C448.701 53.9157 449.193 54.1364 449.798 54.1971Z" fill="white"/>
<path d="M182.634 126.681C181.317 126.813 180.15 126.647 179.133 126.183C178.121 125.712 177.305 125 176.684 124.046C176.063 123.085 175.686 121.938 175.553 120.604C175.419 119.258 175.562 118.056 175.982 116.998C176.401 115.934 177.06 115.075 177.96 114.42C178.865 113.759 179.976 113.362 181.293 113.231C182.611 113.1 183.775 113.269 184.787 113.739C185.804 114.203 186.623 114.915 187.244 115.875C187.865 116.83 188.242 117.98 188.376 119.326C188.509 120.66 188.366 121.859 187.947 122.923C187.527 123.981 186.865 124.841 185.96 125.502C185.06 126.157 183.952 126.55 182.634 126.681ZM182.372 123.881C182.971 123.821 183.455 123.602 183.823 123.223C184.19 122.838 184.445 122.338 184.59 121.724C184.74 121.11 184.777 120.424 184.701 119.666C184.626 118.909 184.454 118.243 184.186 117.671C183.923 117.097 183.574 116.658 183.138 116.353C182.702 116.048 182.184 115.926 181.585 115.986C180.98 116.046 180.488 116.269 180.11 116.655C179.737 117.041 179.476 117.541 179.326 118.155C179.182 118.769 179.147 119.455 179.223 120.212C179.298 120.97 179.467 121.635 179.73 122.209C179.999 122.782 180.353 123.22 180.795 123.524C181.241 123.823 181.767 123.941 182.372 123.881ZM200.424 106.665L201.761 108.912C201.424 109.254 201.04 109.521 200.608 109.713C200.175 109.898 199.65 110.045 199.033 110.152C198.421 110.259 197.672 110.365 196.786 110.47C195.781 110.582 194.977 110.825 194.375 111.199C193.773 111.573 193.341 112.11 193.08 112.81C192.818 113.504 192.689 114.39 192.694 115.469L192.821 115.457C193.132 114.62 193.619 113.95 194.282 113.444C194.951 112.937 195.808 112.632 196.854 112.528C197.962 112.417 198.956 112.564 199.836 112.967C200.721 113.37 201.441 114.003 201.995 114.867C202.55 115.731 202.89 116.8 203.017 118.072C203.149 119.395 203.004 120.571 202.581 121.601C202.163 122.625 201.506 123.453 200.61 124.084C199.713 124.711 198.609 125.089 197.297 125.22C195.98 125.351 194.816 125.187 193.805 124.728C192.8 124.269 191.984 123.525 191.356 122.497C190.734 121.469 190.344 120.166 190.187 118.588L190.08 117.52C189.767 114.382 190.146 111.995 191.216 110.358C192.287 108.721 194.005 107.773 196.372 107.514C197.015 107.438 197.597 107.378 198.118 107.331C198.639 107.285 199.091 107.214 199.476 107.119C199.866 107.023 200.182 106.872 200.424 106.665ZM197.035 122.419C197.589 122.364 198.05 122.173 198.417 121.845C198.79 121.517 199.057 121.073 199.218 120.515C199.385 119.955 199.431 119.303 199.357 118.556C199.283 117.816 199.11 117.199 198.838 116.707C198.572 116.208 198.224 115.843 197.796 115.612C197.367 115.38 196.873 115.292 196.313 115.348C195.895 115.39 195.526 115.504 195.208 115.69C194.89 115.876 194.627 116.13 194.419 116.453C194.217 116.771 194.072 117.153 193.986 117.602C193.904 118.044 193.891 118.542 193.946 119.096C194.057 120.21 194.385 121.065 194.93 121.661C195.48 122.252 196.182 122.505 197.035 122.419ZM206.723 110.867L207.008 113.734L203.667 114.067L203.381 111.2L206.723 110.867ZM209.378 114.645L213.279 114.257C215.003 114.085 216.387 114.363 217.43 115.093C218.479 115.817 219.075 116.865 219.217 118.238C219.301 119.132 219.158 119.94 218.791 120.662C218.422 121.378 217.847 121.966 217.065 122.427C216.288 122.881 215.326 123.166 214.178 123.28L208.021 123.894L206.723 110.867L210.166 110.524L211.181 120.709L213.895 120.439C214.5 120.379 214.982 120.176 215.342 119.832C215.702 119.488 215.858 119.078 215.81 118.604C215.76 118.1 215.524 117.71 215.103 117.432C214.68 117.149 214.167 117.037 213.562 117.098L209.661 117.486L209.378 114.645ZM229.694 121.733L228.677 111.539L226.235 111.783C225.574 111.849 225.086 112.052 224.771 112.391C224.457 112.731 224.323 113.11 224.37 113.528C224.407 113.952 224.607 114.295 224.97 114.556C225.338 114.81 225.85 114.905 226.505 114.839L230.186 114.472L230.43 116.915L226.749 117.282C225.635 117.393 224.654 117.319 223.806 117.061C222.958 116.803 222.284 116.394 221.782 115.833C221.281 115.266 220.992 114.578 220.917 113.769C220.827 112.922 220.971 112.156 221.348 111.474C221.725 110.785 222.305 110.222 223.089 109.784C223.879 109.34 224.833 109.062 225.953 108.95L231.762 108.371L233.06 121.398L229.694 121.733ZM221.416 122.558L224.361 115.413L227.813 115.069L224.877 122.213L221.416 122.558ZM235.868 121.118L234.569 108.091L240.124 107.538C241.73 107.378 243.029 107.556 244.023 108.074C245.017 108.592 245.57 109.413 245.682 110.538C245.752 111.245 245.548 111.859 245.069 112.381C244.59 112.902 243.892 113.292 242.976 113.549C243.762 113.527 244.444 113.639 245.022 113.884C245.605 114.123 246.065 114.463 246.4 114.903C246.74 115.343 246.939 115.849 246.996 116.42C247.07 117.16 246.936 117.816 246.593 118.387C246.256 118.957 245.722 119.422 244.993 119.78C244.269 120.138 243.365 120.37 242.279 120.479L235.868 121.118ZM238.965 118.077L242.009 117.773C242.512 117.723 242.894 117.565 243.153 117.3C243.417 117.028 243.528 116.683 243.486 116.264C243.44 115.801 243.259 115.45 242.945 115.213C242.635 114.976 242.229 114.882 241.726 114.932L238.682 115.236L238.965 118.077ZM238.47 113.116L240.734 112.89C241.096 112.854 241.399 112.772 241.644 112.645C241.893 112.512 242.076 112.339 242.192 112.128C242.313 111.916 242.361 111.674 242.334 111.403C242.294 111.001 242.101 110.704 241.756 110.51C241.411 110.316 240.959 110.247 240.399 110.302L238.211 110.521L238.47 113.116ZM248.864 119.822L248.562 116.957L248.994 116.914C249.299 116.884 249.555 116.784 249.761 116.615C249.972 116.44 250.134 116.175 250.247 115.822C250.36 115.468 250.431 115.007 250.46 114.438C250.489 113.865 250.476 113.164 250.422 112.335L250.059 106.547L259.964 105.56L261.263 118.586L257.82 118.929L256.804 108.744L253.59 109.065L253.783 113.062C253.841 114.159 253.802 115.11 253.665 115.918C253.535 116.724 253.308 117.398 252.985 117.938C252.661 118.473 252.248 118.885 251.746 119.175C251.244 119.465 250.645 119.645 249.95 119.714L248.864 119.822ZM270.026 117.97C268.686 118.103 267.505 117.947 266.484 117.5C265.469 117.048 264.651 116.347 264.031 115.398C263.41 114.444 263.032 113.279 262.895 111.906C262.761 110.566 262.904 109.364 263.323 108.3C263.742 107.236 264.396 106.374 265.284 105.715C266.177 105.055 267.263 104.661 268.541 104.534C269.4 104.448 270.214 104.507 270.982 104.71C271.755 104.907 272.446 105.252 273.055 105.745C273.67 106.238 274.174 106.884 274.568 107.684C274.961 108.479 275.213 109.43 275.323 110.538L275.422 111.53L264.423 112.627L264.199 110.388L271.798 109.63C271.746 109.11 271.587 108.661 271.321 108.282C271.055 107.903 270.71 107.621 270.286 107.434C269.867 107.242 269.395 107.172 268.869 107.225C268.32 107.279 267.847 107.455 267.448 107.752C267.055 108.042 266.76 108.411 266.565 108.859C266.369 109.301 266.294 109.779 266.34 110.295L266.552 112.423C266.616 113.068 266.791 113.613 267.075 114.058C267.365 114.503 267.743 114.831 268.209 115.042C268.676 115.252 269.211 115.327 269.816 115.267C270.218 115.227 270.579 115.134 270.902 114.987C271.224 114.841 271.493 114.643 271.708 114.393C271.922 114.143 272.076 113.848 272.167 113.508L275.531 113.395C275.441 114.215 275.163 114.951 274.697 115.602C274.236 116.248 273.61 116.779 272.818 117.195C272.03 117.604 271.1 117.863 270.026 117.97ZM286.61 108.025L286.893 110.867L280.091 111.545L279.808 108.704L286.61 108.025ZM280.49 103.514L281.788 116.54L278.337 116.884L277.038 103.858L280.49 103.514ZM288.368 102.728L289.667 115.755L286.241 116.096L284.942 103.07L288.368 102.728ZM295.446 110.365L299.313 101.637L302.875 101.282L304.173 114.309L300.73 114.652L299.904 106.366L296.057 115.118L292.47 115.475L291.171 102.449L294.623 102.105L295.446 110.365ZM313.031 113.682C311.691 113.816 310.511 113.66 309.49 113.213C308.474 112.761 307.656 112.06 307.036 111.111C306.416 110.157 306.037 108.992 305.9 107.618C305.767 106.279 305.909 105.077 306.329 104.013C306.748 102.949 307.402 102.087 308.289 101.428C309.183 100.768 310.268 100.374 311.546 100.246C312.406 100.161 313.219 100.22 313.988 100.423C314.761 100.62 315.452 100.965 316.061 101.458C316.675 101.951 317.179 102.597 317.573 103.397C317.966 104.192 318.218 105.143 318.329 106.251L318.428 107.243L307.428 108.34L307.205 106.101L314.804 105.343C314.752 104.823 314.593 104.374 314.327 103.995C314.06 103.616 313.715 103.333 313.291 103.147C312.873 102.955 312.4 102.885 311.874 102.937C311.326 102.992 310.852 103.168 310.454 103.464C310.06 103.755 309.766 104.124 309.571 104.572C309.375 105.014 309.3 105.492 309.345 106.007L309.558 108.136C309.622 108.781 309.796 109.326 310.08 109.771C310.37 110.216 310.748 110.544 311.215 110.754C311.681 110.965 312.217 111.04 312.822 110.98C313.223 110.94 313.585 110.846 313.907 110.7C314.23 110.554 314.498 110.356 314.713 110.106C314.928 109.856 315.081 109.561 315.173 109.221L318.536 109.108C318.447 109.928 318.169 110.664 317.703 111.315C317.242 111.961 316.615 112.492 315.823 112.907C315.036 113.317 314.105 113.575 313.031 113.682ZM325.832 108.424L329.334 108.075C329.394 108.503 329.62 108.823 330.013 109.035C330.405 109.247 330.892 109.324 331.475 109.266C332.063 109.207 332.544 109.022 332.918 108.711C333.292 108.394 333.453 107.978 333.402 107.463C333.37 107.147 333.264 106.881 333.082 106.665C332.9 106.443 332.661 106.278 332.365 106.171C332.069 106.063 331.734 106.028 331.361 106.065L329.487 106.252L329.251 103.886L331.125 103.699C331.685 103.643 332.102 103.47 332.375 103.181C332.655 102.89 332.775 102.55 332.736 102.16C332.692 101.719 332.499 101.381 332.155 101.147C331.817 100.906 331.383 100.813 330.851 100.866C330.314 100.919 329.88 101.085 329.548 101.364C329.221 101.636 329.071 101.965 329.098 102.351L325.612 102.698C325.546 101.917 325.713 101.218 326.114 100.601C326.521 99.9842 327.099 99.4812 327.848 99.0924C328.603 98.7031 329.467 98.46 330.439 98.3631C331.502 98.2571 332.433 98.3156 333.232 98.5386C334.035 98.7554 334.671 99.1174 335.139 99.6247C335.612 100.131 335.886 100.764 335.961 101.521C336.03 102.211 335.861 102.81 335.455 103.319C335.049 103.828 334.449 104.221 333.655 104.501L333.668 104.636C334.209 104.617 334.709 104.712 335.17 104.923C335.631 105.134 336.013 105.45 336.318 105.871C336.622 106.286 336.804 106.796 336.864 107.401C336.945 108.209 336.777 108.926 336.359 109.55C335.947 110.173 335.341 110.682 334.541 111.076C333.746 111.463 332.815 111.71 331.746 111.817C330.706 111.921 329.758 111.864 328.903 111.646C328.052 111.423 327.355 111.041 326.81 110.502C326.271 109.962 325.945 109.269 325.832 108.424ZM343.179 110.669C342.348 110.751 341.593 110.681 340.914 110.457C340.235 110.228 339.677 109.847 339.241 109.314C338.811 108.774 338.553 108.075 338.467 107.216C338.395 106.492 338.467 105.871 338.684 105.352C338.9 104.834 339.223 104.402 339.651 104.057C340.079 103.712 340.577 103.434 341.144 103.223C341.716 103.012 342.322 102.843 342.96 102.716C343.71 102.562 344.313 102.427 344.77 102.313C345.226 102.194 345.552 102.053 345.747 101.89C345.942 101.728 346.026 101.509 345.998 101.232L345.993 101.181C345.94 100.644 345.729 100.245 345.36 99.9847C344.997 99.7239 344.508 99.6243 343.892 99.6857C343.241 99.7505 342.738 99.9463 342.383 100.273C342.026 100.594 341.808 100.976 341.726 101.418L338.358 101.479C338.448 100.671 338.714 99.9535 339.154 99.3272C339.593 98.6953 340.19 98.1847 340.945 97.7954C341.705 97.3999 342.605 97.1502 343.646 97.0465C344.369 96.9744 345.07 96.9902 345.749 97.0938C346.433 97.1969 347.05 97.4009 347.6 97.7058C348.155 98.0102 348.611 98.4273 348.966 98.9571C349.321 99.4813 349.537 100.131 349.615 100.905L350.49 109.691L347.064 110.033L346.884 108.226L346.782 108.237C346.614 108.665 346.37 109.051 346.05 109.397C345.73 109.738 345.333 110.02 344.858 110.244C344.383 110.463 343.824 110.604 343.179 110.669ZM343.965 108.072C344.497 108.019 344.956 107.868 345.342 107.618C345.727 107.362 346.018 107.042 346.214 106.657C346.41 106.272 346.485 105.851 346.439 105.393L346.301 104.011C346.195 104.095 346.047 104.179 345.855 104.261C345.668 104.336 345.456 104.412 345.218 104.487C344.98 104.556 344.741 104.623 344.501 104.687C344.262 104.745 344.044 104.798 343.849 104.846C343.431 104.951 343.071 105.086 342.768 105.254C342.465 105.421 342.237 105.629 342.085 105.878C341.932 106.122 341.873 106.413 341.907 106.753C341.956 107.245 342.171 107.603 342.553 107.827C342.941 108.046 343.411 108.127 343.965 108.072ZM353.293 109.412L351.995 96.3855L357.55 95.8318C359.155 95.6717 360.455 95.8505 361.449 96.3681C362.443 96.8857 362.995 97.7071 363.108 98.8322C363.178 99.5389 362.974 100.153 362.495 100.675C362.016 101.196 361.318 101.586 360.401 101.843C361.187 101.821 361.869 101.933 362.448 102.178C363.031 102.417 363.49 102.757 363.825 103.197C364.166 103.637 364.365 104.143 364.422 104.714C364.496 105.454 364.361 106.11 364.019 106.681C363.681 107.251 363.148 107.716 362.419 108.074C361.695 108.432 360.79 108.665 359.705 108.773L353.293 109.412ZM356.391 106.371L359.435 106.067C359.938 106.017 360.319 105.859 360.578 105.594C360.842 105.322 360.954 104.977 360.912 104.558C360.866 104.095 360.685 103.744 360.37 103.507C360.061 103.27 359.655 103.176 359.152 103.226L356.107 103.53L356.391 106.371ZM355.896 101.41L358.16 101.184C358.522 101.148 358.825 101.066 359.069 100.939C359.319 100.806 359.501 100.633 359.617 100.422C359.739 100.21 359.786 99.9684 359.759 99.697C359.719 99.2956 359.527 98.9978 359.182 98.8038C358.837 98.6098 358.385 98.5407 357.825 98.5965L355.637 98.8146L355.896 101.41ZM373.015 107.703C371.675 107.836 370.495 107.68 369.474 107.234C368.458 106.781 367.64 106.08 367.02 105.131C366.4 104.177 366.021 103.013 365.884 101.639C365.751 100.299 365.893 99.0969 366.313 98.033C366.732 96.9691 367.385 96.1075 368.273 95.448C369.167 94.7879 370.252 94.3942 371.53 94.2668C372.39 94.1811 373.203 94.2399 373.972 94.4431C374.745 94.6401 375.436 94.9852 376.045 95.4783C376.659 95.971 377.163 96.6173 377.557 97.4174C377.95 98.2119 378.202 99.1632 378.313 100.271L378.412 101.264L367.412 102.36L367.189 100.121L374.788 99.3637C374.736 98.8435 374.577 98.394 374.311 98.0151C374.044 97.6363 373.699 97.3538 373.275 97.1676C372.856 96.9753 372.384 96.9053 371.858 96.9577C371.31 97.0124 370.836 97.1881 370.438 97.4848C370.044 97.7752 369.75 98.1443 369.555 98.592C369.359 99.0341 369.284 99.5127 369.329 100.028L369.542 102.156C369.606 102.801 369.78 103.346 370.064 103.792C370.354 104.237 370.732 104.564 371.199 104.775C371.665 104.985 372.201 105.06 372.806 105C373.207 104.96 373.569 104.867 373.891 104.72C374.214 104.574 374.482 104.376 374.697 104.126C374.912 103.876 375.065 103.581 375.157 103.241L378.52 103.128C378.431 103.948 378.153 104.684 377.687 105.336C377.226 105.981 376.599 106.512 375.807 106.928C375.02 107.337 374.089 107.596 373.015 107.703ZM381.813 111.502L380.028 93.591L383.59 93.2359L383.808 95.4239L383.969 95.4079C384.092 95.0415 384.286 94.6625 384.549 94.2708C384.818 93.8729 385.183 93.5281 385.645 93.2365C386.112 92.9387 386.711 92.7535 387.44 92.6808C388.39 92.5861 389.291 92.7475 390.143 93.165C390.995 93.5768 391.711 94.2563 392.291 95.2035C392.87 96.145 393.234 97.3621 393.383 98.8547C393.528 100.308 393.415 101.558 393.046 102.605C392.681 103.647 392.123 104.465 391.372 105.059C390.625 105.647 389.757 105.991 388.768 106.09C388.067 106.159 387.459 106.103 386.944 105.92C386.435 105.737 386.007 105.485 385.661 105.166C385.315 104.841 385.041 104.505 384.841 104.16L384.731 104.171L385.426 111.142L381.813 111.502ZM384.213 99.7516C384.291 100.526 384.465 101.191 384.738 101.746C385.01 102.302 385.366 102.72 385.805 103.002C386.244 103.278 386.754 103.387 387.337 103.329C387.925 103.27 388.406 103.059 388.781 102.697C389.155 102.328 389.418 101.845 389.57 101.248C389.727 100.644 389.768 99.9631 389.692 99.2055C389.617 98.4535 389.446 97.8024 389.18 97.2523C388.914 96.7021 388.562 96.2862 388.122 96.0045C387.683 95.7228 387.167 95.6115 386.573 95.6707C385.985 95.7293 385.503 95.9344 385.127 96.2859C384.757 96.6369 384.492 97.1086 384.335 97.7011C384.177 98.2935 384.136 98.977 384.213 99.7516ZM395.14 92.0844L398.592 91.7403L399.605 101.9L403.277 101.534L402.264 91.3743L405.716 91.0302L406.729 101.19L410.401 100.824L409.388 90.6641L412.84 90.32L414.138 103.346L396.439 105.111L395.14 92.0844ZM422.901 102.73C421.561 102.863 420.38 102.707 419.359 102.261C418.344 101.808 417.526 101.107 416.906 100.158C416.285 99.2039 415.907 98.0397 415.77 96.6658C415.636 95.3258 415.779 94.1239 416.198 93.06C416.617 91.9962 417.271 91.1345 418.159 90.475C419.052 89.8149 420.138 89.4212 421.416 89.2938C422.275 89.2081 423.089 89.2669 423.857 89.4701C424.63 89.6671 425.322 90.0122 425.93 90.5054C426.545 90.998 427.049 91.6443 427.443 92.4444C427.836 93.2389 428.088 94.1902 428.198 95.2983L428.297 96.2906L417.298 97.3871L417.074 95.1482L424.673 94.3907C424.621 93.8705 424.462 93.421 424.196 93.0422C423.93 92.6633 423.585 92.3808 423.161 92.1946C422.742 92.0023 422.27 91.9323 421.744 91.9847C421.195 92.0394 420.722 92.2151 420.323 92.5118C419.93 92.8023 419.635 93.1714 419.44 93.6191C419.244 94.0611 419.169 94.5397 419.215 95.0547L419.427 97.1834C419.491 97.8279 419.666 98.373 419.95 98.8186C420.24 99.2636 420.618 99.5913 421.084 99.8018C421.551 100.012 422.086 100.087 422.691 100.027C423.093 99.987 423.454 99.8938 423.777 99.7475C424.099 99.6012 424.368 99.4031 424.583 99.1533C424.798 98.9035 424.951 98.6084 425.043 98.2681L428.406 98.1555C428.316 98.9752 428.039 99.7109 427.572 100.363C427.111 101.008 426.485 101.539 425.693 101.955C424.906 102.364 423.975 102.623 422.901 102.73ZM439.485 92.7857L439.768 95.6267L432.966 96.3047L432.683 93.4637L439.485 92.7857ZM433.365 88.2739L434.663 101.3L431.212 101.644L429.913 88.618L433.365 88.2739ZM441.243 87.4885L442.542 100.515L439.116 100.856L437.817 87.8301L441.243 87.4885ZM451.256 99.9031C449.939 100.034 448.771 99.8682 447.754 99.4043C446.743 98.9341 445.926 98.2218 445.306 97.2673C444.685 96.3071 444.308 95.1599 444.175 93.8256C444.041 92.48 444.184 91.278 444.603 90.2198C445.023 89.1559 445.682 88.2965 446.582 87.6415C447.487 86.9803 448.598 86.5841 449.915 86.4528C451.232 86.3214 452.397 86.4908 453.409 86.961C454.426 87.4249 455.245 88.1369 455.866 89.0971C456.486 90.0516 456.864 91.2017 456.998 92.5473C457.131 93.8816 456.988 95.0807 456.568 96.1446C456.149 97.2028 455.486 98.0625 454.581 98.7237C453.682 99.3787 452.573 99.7718 451.256 99.9031ZM450.994 97.1028C451.593 97.0431 452.077 96.8236 452.444 96.4443C452.811 96.0594 453.067 95.56 453.211 94.9461C453.361 94.3316 453.399 93.6455 453.323 92.8879C453.248 92.1303 453.076 91.4651 452.807 90.8923C452.544 90.319 452.195 89.8798 451.759 89.575C451.324 89.2701 450.806 89.1475 450.207 89.2073C449.602 89.2676 449.11 89.4908 448.732 89.8768C448.359 90.2623 448.098 90.7622 447.948 91.3767C447.803 91.9907 447.769 92.6764 447.845 93.4341C447.92 94.1917 448.089 94.8571 448.352 95.4305C448.62 96.0033 448.975 96.4418 449.417 96.7462C449.863 97.0442 450.389 97.1631 450.994 97.1028Z" fill="white"/>
</g>
<defs>
<clipPath id="clip0_5_2">
<rect width="1390" height="145" fill="white"/>
</clipPath>
</defs>
</svg>
