<svg width="1390" height="145" viewBox="0 0 1390 145" fill="none" xmlns="http://www.w3.org/2000/svg">
<g clip-path="url(#clip0_5_2)">
<rect x="-95" y="129.925" width="1584.2" height="27" transform="rotate(-5.1399 -95 129.925)" fill="#D3C68C"/>
<rect x="-107.503" y="-16" width="1614" height="27" transform="rotate(5.30651 -107.503 -16)" fill="#D3C68C"/>
<path d="M940.451 57.1557C939.133 57.2758 937.967 57.0996 936.954 56.6271C935.946 56.1484 935.136 55.4292 934.524 54.4694C933.911 53.504 933.544 52.3536 933.422 51.0182C933.299 49.6715 933.452 48.4709 933.881 47.4163C934.309 46.356 934.976 45.5022 935.881 44.8548C936.792 44.2014 937.906 43.8145 939.225 43.6944C940.543 43.5743 941.706 43.7535 942.714 44.2322C943.727 44.7048 944.54 45.4237 945.153 46.3891C945.765 47.3489 946.133 48.5021 946.255 49.8488C946.377 51.1842 946.224 52.382 945.795 53.4423C945.367 54.4969 944.697 55.351 943.787 56.0045C942.881 56.6518 941.77 57.0355 940.451 57.1557ZM940.213 54.3532C940.813 54.2986 941.298 54.0832 941.669 53.7071C942.039 53.3253 942.299 52.8281 942.449 52.2154C942.604 51.6022 942.647 50.9165 942.578 50.1582C942.509 49.4 942.342 48.7334 942.079 48.1583C941.821 47.5828 941.476 47.1407 941.042 46.8322C940.609 46.5236 940.093 46.3967 939.493 46.4513C938.887 46.5065 938.394 46.7255 938.012 47.1083C937.636 47.4906 937.371 47.9883 937.216 48.6015C937.066 49.2142 937.026 49.8997 937.095 50.6579C937.164 51.4161 937.327 52.083 937.585 52.6586C937.849 53.2336 938.2 53.6752 938.639 53.9832C939.083 54.2851 939.608 54.4084 940.213 54.3532ZM958.41 37.2906L959.729 39.5496C959.389 39.8886 959.002 40.1521 958.568 40.3399C958.134 40.5221 957.608 40.6642 956.99 40.7662C956.377 40.8677 955.627 40.9674 954.74 41.0653C953.734 41.1684 952.928 41.4044 952.323 41.7734C951.718 42.1423 951.281 42.6756 951.014 43.3732C950.746 44.0651 950.61 44.9505 950.606 46.0292L950.733 46.0176C951.051 45.1842 951.543 44.5174 952.211 44.0172C952.884 43.5166 953.744 43.2186 954.791 43.1232C955.9 43.0221 956.893 43.177 957.769 43.5878C958.65 43.9981 959.365 44.6376 959.912 45.5064C960.459 46.3751 960.79 47.446 960.906 48.7191C961.027 50.0432 960.872 51.2184 960.44 52.2447C960.014 53.2649 959.35 54.0871 958.449 54.7112C957.546 55.3297 956.439 55.6988 955.126 55.8184C953.808 55.9386 952.645 55.7649 951.638 55.2976C950.637 54.8297 949.827 54.0791 949.208 53.0457C948.595 52.0119 948.216 50.7057 948.072 49.127L947.975 48.0575C947.689 44.9171 948.088 42.533 949.172 40.9052C950.256 39.2774 951.982 38.3442 954.351 38.1055C954.995 38.0354 955.577 37.9794 956.099 37.9377C956.62 37.8959 957.073 37.8289 957.458 37.7368C957.849 37.6441 958.166 37.4953 958.41 37.2906ZM954.888 53.016C955.442 52.9654 955.905 52.7778 956.274 52.4532C956.65 52.128 956.921 51.6868 957.087 51.1297C957.258 50.572 957.31 49.9198 957.242 49.1729C957.175 48.4316 957.007 47.8136 956.739 47.3188C956.477 46.8178 956.132 46.4498 955.706 46.2148C955.279 45.9798 954.786 45.8879 954.226 45.9389C953.807 45.9771 953.438 46.0877 953.118 46.2709C952.798 46.4541 952.533 46.7065 952.323 47.0281C952.117 47.3434 951.97 47.7249 951.879 48.1724C951.794 48.6138 951.777 49.1118 951.827 49.6663C951.929 50.781 952.249 51.639 952.789 52.2402C953.334 52.8352 954.034 53.0938 954.888 53.016ZM964.673 41.5466L964.934 44.4154L961.59 44.7201L961.329 41.8513L964.673 41.5466ZM967.296 45.347L971.2 44.9912C972.926 44.8339 974.307 45.1245 975.345 45.863C976.387 46.5953 976.974 47.6487 977.105 49.0232C977.18 49.9177 977.031 50.7243 976.657 51.443C976.283 52.1561 975.703 52.7395 974.917 53.1934C974.136 53.6411 973.172 53.9173 972.023 54.022L965.861 54.5835L964.673 41.5466L968.119 41.2326L969.048 51.4261L971.764 51.1786C972.369 51.1235 972.853 50.9253 973.216 50.5842C973.579 50.2431 973.738 49.8348 973.695 49.3595C973.649 48.8559 973.416 48.4635 972.997 48.1822C972.577 47.8953 972.065 47.7794 971.459 47.8345L967.555 48.1903L967.296 45.347ZM987.551 52.607L986.621 42.4049L984.177 42.6277C983.515 42.688 983.025 42.8867 982.708 43.2237C982.391 43.5607 982.254 43.9383 982.298 44.3565C982.331 44.7814 982.527 45.1258 982.888 45.3896C983.254 45.6472 983.765 45.7461 984.421 45.6863L988.105 45.3506L988.328 47.7951L984.644 48.1307C983.529 48.2323 982.549 48.1505 981.703 47.8852C980.858 47.62 980.187 47.2047 979.69 46.6395C979.193 46.0686 978.91 45.3783 978.842 44.5687C978.759 43.7204 978.909 42.9565 979.293 42.2769C979.675 41.5916 980.26 41.0334 981.048 40.6021C981.841 40.1647 982.798 39.8949 983.919 39.7928L989.733 39.2631L990.921 52.2999L987.551 52.607ZM979.267 53.3619L982.273 46.2416L985.727 45.9268L982.73 53.0463L979.267 53.3619ZM993.73 52.0439L992.542 39.007L998.101 38.5005C999.708 38.354 1001.01 38.5438 1002 39.0698C1002.99 39.5959 1003.53 40.4219 1003.63 41.5479C1003.7 42.2552 1003.49 42.8677 1003.01 43.3853C1002.52 43.9029 1001.82 44.2862 1000.9 44.5354C1001.69 44.5208 1002.37 44.6385 1002.95 44.8884C1003.53 45.1321 1003.98 45.4756 1004.31 45.9189C1004.65 46.3618 1004.85 46.8689 1004.9 47.4404C1004.97 48.1817 1004.83 48.8363 1004.48 49.4043C1004.14 49.9717 1003.6 50.4315 1002.87 50.7835C1002.14 51.135 1001.23 51.3602 1000.15 51.4592L993.73 52.0439ZM996.853 49.0294L999.9 48.7517C1000.4 48.7058 1000.79 48.5512 1001.05 48.2877C1001.31 48.0181 1001.43 47.674 1001.39 47.2552C1001.35 46.7912 1001.17 46.4394 1000.86 46.1998C1000.55 45.9596 1000.14 45.8625 999.641 45.9084L996.594 46.186L996.853 49.0294ZM996.4 44.0641L998.666 43.8576C999.029 43.8246 999.332 43.7456 999.578 43.6206C999.828 43.4893 1000.01 43.3185 1000.13 43.1081C1000.25 42.8972 1000.3 42.6559 1000.28 42.3843C1000.24 41.9825 1000.05 41.6832 999.708 41.4863C999.365 41.2893 998.914 41.2164 998.353 41.2674L996.164 41.4669L996.4 44.0641ZM1006.74 50.8587L1006.46 47.9914L1006.89 47.952C1007.2 47.9241 1007.45 47.8266 1007.66 47.6594C1007.87 47.486 1008.04 47.2228 1008.15 46.8699C1008.27 46.517 1008.34 46.0566 1008.38 45.4887C1008.41 44.9151 1008.41 44.214 1008.36 43.3853L1008.04 37.5944L1017.96 36.691L1019.15 49.7279L1015.7 50.0419L1014.77 39.8484L1011.55 40.1415L1011.71 44.1407C1011.76 45.2374 1011.71 46.1888 1011.57 46.995C1011.43 47.8005 1011.2 48.4722 1010.87 49.0098C1010.55 49.5417 1010.13 49.9505 1009.62 50.2361C1009.12 50.5217 1008.52 50.6963 1007.82 50.7597L1006.74 50.8587ZM1027.91 49.1857C1026.57 49.3079 1025.39 49.1415 1024.38 48.6865C1023.36 48.2253 1022.55 47.5176 1021.94 46.5635C1021.33 45.6038 1020.96 44.4364 1020.83 43.0614C1020.71 41.7204 1020.86 40.5197 1021.29 39.4594C1021.72 38.3992 1022.38 37.543 1023.28 36.8911C1024.17 36.2386 1025.26 35.8541 1026.54 35.7376C1027.4 35.6592 1028.22 35.7249 1028.98 35.9346C1029.75 36.1382 1030.44 36.4891 1031.05 36.9874C1031.66 37.4852 1032.16 38.1359 1032.54 38.9393C1032.93 39.7371 1033.17 40.6905 1033.27 41.7995L1033.36 42.7925L1022.36 43.7957L1022.15 41.555L1029.76 40.862C1029.71 40.3414 1029.55 39.8906 1029.29 39.5094C1029.03 39.1283 1028.69 38.8429 1028.26 38.6532C1027.85 38.4573 1027.37 38.3833 1026.85 38.4312C1026.3 38.4813 1025.82 38.6529 1025.42 38.9462C1025.03 39.2333 1024.73 39.5999 1024.53 40.0459C1024.33 40.4863 1024.25 40.9642 1024.29 41.4797L1024.49 43.61C1024.55 44.2551 1024.72 44.8016 1025 45.2496C1025.28 45.6971 1025.66 46.028 1026.12 46.2424C1026.59 46.4568 1027.12 46.5364 1027.73 46.4813C1028.13 46.4447 1028.49 46.3546 1028.81 46.211C1029.14 46.0674 1029.41 45.8716 1029.63 45.6236C1029.84 45.3756 1030 45.0819 1030.09 44.7423L1033.46 44.6583C1033.36 45.4772 1033.08 46.2106 1032.61 46.8583C1032.14 47.4999 1031.51 48.0252 1030.71 48.4344C1029.92 48.8373 1028.99 49.0878 1027.91 49.1857ZM1044.58 39.3827L1044.84 42.226L1038.03 42.8463L1037.77 40.003L1044.58 39.3827ZM1038.5 34.8192L1039.69 47.856L1036.23 48.1708L1035.05 35.1339L1038.5 34.8192ZM1046.38 34.1006L1047.57 47.1375L1044.14 47.45L1042.96 34.4131L1046.38 34.1006ZM1053.4 41.7971L1057.34 33.1025L1060.9 32.7777L1062.09 45.8146L1058.64 46.1286L1057.89 37.8363L1053.97 46.5548L1050.38 46.8819L1049.19 33.845L1052.64 33.5302L1053.4 41.7971ZM1070.95 45.2637C1069.61 45.3859 1068.43 45.2195 1067.42 44.7645C1066.4 44.3032 1065.59 43.5956 1064.98 42.6415C1064.37 41.6817 1064 40.5144 1063.87 39.1394C1063.75 37.7984 1063.91 36.5977 1064.33 35.5374C1064.76 34.4771 1065.42 33.621 1066.32 32.9691C1067.22 32.3166 1068.3 31.9321 1069.58 31.8156C1070.44 31.7372 1071.26 31.8029 1072.02 32.0126C1072.79 32.2161 1073.48 32.5671 1074.09 33.0654C1074.7 33.5632 1075.2 34.2138 1075.58 35.0173C1075.97 35.815 1076.21 36.7684 1076.31 37.8775L1076.4 38.8705L1065.4 39.8736L1065.19 37.6329L1072.8 36.9399C1072.75 36.4194 1072.59 35.9685 1072.33 35.5874C1072.07 35.2063 1071.73 34.9209 1071.3 34.7311C1070.89 34.5352 1070.41 34.4613 1069.89 34.5092C1069.34 34.5592 1068.86 34.7309 1068.46 35.0242C1068.07 35.3113 1067.77 35.6779 1067.57 36.1239C1067.37 36.5643 1067.29 37.0422 1067.33 37.5576L1067.53 39.688C1067.59 40.3331 1067.76 40.8796 1068.04 41.3276C1068.32 41.775 1068.7 42.106 1069.16 42.3204C1069.63 42.5348 1070.16 42.6144 1070.77 42.5592C1071.17 42.5226 1071.53 42.4325 1071.86 42.2889C1072.18 42.1454 1072.45 41.9496 1072.67 41.7016C1072.88 41.4536 1073.04 41.1598 1073.13 40.8203L1076.5 40.7362C1076.4 41.5552 1076.12 42.2886 1075.65 42.9363C1075.18 43.5779 1074.55 44.1032 1073.75 44.5123C1072.96 44.9153 1072.03 45.1657 1070.95 45.2637ZM1090.72 43.4626C1089.4 43.5827 1088.24 43.4065 1087.22 42.934C1086.21 42.4553 1085.4 41.7361 1084.79 40.7763C1084.18 39.8109 1083.81 38.6605 1083.69 37.3252C1083.57 35.9785 1083.72 34.7778 1084.15 33.7232C1084.58 32.6629 1085.24 31.8091 1086.15 31.1618C1087.06 30.5083 1088.17 30.1215 1089.49 30.0013C1090.81 29.8812 1091.97 30.0605 1092.98 30.5392C1093.99 31.0117 1094.81 31.7307 1095.42 32.6961C1096.03 33.6558 1096.4 34.809 1096.52 36.1557C1096.64 37.4911 1096.49 38.6889 1096.06 39.7492C1095.63 40.8039 1094.97 41.6579 1094.05 42.3114C1093.15 42.9587 1092.04 43.3425 1090.72 43.4626ZM1090.48 40.6601C1091.08 40.6055 1091.57 40.3901 1091.94 40.014C1092.31 39.6322 1092.57 39.135 1092.72 38.5223C1092.87 37.9091 1092.91 37.2234 1092.85 36.4652C1092.78 35.7069 1092.61 35.0403 1092.35 34.4653C1092.09 33.8897 1091.74 33.4476 1091.31 33.1391C1090.88 32.8305 1090.36 32.7036 1089.76 32.7582C1089.16 32.8134 1088.66 33.0324 1088.28 33.4152C1087.9 33.7975 1087.64 34.2952 1087.48 34.9084C1087.33 35.5211 1087.29 36.2066 1087.36 36.9648C1087.43 37.723 1087.6 38.3899 1087.85 38.9655C1088.12 39.5405 1088.47 39.9821 1088.91 40.2901C1089.35 40.592 1089.88 40.7153 1090.48 40.6601ZM1097.27 32.3305L1097.01 29.4872L1108.83 28.4106L1109.09 31.2539L1104.89 31.6367L1105.81 41.8303L1102.37 42.1443L1101.44 31.9508L1097.27 32.3305ZM1112.21 41.2477L1111.02 28.2108L1114.64 27.8814L1115.1 32.9399L1116.11 32.8471L1119.2 27.4652L1123.45 27.0785L1119.43 33.966L1124.68 40.1108L1120.39 40.5021L1116.75 36.1695L1115.4 36.2925L1115.82 40.9182L1112.21 41.2477ZM1125.45 40.0412L1125.17 37.1739L1125.6 37.1345C1125.91 37.1066 1126.16 37.0091 1126.37 36.8419C1126.58 36.6685 1126.75 36.4053 1126.86 36.0524C1126.98 35.6995 1127.06 35.2391 1127.09 34.6712C1127.12 34.0976 1127.12 33.3965 1127.07 32.5678L1126.76 26.7769L1136.67 25.8735L1137.86 38.9104L1134.41 39.2244L1133.48 29.0309L1130.27 29.324L1130.42 33.3232C1130.47 34.4199 1130.43 35.3714 1130.28 36.1775C1130.14 36.9831 1129.91 37.6547 1129.58 38.1923C1129.26 38.7243 1128.84 39.133 1128.34 39.4186C1127.83 39.7043 1127.23 39.8788 1126.53 39.9422L1125.45 40.0412ZM1146.57 38.3729C1145.26 38.493 1144.09 38.3168 1143.08 37.8443C1142.07 37.3656 1141.26 36.6464 1140.65 35.6866C1140.03 34.7212 1139.67 33.5708 1139.54 32.2354C1139.42 30.8888 1139.57 29.6881 1140 28.6335C1140.43 27.5732 1141.1 26.7194 1142 26.0721C1142.91 25.4186 1144.03 25.0318 1145.35 24.9116C1146.67 24.7915 1147.83 24.9708 1148.84 25.4495C1149.85 25.922 1150.66 26.6409 1151.28 27.6064C1151.89 28.5661 1152.26 29.7193 1152.38 31.066C1152.5 32.4014 1152.35 33.5992 1151.92 34.6595C1151.49 35.7141 1150.82 36.5682 1149.91 37.2217C1149 37.869 1147.89 38.2527 1146.57 38.3729ZM1146.34 35.5704C1146.94 35.5158 1147.42 35.3004 1147.79 34.9243C1148.16 34.5425 1148.42 34.0453 1148.57 33.4326C1148.73 32.8194 1148.77 32.1337 1148.7 31.3755C1148.63 30.6172 1148.46 29.9506 1148.2 29.3755C1147.94 28.8 1147.6 28.3579 1147.16 28.0494C1146.73 27.7408 1146.22 27.6139 1145.62 27.6685C1145.01 27.7237 1144.52 27.9427 1144.13 28.3255C1143.76 28.7078 1143.49 29.2055 1143.34 29.8187C1143.19 30.4314 1143.15 31.1169 1143.22 31.8751C1143.29 32.6333 1143.45 33.3002 1143.71 33.8758C1143.97 34.4508 1144.32 34.8924 1144.76 35.2004C1145.21 35.5023 1145.73 35.6256 1146.34 35.5704ZM1163.67 28.5312L1163.93 31.3745L1157.12 31.9948L1156.86 29.1515L1163.67 28.5312ZM1157.58 23.9676L1158.77 37.0045L1155.32 37.3193L1154.13 24.2824L1157.58 23.9676ZM1165.47 23.2491L1166.66 36.286L1163.23 36.5985L1162.04 23.5616L1165.47 23.2491ZM1175.43 35.7436C1174.09 35.8658 1172.91 35.6994 1171.89 35.2444C1170.88 34.7832 1170.07 34.0755 1169.45 33.1214C1168.84 32.1617 1168.47 30.9943 1168.35 29.6193C1168.23 28.2783 1168.38 27.0776 1168.81 26.0173C1169.24 24.9571 1169.9 24.1009 1170.79 23.449C1171.69 22.7965 1172.78 22.412 1174.06 22.2955C1174.92 22.2171 1175.73 22.2828 1176.5 22.4925C1177.27 22.6961 1177.96 23.047 1178.56 23.5453C1179.17 24.0431 1179.67 24.6938 1180.06 25.4972C1180.44 26.2949 1180.69 27.2484 1180.79 28.3574L1180.88 29.3504L1169.87 30.3536L1169.67 28.1129L1177.27 27.4199C1177.22 26.8993 1177.07 26.4484 1176.8 26.0673C1176.54 25.6862 1176.2 25.4008 1175.78 25.2111C1175.36 25.0152 1174.89 24.9412 1174.36 24.9891C1173.81 25.0392 1173.34 25.2108 1172.94 25.5041C1172.54 25.7912 1172.24 26.1578 1172.04 26.6038C1171.84 27.0442 1171.77 27.5221 1171.81 28.0375L1172 30.1679C1172.06 30.813 1172.23 31.3595 1172.51 31.8075C1172.8 32.255 1173.17 32.5859 1173.64 32.8003C1174.1 33.0147 1174.64 33.0943 1175.24 33.0392C1175.64 33.0026 1176.01 32.9125 1176.33 32.7689C1176.65 32.6253 1176.92 32.4295 1177.14 32.1815C1177.36 31.9335 1177.51 31.6398 1177.61 31.3002L1180.97 31.2162C1180.87 32.0351 1180.59 32.7685 1180.12 33.4162C1179.65 34.0578 1179.02 34.5831 1178.23 34.9923C1177.44 35.3952 1176.5 35.6457 1175.43 35.7436ZM1192.1 25.9406L1192.35 28.7839L1185.55 29.4042L1185.29 26.5609L1192.1 25.9406ZM1186.01 21.3771L1187.2 34.4139L1183.75 34.7287L1182.56 21.6918L1186.01 21.3771ZM1193.9 20.6585L1195.09 33.6954L1191.66 34.0079L1190.47 20.971L1193.9 20.6585ZM1203.81 33.1577C1202.49 33.2778 1201.32 33.1016 1200.31 32.6291C1199.3 32.1504 1198.49 31.4312 1197.88 30.4714C1197.27 29.506 1196.9 28.3556 1196.78 27.0202C1196.65 25.6736 1196.81 24.4729 1197.24 23.4183C1197.66 22.358 1198.33 21.5042 1199.24 20.8569C1200.15 20.2034 1201.26 19.8166 1202.58 19.6964C1203.9 19.5763 1205.06 19.7556 1206.07 20.2343C1207.08 20.7068 1207.89 21.4257 1208.51 22.3912C1209.12 23.3509 1209.49 24.5041 1209.61 25.8508C1209.73 27.1862 1209.58 28.384 1209.15 29.4443C1208.72 30.499 1208.05 31.353 1207.14 32.0065C1206.24 32.6538 1205.12 33.0375 1203.81 33.1577ZM1203.57 30.3552C1204.17 30.3006 1204.65 30.0852 1205.02 29.7091C1205.39 29.3273 1205.65 28.8301 1205.8 28.2174C1205.96 27.6042 1206 26.9185 1205.93 26.1603C1205.86 25.402 1205.7 24.7354 1205.43 24.1604C1205.18 23.5848 1204.83 23.1427 1204.4 22.8342C1203.96 22.5256 1203.45 22.3987 1202.85 22.4533C1202.24 22.5085 1201.75 22.7275 1201.37 23.1103C1200.99 23.4926 1200.72 23.9903 1200.57 24.6035C1200.42 25.2162 1200.38 25.9017 1200.45 26.6599C1200.52 27.4181 1200.68 28.085 1200.94 28.6606C1201.2 29.2356 1201.55 29.6772 1201.99 29.9852C1202.44 30.2871 1202.96 30.4104 1203.57 30.3552Z" fill="white"/>
<path d="M935.87 101.844C934.552 101.72 933.439 101.333 932.53 100.682C931.628 100.026 930.963 99.1701 930.538 98.1141C930.113 97.0525 929.964 95.8542 930.089 94.5192C930.216 93.1729 930.588 92.0208 931.203 91.063C931.819 90.0995 932.631 89.3829 933.64 88.913C934.655 88.438 935.821 88.2627 937.139 88.3869C938.457 88.5112 939.568 88.9013 940.47 89.5571C941.379 90.2078 942.046 91.064 942.471 92.1256C942.897 93.1816 943.046 94.3827 942.919 95.729C942.793 97.064 942.422 98.2132 941.806 99.1767C941.191 100.135 940.376 100.851 939.361 101.326C938.352 101.796 937.188 101.969 935.87 101.844ZM936.151 99.0458C936.751 99.1024 937.268 98.9799 937.701 98.6783C938.135 98.3711 938.482 97.9302 938.742 97.3554C939.007 96.7812 939.176 96.1151 939.247 95.3571C939.319 94.5991 939.278 93.9132 939.125 93.2996C938.977 92.6864 938.719 92.1883 938.349 91.8054C937.98 91.4225 937.496 91.2027 936.896 91.1462C936.291 91.0891 935.766 91.2136 935.32 91.5198C934.88 91.8264 934.528 92.2669 934.263 92.8411C934.003 93.4158 933.837 94.0822 933.766 94.8402C933.694 95.5982 933.732 96.2838 933.88 96.8969C934.033 97.5106 934.297 98.0092 934.672 98.3927C935.053 98.771 935.546 98.9887 936.151 99.0458ZM957.175 85.6194L958.056 88.0823C957.659 88.3531 957.231 88.5409 956.77 88.6459C956.31 88.7451 955.766 88.7881 955.14 88.7746C954.519 88.7617 953.764 88.7219 952.874 88.6551C951.866 88.5715 951.031 88.6554 950.368 88.9067C949.705 89.1581 949.178 89.6021 948.787 90.2386C948.396 90.8695 948.1 91.7147 947.897 92.7743L948.025 92.7863C948.49 92.0255 949.097 91.4606 949.845 91.0917C950.599 90.7234 951.499 90.5885 952.546 90.6872C953.654 90.7918 954.601 91.1265 955.387 91.6914C956.178 92.2568 956.763 93.0168 957.141 93.9712C957.519 94.9257 957.648 96.0393 957.528 97.3121C957.403 98.6358 957.034 99.7624 956.422 100.692C955.815 101.616 955.011 102.302 954.01 102.75C953.01 103.192 951.854 103.351 950.541 103.228C949.223 103.103 948.112 102.719 947.209 102.075C946.311 101.431 945.652 100.544 945.234 99.4143C944.821 98.2853 944.689 96.9317 944.838 95.3535L944.938 94.2844C945.234 91.1449 946.065 88.8748 947.43 87.474C948.795 86.0732 950.663 85.4733 953.035 85.6741C953.681 85.7236 954.264 85.7758 954.784 85.8305C955.304 85.8852 955.762 85.9027 956.157 85.883C956.559 85.8637 956.898 85.7759 957.175 85.6194ZM950.822 100.429C951.377 100.482 951.865 100.382 952.288 100.131C952.717 99.8803 953.065 99.4965 953.33 98.9793C953.601 98.4628 953.772 97.8311 953.843 97.0844C953.913 96.3434 953.862 95.7051 953.689 95.1695C953.524 94.6288 953.253 94.2038 952.877 93.8944C952.501 93.585 952.033 93.4039 951.473 93.3511C951.054 93.3116 950.671 93.3525 950.322 93.4738C949.974 93.595 949.667 93.7944 949.401 94.0718C949.142 94.3441 948.926 94.6918 948.755 95.1151C948.59 95.5333 948.482 96.0196 948.429 96.5739C948.324 97.6883 948.482 98.5906 948.902 99.2808C949.328 99.9659 949.968 100.349 950.822 100.429ZM962.549 90.9543L962.279 93.8222L958.935 93.507L959.206 90.639L962.549 90.9543ZM964.428 95.1721L968.332 95.5401C970.057 95.7028 971.361 96.2425 972.245 97.159C973.135 98.0705 973.518 99.2138 973.394 100.589C973.304 101.482 973.009 102.248 972.51 102.885C972.011 103.517 971.333 103.984 970.477 104.286C969.628 104.582 968.628 104.677 967.48 104.568L961.32 103.987L962.549 90.9543L965.994 91.2791L965.033 101.47L967.748 101.726C968.353 101.783 968.866 101.677 969.285 101.408C969.704 101.14 969.936 100.768 969.981 100.293C970.028 99.7892 969.872 99.3607 969.511 99.0071C969.151 98.6479 968.669 98.4397 968.063 98.3826L964.16 98.0146L964.428 95.1721ZM983.004 106.032L983.965 95.8331L981.522 95.6026C980.86 95.5402 980.342 95.6455 979.968 95.9184C979.594 96.1913 979.39 96.5373 979.357 96.9565C979.311 97.3802 979.441 97.7549 979.747 98.0805C980.059 98.401 980.544 98.5922 981.2 98.6541L984.882 99.0013L984.652 101.445L980.969 101.098C979.855 100.993 978.906 100.732 978.124 100.316C977.341 99.8996 976.758 99.368 976.374 98.7212C975.99 98.0686 975.839 97.3382 975.921 96.5298C975.996 95.6808 976.284 94.9574 976.785 94.3598C977.287 93.7566 977.965 93.3154 978.819 93.0364C979.679 92.7523 980.669 92.663 981.789 92.7686L987.601 93.3167L986.372 106.35L983.004 106.032ZM974.722 105.251L978.985 98.8048L982.439 99.1305L978.184 105.578L974.722 105.251ZM989.181 106.615L990.41 93.5816L995.968 94.1056C997.574 94.2571 998.815 94.6824 999.691 95.3813C1000.57 96.0802 1000.95 96.9926 1000.85 98.1182C1000.78 98.8253 1000.46 99.3888 999.89 99.8087C999.319 100.229 998.56 100.477 997.611 100.553C998.386 100.683 999.034 100.924 999.555 101.275C1000.08 101.622 1000.47 102.043 1000.71 102.54C1000.96 103.037 1001.06 103.571 1001 104.143C1000.93 104.884 1000.68 105.502 1000.23 105.996C999.79 106.491 999.178 106.844 998.393 107.055C997.614 107.267 996.682 107.322 995.595 107.22L989.181 106.615ZM992.805 104.226L995.851 104.513C996.354 104.56 996.759 104.479 997.064 104.268C997.375 104.052 997.551 103.734 997.59 103.316C997.634 102.852 997.524 102.473 997.261 102.18C997.003 101.888 996.622 101.718 996.119 101.67L993.073 101.383L992.805 104.226ZM993.273 99.2618L995.538 99.4754C995.9 99.5096 996.213 99.4877 996.477 99.4099C996.748 99.327 996.96 99.1929 997.115 99.0077C997.275 98.8231 997.368 98.595 997.393 98.3235C997.431 97.9218 997.299 97.5927 996.998 97.336C996.697 97.0793 996.267 96.9246 995.707 96.8718L993.518 96.6653L993.273 99.2618ZM1002.18 107.841L1002.44 104.971L1002.87 105.012C1003.18 105.041 1003.45 104.992 1003.68 104.866C1003.92 104.735 1004.13 104.506 1004.31 104.181C1004.49 103.855 1004.65 103.416 1004.79 102.864C1004.92 102.307 1005.05 101.616 1005.15 100.793L1005.91 95.043L1015.82 95.9776L1014.59 109.011L1011.14 108.686L1012.11 98.4952L1008.89 98.192L1008.31 102.152C1008.16 103.239 1007.94 104.166 1007.65 104.932C1007.36 105.698 1007.01 106.316 1006.59 106.784C1006.17 107.246 1005.69 107.572 1005.14 107.76C1004.59 107.948 1003.97 108.009 1003.27 107.943L1002.18 107.841ZM1023.31 110.09C1021.97 109.963 1020.84 109.583 1019.92 108.949C1019.01 108.309 1018.34 107.464 1017.92 106.414C1017.49 105.358 1017.34 104.143 1017.47 102.768C1017.6 101.428 1017.97 100.275 1018.59 99.312C1019.2 98.3485 1020.01 97.6285 1021.01 97.1519C1022.01 96.6758 1023.15 96.4981 1024.43 96.6186C1025.29 96.6997 1026.08 96.9138 1026.79 97.2608C1027.52 97.6028 1028.13 98.0742 1028.63 98.6752C1029.14 99.2767 1029.51 100.008 1029.74 100.869C1029.97 101.724 1030.04 102.706 1029.93 103.815L1029.84 104.807L1018.84 103.77L1019.05 101.53L1026.65 102.247C1026.7 101.726 1026.63 101.254 1026.44 100.831C1026.25 100.408 1025.97 100.065 1025.59 99.8008C1025.21 99.5315 1024.76 99.3721 1024.24 99.3225C1023.69 99.2707 1023.19 99.3521 1022.74 99.5667C1022.3 99.7761 1021.94 100.082 1021.66 100.484C1021.38 100.88 1021.22 101.335 1021.17 101.849L1020.96 103.979C1020.9 104.624 1020.97 105.192 1021.16 105.684C1021.36 106.177 1021.67 106.571 1022.09 106.867C1022.5 107.163 1023.02 107.34 1023.62 107.397C1024.02 107.435 1024.4 107.413 1024.74 107.331C1025.08 107.25 1025.39 107.107 1025.65 106.903C1025.9 106.699 1026.11 106.439 1026.27 106.123L1029.59 106.658C1029.34 107.446 1028.93 108.114 1028.35 108.664C1027.77 109.209 1027.05 109.61 1026.2 109.865C1025.34 110.116 1024.38 110.191 1023.31 110.09ZM1041.49 103.518L1041.22 106.36L1034.42 105.719L1034.69 102.876L1041.49 103.518ZM1036.35 97.9141L1035.13 110.947L1031.67 110.622L1032.9 97.5885L1036.35 97.9141ZM1044.24 98.6575L1043.01 111.691L1039.58 111.367L1040.81 98.3342L1044.24 98.6575ZM1049.72 107.512L1055.19 99.6901L1058.75 100.026L1057.52 113.059L1054.08 112.734L1054.86 104.444L1049.4 112.293L1045.81 111.955L1047.04 98.9219L1050.49 99.2476L1049.72 107.512ZM1066.33 114.147C1064.99 114.021 1063.87 113.64 1062.95 113.006C1062.04 112.367 1061.37 111.522 1060.95 110.472C1060.52 109.416 1060.37 108.2 1060.5 106.826C1060.63 105.485 1061 104.333 1061.62 103.37C1062.23 102.406 1063.04 101.686 1064.04 101.209C1065.04 100.733 1066.18 100.556 1067.46 100.676C1068.32 100.757 1069.11 100.971 1069.82 101.318C1070.54 101.66 1071.15 102.132 1071.66 102.733C1072.17 103.334 1072.54 104.065 1072.77 104.926C1073 105.782 1073.07 106.764 1072.96 107.872L1072.87 108.865L1061.86 107.827L1062.07 105.587L1069.68 106.304C1069.73 105.784 1069.66 105.312 1069.47 104.889C1069.28 104.466 1069 104.122 1068.61 103.858C1068.24 103.589 1067.79 103.43 1067.26 103.38C1066.72 103.328 1066.22 103.41 1065.77 103.624C1065.33 103.834 1064.97 104.139 1064.69 104.541C1064.41 104.937 1064.25 105.393 1064.19 105.907L1063.99 108.037C1063.93 108.681 1064 109.25 1064.19 109.742C1064.39 110.234 1064.7 110.628 1065.12 110.925C1065.53 111.221 1066.04 111.397 1066.65 111.454C1067.05 111.492 1067.42 111.47 1067.77 111.389C1068.11 111.307 1068.41 111.164 1068.67 110.96C1068.93 110.757 1069.14 110.497 1069.29 110.18L1072.62 110.716C1072.37 111.503 1071.96 112.172 1071.37 112.722C1070.8 113.267 1070.08 113.667 1069.22 113.923C1068.37 114.174 1067.41 114.248 1066.33 114.147ZM1086.09 116.01C1084.78 115.886 1083.66 115.499 1082.75 114.848C1081.85 114.192 1081.19 113.336 1080.76 112.28C1080.34 111.219 1080.19 110.02 1080.31 108.685C1080.44 107.339 1080.81 106.187 1081.43 105.229C1082.04 104.266 1082.86 103.549 1083.86 103.079C1084.88 102.604 1086.05 102.429 1087.36 102.553C1088.68 102.677 1089.79 103.067 1090.69 103.723C1091.6 104.374 1092.27 105.23 1092.7 106.292C1093.12 107.348 1093.27 108.549 1093.14 109.895C1093.02 111.23 1092.65 112.379 1092.03 113.343C1091.41 114.301 1090.6 115.017 1089.58 115.492C1088.58 115.962 1087.41 116.135 1086.09 116.01ZM1086.38 113.212C1086.98 113.269 1087.49 113.146 1087.93 112.844C1088.36 112.537 1088.71 112.096 1088.97 111.522C1089.23 110.947 1089.4 110.281 1089.47 109.523C1089.54 108.765 1089.5 108.079 1089.35 107.466C1089.2 106.853 1088.94 106.355 1088.57 105.972C1088.2 105.589 1087.72 105.369 1087.12 105.312C1086.52 105.255 1085.99 105.38 1085.54 105.686C1085.1 105.993 1084.75 106.433 1084.49 107.007C1084.23 107.582 1084.06 108.248 1083.99 109.006C1083.92 109.764 1083.96 110.45 1084.1 111.063C1084.26 111.677 1084.52 112.175 1084.9 112.559C1085.28 112.937 1085.77 113.155 1086.38 113.212ZM1094.58 106.273L1094.85 103.43L1106.66 104.544L1106.39 107.387L1102.19 106.991L1101.23 117.181L1097.79 116.856L1098.75 106.666L1094.58 106.273ZM1107.62 117.784L1108.85 104.751L1112.47 105.092L1111.99 110.149L1113.01 110.245L1117.03 105.522L1121.28 105.922L1116.06 111.953L1120.1 118.96L1115.8 118.555L1113.02 113.628L1111.67 113.5L1111.24 118.125L1107.62 117.784ZM1120.86 119.032L1121.11 116.163L1121.55 116.203C1121.85 116.232 1122.12 116.183 1122.36 116.057C1122.6 115.926 1122.81 115.697 1122.99 115.372C1123.17 115.046 1123.32 114.607 1123.46 114.055C1123.6 113.498 1123.72 112.807 1123.83 111.984L1124.58 106.234L1134.5 107.169L1133.27 120.202L1129.82 119.877L1130.78 109.686L1127.57 109.383L1126.99 113.343C1126.83 114.43 1126.61 115.357 1126.32 116.123C1126.04 116.889 1125.69 117.507 1125.27 117.975C1124.85 118.438 1124.36 118.763 1123.81 118.951C1123.26 119.139 1122.64 119.2 1121.95 119.134L1120.86 119.032ZM1141.93 121.276C1140.61 121.152 1139.5 120.764 1138.59 120.114C1137.69 119.458 1137.03 118.602 1136.6 117.546C1136.18 116.484 1136.03 115.286 1136.15 113.951C1136.28 112.605 1136.65 111.453 1137.27 110.495C1137.88 109.531 1138.69 108.815 1139.7 108.345C1140.72 107.87 1141.88 107.694 1143.2 107.819C1144.52 107.943 1145.63 108.333 1146.53 108.989C1147.44 109.64 1148.11 110.496 1148.53 111.557C1148.96 112.613 1149.11 113.814 1148.98 115.161C1148.86 116.496 1148.48 117.645 1147.87 118.608C1147.25 119.566 1146.44 120.283 1145.42 120.758C1144.41 121.227 1143.25 121.4 1141.93 121.276ZM1142.21 118.478C1142.81 118.534 1143.33 118.412 1143.76 118.11C1144.2 117.803 1144.54 117.362 1144.8 116.787C1145.07 116.213 1145.24 115.547 1145.31 114.789C1145.38 114.031 1145.34 113.345 1145.19 112.731C1145.04 112.118 1144.78 111.62 1144.41 111.237C1144.04 110.854 1143.56 110.634 1142.96 110.578C1142.35 110.521 1141.83 110.645 1141.38 110.951C1140.94 111.258 1140.59 111.699 1140.32 112.273C1140.07 112.848 1139.9 113.514 1139.83 114.272C1139.76 115.03 1139.79 115.715 1139.94 116.329C1140.1 116.942 1140.36 117.441 1140.73 117.824C1141.12 118.203 1141.61 118.42 1142.21 118.478ZM1160.54 114.744L1160.27 117.587L1153.47 116.945L1153.74 114.103L1160.54 114.744ZM1155.4 109.141L1154.18 122.174L1150.72 121.848L1151.95 108.815L1155.4 109.141ZM1163.29 109.884L1162.06 122.917L1158.63 122.594L1159.86 109.561L1163.29 109.884ZM1170.78 123.996C1169.44 123.87 1168.31 123.489 1167.39 122.855C1166.48 122.216 1165.81 121.371 1165.39 120.321C1164.96 119.265 1164.82 118.049 1164.95 116.675C1165.07 115.334 1165.44 114.182 1166.06 113.218C1166.67 112.255 1167.48 111.535 1168.48 111.058C1169.48 110.582 1170.62 110.405 1171.9 110.525C1172.76 110.606 1173.55 110.82 1174.26 111.167C1174.99 111.509 1175.6 111.981 1176.1 112.582C1176.61 113.183 1176.98 113.914 1177.21 114.775C1177.44 115.631 1177.51 116.612 1177.4 117.721L1177.31 118.714L1166.31 117.676L1166.52 115.436L1174.12 116.153C1174.17 115.633 1174.1 115.161 1173.91 114.738C1173.72 114.315 1173.44 113.971 1173.06 113.707C1172.68 113.438 1172.23 113.279 1171.71 113.229C1171.16 113.177 1170.66 113.259 1170.21 113.473C1169.77 113.683 1169.41 113.988 1169.13 114.39C1168.86 114.786 1168.69 115.242 1168.64 115.756L1168.43 117.885C1168.37 118.53 1168.44 119.099 1168.63 119.591C1168.83 120.083 1169.14 120.477 1169.56 120.774C1169.98 121.07 1170.49 121.246 1171.09 121.303C1171.49 121.341 1171.87 121.319 1172.21 121.238C1172.56 121.156 1172.86 121.013 1173.12 120.809C1173.37 120.606 1173.58 120.345 1173.74 120.029L1177.06 120.565C1176.81 121.352 1176.4 122.021 1175.82 122.571C1175.24 123.116 1174.52 123.516 1173.67 123.772C1172.82 124.023 1171.85 124.097 1170.78 123.996ZM1188.96 117.424L1188.7 120.267L1181.89 119.625L1182.16 116.783L1188.96 117.424ZM1183.83 111.821L1182.6 124.854L1179.14 124.528L1180.37 111.495L1183.83 111.821ZM1191.71 112.564L1190.48 125.597L1187.05 125.274L1188.28 112.241L1191.71 112.564ZM1199.15 126.671C1197.83 126.547 1196.72 126.16 1195.81 125.509C1194.9 124.853 1194.24 123.997 1193.82 122.941C1193.39 121.88 1193.24 120.681 1193.37 119.346C1193.49 118 1193.86 116.848 1194.48 115.89C1195.1 114.927 1195.91 114.21 1196.92 113.74C1197.93 113.265 1199.1 113.09 1200.42 113.214C1201.73 113.338 1202.85 113.728 1203.75 114.384C1204.66 115.035 1205.32 115.891 1205.75 116.953C1206.17 118.009 1206.32 119.21 1206.2 120.556C1206.07 121.891 1205.7 123.04 1205.08 124.004C1204.47 124.962 1203.65 125.678 1202.64 126.153C1201.63 126.623 1200.47 126.796 1199.15 126.671ZM1199.43 123.873C1200.03 123.929 1200.54 123.807 1200.98 123.505C1201.41 123.198 1201.76 122.757 1202.02 122.182C1202.28 121.608 1202.45 120.942 1202.52 120.184C1202.6 119.426 1202.56 118.74 1202.4 118.127C1202.25 117.513 1202 117.015 1201.63 116.632C1201.26 116.25 1200.77 116.03 1200.17 115.973C1199.57 115.916 1199.04 116.041 1198.6 116.347C1198.16 116.653 1197.81 117.094 1197.54 117.668C1197.28 118.243 1197.11 118.909 1197.04 119.667C1196.97 120.425 1197.01 121.111 1197.16 121.724C1197.31 122.338 1197.57 122.836 1197.95 123.22C1198.33 123.598 1198.82 123.816 1199.43 123.873Z" fill="white"/>
<path d="M180.897 30.0267C179.58 29.8945 178.469 29.5003 177.564 28.8441C176.665 28.1828 176.006 27.323 175.587 26.2644C175.169 25.2003 175.026 24.0011 175.16 22.6669C175.295 21.3214 175.673 20.1716 176.295 19.2175C176.916 18.2577 177.733 17.546 178.745 17.0822C179.762 16.6134 180.93 16.4451 182.247 16.5773C183.564 16.7096 184.672 17.1063 185.571 17.7676C186.476 18.4238 187.138 19.2839 187.556 20.3481C187.975 21.4066 188.117 22.6086 187.982 23.9542C187.848 25.2884 187.47 26.4353 186.849 27.3951C186.227 28.3492 185.408 29.0606 184.39 29.5295C183.379 29.9932 182.214 30.159 180.897 30.0267ZM181.195 27.23C181.794 27.2902 182.311 27.1708 182.747 26.8719C183.183 26.5673 183.532 26.1285 183.796 25.5553C184.064 24.9827 184.237 24.3176 184.313 23.5601C184.389 22.8025 184.352 22.1164 184.202 21.5018C184.059 20.8878 183.803 20.3882 183.436 20.003C183.07 19.6179 182.587 19.3952 181.987 19.335C181.382 19.2743 180.856 19.3957 180.409 19.6991C179.967 20.0031 179.612 20.4414 179.343 21.014C179.08 21.5872 178.911 22.2525 178.835 23.0101C178.759 23.7676 178.793 24.4534 178.936 25.0675C179.086 25.6821 179.347 26.1822 179.719 26.568C180.098 26.9486 180.59 27.1693 181.195 27.23ZM202.299 13.9308L203.165 16.399C202.767 16.6674 202.337 16.8526 201.876 16.9548C201.415 17.0513 200.871 17.0909 200.245 17.0737C199.624 17.0571 198.869 17.0127 197.98 16.9405C196.972 16.8508 196.137 16.9296 195.472 17.177C194.808 17.4244 194.278 17.8651 193.883 18.4993C193.489 19.1278 193.187 19.9712 192.978 21.0295L193.105 21.0423C193.576 20.2843 194.186 19.7232 194.936 19.3588C195.692 18.995 196.593 18.8656 197.639 18.9706C198.747 19.0819 199.692 19.4223 200.474 19.9919C201.262 20.5621 201.842 21.3256 202.215 22.2823C202.587 23.2391 202.709 24.3534 202.581 25.6255C202.449 26.9484 202.073 28.0727 201.455 28.9985C200.843 29.9193 200.035 30.6005 199.031 31.0422C198.028 31.4783 196.871 31.6305 195.559 31.4988C194.242 31.3665 193.133 30.9754 192.233 30.3255C191.339 29.6761 190.686 28.7854 190.275 27.6534C189.869 26.5219 189.745 25.1675 189.903 23.5902L190.01 22.5218C190.325 19.3841 191.169 17.119 192.543 15.7265C193.916 14.334 195.788 13.7454 198.159 13.9606C198.805 14.014 199.387 14.0696 199.907 14.1275C200.426 14.1854 200.884 14.2056 201.28 14.1882C201.681 14.1714 202.021 14.0856 202.299 13.9308ZM195.857 28.7021C196.411 28.7577 196.9 28.6612 197.325 28.4126C197.755 28.1646 198.105 27.7828 198.374 27.2673C198.648 26.7524 198.823 26.1218 198.898 25.3755C198.972 24.6349 198.925 23.9963 198.756 23.4597C198.593 22.9181 198.325 22.4914 197.951 22.1797C197.577 21.8681 197.11 21.6841 196.55 21.628C196.132 21.5859 195.748 21.6245 195.399 21.7437C195.05 21.8628 194.742 22.0603 194.475 22.3361C194.213 22.6068 193.996 22.9533 193.822 23.3755C193.654 23.7927 193.543 24.2783 193.487 24.8323C193.375 25.9461 193.527 26.8493 193.943 27.542C194.365 28.2297 195.003 28.6163 195.857 28.7021ZM207.641 19.2981L207.353 22.1644L204.012 21.8289L204.3 18.9626L207.641 19.2981ZM209.495 23.5272L213.395 23.9188C215.12 24.0919 216.421 24.6394 217.299 25.5613C218.184 26.4781 218.56 27.6237 218.427 28.998C218.332 29.8907 218.033 30.6544 217.529 31.2891C217.026 31.9181 216.346 32.3809 215.488 32.6774C214.637 32.9687 213.637 33.0568 212.49 32.9416L206.333 32.3235L207.641 19.2981L211.084 19.6437L210.061 29.8283L212.775 30.1008C213.38 30.1615 213.893 30.0588 214.313 29.7927C214.734 29.5266 214.968 29.1561 215.016 28.6812C215.066 28.178 214.912 27.7486 214.554 27.3928C214.196 27.0314 213.715 26.8204 213.11 26.7596L209.209 26.368L209.495 23.5272ZM228.004 34.4992L229.027 24.3061L226.585 24.0609C225.924 23.9945 225.405 24.0967 225.03 24.3673C224.654 24.638 224.448 24.9828 224.412 25.4017C224.364 25.8251 224.491 26.2006 224.795 26.528C225.106 26.8504 225.589 27.0445 226.245 27.1104L229.925 27.4799L229.68 29.9221L225.999 29.5526C224.886 29.4408 223.939 29.1744 223.159 28.7535C222.379 28.3326 221.799 27.7975 221.418 27.1483C221.039 26.4935 220.892 25.7621 220.979 24.9543C221.059 24.1057 221.351 23.3841 221.856 22.7896C222.362 22.1893 223.042 21.7523 223.898 21.4784C224.759 21.1995 225.75 21.1162 226.869 21.2286L232.678 21.8118L231.37 34.8372L228.004 34.4992ZM219.727 33.6683L224.029 27.2477L227.481 27.5942L223.187 34.0156L219.727 33.6683ZM234.177 35.119L235.485 22.0936L241.04 22.6512C242.645 22.8124 243.884 23.2451 244.755 23.9494C245.627 24.6536 246.006 25.5682 245.893 26.6932C245.822 27.3999 245.5 27.9615 244.927 28.3779C244.354 28.7944 243.593 29.0377 242.644 29.108C243.419 29.2429 244.065 29.4877 244.583 29.8424C245.108 30.192 245.491 30.6158 245.732 31.114C245.979 31.6128 246.074 32.1476 246.016 32.7186C245.942 33.4592 245.68 34.0754 245.231 34.5671C244.788 35.0593 244.173 35.4087 243.387 35.6154C242.607 35.8225 241.674 35.8716 240.588 35.7627L234.177 35.119ZM237.816 32.7519L240.86 33.0575C241.363 33.108 241.768 33.0288 242.074 32.8197C242.387 32.6055 242.565 32.2893 242.607 31.8709C242.653 31.4074 242.546 31.0282 242.284 30.7336C242.028 30.4395 241.648 30.2672 241.145 30.2167L238.101 29.911L237.816 32.7519ZM238.314 27.791L240.578 28.0183C240.94 28.0547 241.253 28.0347 241.517 27.9585C241.788 27.8772 242.002 27.7444 242.157 27.5602C242.318 27.3765 242.412 27.149 242.44 26.8776C242.48 26.4762 242.35 26.1463 242.051 25.8878C241.751 25.6293 241.322 25.4719 240.762 25.4158L238.574 25.1961L238.314 27.791ZM247.173 36.4238L247.444 33.5558L247.876 33.5992C248.182 33.6299 248.452 33.5828 248.687 33.4579C248.929 33.328 249.14 33.1008 249.321 32.7763C249.502 32.4519 249.663 32.0141 249.804 31.4629C249.946 30.9061 250.072 30.2164 250.183 29.3938L250.974 23.6486L260.879 24.6431L259.571 37.6685L256.128 37.3228L257.151 27.1382L253.937 26.8156L253.334 30.7723C253.173 31.8583 252.946 32.7834 252.653 33.5477C252.365 34.3125 252.009 34.9277 251.585 35.3934C251.162 35.8535 250.676 36.1758 250.126 36.3605C249.576 36.5451 248.954 36.6026 248.259 36.5327L247.173 36.4238ZM268.282 38.8C266.942 38.6655 265.816 38.2784 264.904 37.6386C263.998 36.9937 263.335 36.1448 262.915 35.092C262.496 34.0334 262.356 32.8173 262.494 31.4435C262.628 30.1037 263.006 28.9539 263.628 27.9941C264.25 27.0344 265.061 26.3192 266.062 25.8487C267.068 25.3787 268.211 25.2078 269.488 25.3361C270.348 25.4224 271.134 25.6412 271.846 25.9926C272.565 26.3389 273.174 26.814 273.673 27.418C274.178 28.0226 274.544 28.756 274.772 29.6183C275 30.4749 275.058 31.4572 274.947 32.5653L274.847 33.5575L263.849 32.4532L264.073 30.2145L271.671 30.9773C271.724 30.4572 271.657 29.9851 271.471 29.561C271.285 29.1369 271.003 28.7916 270.624 28.5252C270.252 28.2537 269.803 28.0915 269.277 28.0387C268.728 27.9837 268.23 28.0621 267.78 28.2739C267.337 28.4807 266.975 28.7841 266.695 29.1843C266.416 29.5788 266.247 30.033 266.19 30.5469L265.976 32.6754C265.911 33.3199 265.974 33.8887 266.165 34.3817C266.361 34.8754 266.666 35.2715 267.082 35.5702C267.497 35.8689 268.007 36.0486 268.612 36.1093C269.014 36.1496 269.387 36.13 269.732 36.0504C270.077 35.9708 270.379 35.8299 270.639 35.6276C270.899 35.4253 271.108 35.1664 271.265 34.851L274.584 35.4069C274.334 36.1927 273.916 36.8588 273.33 37.4053C272.751 37.9467 272.031 38.3427 271.172 38.5934C270.32 38.839 269.356 38.9079 268.282 38.8ZM286.507 32.3383L286.222 35.1792L279.421 34.4963L279.706 31.6555L286.507 32.3383ZM281.403 26.7036L280.095 39.729L276.644 39.3825L277.951 26.3571L281.403 26.7036ZM289.281 27.4945L287.973 40.52L284.547 40.176L285.855 27.1506L289.281 27.4945ZM294.706 36.3821L300.224 28.5933L303.786 28.9508L302.478 41.9763L299.035 41.6306L299.867 33.3455L294.363 41.1615L290.776 40.8014L292.083 27.7759L295.535 28.1224L294.706 36.3821ZM311.285 43.1174C309.945 42.9829 308.819 42.5957 307.907 41.9559C307.001 41.3111 306.338 40.4622 305.918 39.4093C305.499 38.3508 305.358 37.1346 305.496 35.7609C305.631 34.421 306.009 33.2712 306.631 32.3115C307.252 31.3517 308.064 30.6366 309.065 30.166C310.071 29.6961 311.213 29.5252 312.491 29.6535C313.35 29.7397 314.136 29.9586 314.849 30.3099C315.568 30.6562 316.177 31.1314 316.676 31.7354C317.181 32.3399 317.547 33.0734 317.774 33.9356C318.002 34.7922 318.061 35.7746 317.949 36.8826L317.85 37.8748L306.851 36.7706L307.076 34.5318L314.674 35.2947C314.726 34.7746 314.659 34.3025 314.474 33.8784C314.288 33.4543 314.005 33.109 313.627 32.8426C313.254 32.571 312.805 32.4089 312.279 32.3561C311.731 32.301 311.232 32.3794 310.783 32.5913C310.339 32.798 309.978 33.1015 309.698 33.5016C309.418 33.8962 309.25 34.3504 309.192 34.8642L308.979 36.9928C308.914 37.6372 308.977 38.206 309.167 38.6991C309.363 39.1927 309.669 39.5889 310.084 39.8876C310.5 40.1862 311.01 40.3659 311.615 40.4267C312.016 40.467 312.389 40.4473 312.734 40.3677C313.079 40.2882 313.382 40.1472 313.642 39.9449C313.902 39.7426 314.111 39.4838 314.268 39.1684L317.587 39.7243C317.337 40.5101 316.919 41.1762 316.333 41.7226C315.753 42.264 315.034 42.6601 314.175 42.9107C313.322 43.1563 312.359 43.2252 311.285 43.1174ZM331.033 45.1C329.715 44.9678 328.604 44.5736 327.7 43.9174C326.801 43.2561 326.142 42.3962 325.723 41.3377C325.304 40.2735 325.162 39.0744 325.296 37.7402C325.431 36.3946 325.809 35.2448 326.43 34.2908C327.052 33.331 327.869 32.6193 328.88 32.1555C329.898 31.6867 331.066 31.5184 332.383 31.6506C333.7 31.7829 334.808 32.1796 335.707 32.8409C336.612 33.497 337.273 34.3572 337.692 35.4214C338.111 36.4799 338.253 37.6819 338.118 39.0274C337.984 40.3616 337.606 41.5086 336.984 42.4684C336.363 43.4224 335.544 44.1339 334.526 44.6028C333.514 45.0665 332.35 45.2323 331.033 45.1ZM331.331 42.3033C331.93 42.3635 332.447 42.2441 332.883 41.9452C333.319 41.6406 333.668 41.2018 333.931 40.6286C334.2 40.056 334.373 39.3909 334.449 38.6334C334.525 37.8758 334.488 37.1897 334.338 36.5751C334.194 35.9611 333.939 35.4615 333.572 35.0763C333.206 34.6912 332.723 34.4685 332.123 34.4083C331.518 34.3476 330.992 34.469 330.545 34.7724C330.103 35.0764 329.748 35.5147 329.479 36.0873C329.216 36.6604 329.047 37.3258 328.97 38.0834C328.894 38.8409 328.928 39.5267 329.072 40.1408C329.222 40.7554 329.483 41.2555 329.855 41.6413C330.234 42.0219 330.726 42.2426 331.331 42.3033ZM339.579 35.4139L339.865 32.573L351.669 33.7582L351.384 36.599L347.186 36.1776L346.163 46.3622L342.721 46.0165L343.743 35.8319L339.579 35.4139ZM352.551 47.0035L353.859 33.978L357.471 34.3407L356.964 39.3949L357.981 39.497L362.034 34.7988L366.274 35.2245L361.02 41.224L365.017 48.255L360.726 47.8242L357.976 42.8799L356.628 42.7445L356.164 47.3661L352.551 47.0035ZM365.78 48.3316L366.051 45.4636L366.483 45.5071C366.789 45.5377 367.059 45.4906 367.294 45.3658C367.536 45.2358 367.747 45.0086 367.928 44.6842C368.109 44.3597 368.27 43.9219 368.411 43.3708C368.552 42.8139 368.679 42.1242 368.79 41.3017L369.581 35.5565L379.486 36.5509L378.178 49.5763L374.735 49.2307L375.757 39.0461L372.544 38.7234L371.941 42.6801C371.78 43.7661 371.553 44.6913 371.259 45.4555C370.971 46.2203 370.616 46.8356 370.192 47.3013C369.769 47.7613 369.283 48.0837 368.733 48.2683C368.183 48.453 367.561 48.5104 366.865 48.4406L365.78 48.3316ZM386.838 50.7028C385.521 50.5705 384.41 50.1763 383.505 49.5201C382.606 48.8589 381.947 47.999 381.528 46.9405C381.11 45.8763 380.967 44.6771 381.101 43.3429C381.237 41.9974 381.615 40.8476 382.236 39.8935C382.857 38.9338 383.674 38.222 384.686 37.7582C385.704 37.2894 386.871 37.1211 388.188 37.2533C389.506 37.3856 390.614 37.7823 391.512 38.4436C392.417 39.0998 393.079 39.96 393.497 41.0241C393.916 42.0827 394.058 43.2847 393.923 44.6302C393.789 45.9644 393.412 47.1113 392.79 48.0711C392.169 49.0252 391.349 49.7366 390.331 50.2055C389.32 50.6693 388.155 50.835 386.838 50.7028ZM387.136 47.906C387.735 47.9662 388.253 47.8468 388.688 47.5479C389.124 47.2434 389.474 46.8045 389.737 46.2313C390.006 45.6587 390.178 44.9936 390.254 44.2361C390.33 43.4785 390.293 42.7925 390.144 42.1778C390 41.5638 389.744 41.0642 389.378 40.679C389.011 40.2939 388.528 40.0712 387.929 40.0111C387.324 39.9503 386.798 40.0717 386.35 40.3751C385.909 40.6791 385.553 41.1174 385.285 41.69C385.022 42.2632 384.852 42.9285 384.776 43.6861C384.7 44.4436 384.734 45.1294 384.878 45.7435C385.027 46.3581 385.288 46.8583 385.661 47.244C386.039 47.6246 386.531 47.8453 387.136 47.906ZM405.487 44.2836L405.202 47.1245L398.401 46.4417L398.686 43.6008L405.487 44.2836ZM400.383 38.6489L399.075 51.6744L395.624 51.3278L396.931 38.3024L400.383 38.6489ZM408.261 39.4399L406.953 52.4653L403.527 52.1213L404.835 39.0959L408.261 39.4399ZM415.666 53.597C414.326 53.4625 413.2 53.0754 412.288 52.4356C411.382 51.7907 410.719 50.9418 410.3 49.889C409.88 48.8305 409.74 47.6143 409.878 46.2405C410.012 44.9007 410.39 43.7509 411.012 42.7911C411.634 41.8314 412.445 41.1163 413.446 40.6457C414.453 40.1757 415.595 40.0049 416.872 40.1331C417.732 40.2194 418.518 40.4382 419.23 40.7896C419.949 41.1359 420.558 41.611 421.057 42.215C421.562 42.8196 421.928 43.553 422.156 44.4153C422.384 45.2719 422.442 46.2542 422.331 47.3623L422.231 48.3545L411.233 47.2502L411.457 45.0115L419.056 45.7743C419.108 45.2542 419.041 44.7821 418.855 44.358C418.669 43.9339 418.387 43.5887 418.008 43.3222C417.636 43.0507 417.187 42.8886 416.661 42.8358C416.113 42.7807 415.614 42.8591 415.164 43.0709C414.721 43.2777 414.359 43.5811 414.079 43.9813C413.8 44.3758 413.631 44.83 413.574 45.3439L413.36 47.4724C413.296 48.1169 413.358 48.6857 413.549 49.1788C413.745 49.6724 414.05 50.0685 414.466 50.3672C414.881 50.6659 415.391 50.8456 415.996 50.9063C416.398 50.9466 416.771 50.927 417.116 50.8474C417.461 50.7678 417.763 50.6269 418.023 50.4246C418.283 50.2223 418.492 49.9634 418.649 49.648L421.968 50.204C421.718 50.9897 421.3 51.6558 420.714 52.2023C420.135 52.7437 419.415 53.1397 418.556 53.3904C417.704 53.636 416.74 53.7049 415.666 53.597ZM433.891 47.1353L433.606 49.9762L426.805 49.2934L427.09 46.4525L433.891 47.1353ZM428.787 41.5006L427.479 54.5261L424.028 54.1795L425.335 41.1541L428.787 41.5006ZM436.665 42.2916L435.357 55.317L431.931 54.973L433.239 41.9476L436.665 42.2916ZM444.019 56.4436C442.702 56.3114 441.591 55.9172 440.686 55.261C439.788 54.5997 439.129 53.7398 438.71 52.6813C438.291 51.6171 438.149 50.418 438.283 49.0838C438.418 47.7382 438.796 46.5884 439.417 45.6344C440.039 44.6746 440.855 43.9629 441.867 43.4991C442.885 43.0303 444.052 42.862 445.37 42.9942C446.687 43.1265 447.795 43.5232 448.694 44.1845C449.598 44.8406 450.26 45.7008 450.679 46.765C451.098 47.8235 451.24 49.0255 451.105 50.371C450.971 51.7052 450.593 52.8522 449.971 53.812C449.35 54.766 448.531 55.4775 447.513 55.9464C446.501 56.4101 445.337 56.5759 444.019 56.4436ZM444.317 53.6469C444.917 53.7071 445.434 53.5877 445.869 53.2888C446.305 52.9842 446.655 52.5454 446.918 51.9722C447.187 51.3996 447.359 50.7345 447.435 49.977C447.511 49.2194 447.475 48.5333 447.325 47.9187C447.181 47.3047 446.926 46.8051 446.559 46.4199C446.192 46.0348 445.709 45.8121 445.11 45.7519C444.505 45.6912 443.979 45.8126 443.532 46.116C443.09 46.42 442.735 46.8583 442.466 47.4309C442.203 48.004 442.033 48.6694 441.957 49.427C441.881 50.1845 441.915 50.8703 442.059 51.4844C442.209 52.099 442.47 52.5991 442.842 52.9849C443.221 53.3655 443.712 53.5862 444.317 53.6469Z" fill="white"/>
<path d="M182.634 126.681C181.317 126.813 180.15 126.647 179.133 126.183C178.121 125.712 177.305 125 176.684 124.046C176.063 123.085 175.686 121.938 175.553 120.604C175.419 119.258 175.562 118.056 175.982 116.998C176.401 115.934 177.06 115.075 177.96 114.42C178.865 113.759 179.976 113.362 181.293 113.231C182.611 113.1 183.775 113.269 184.787 113.739C185.804 114.203 186.623 114.915 187.244 115.875C187.865 116.83 188.242 117.98 188.376 119.326C188.509 120.66 188.366 121.859 187.947 122.923C187.527 123.981 186.865 124.841 185.96 125.502C185.06 126.157 183.952 126.55 182.634 126.681ZM182.372 123.881C182.971 123.821 183.455 123.602 183.823 123.223C184.19 122.838 184.445 122.338 184.59 121.724C184.74 121.11 184.777 120.424 184.701 119.666C184.626 118.909 184.454 118.243 184.186 117.671C183.923 117.097 183.574 116.658 183.138 116.353C182.702 116.048 182.184 115.926 181.585 115.986C180.98 116.046 180.488 116.269 180.11 116.655C179.737 117.041 179.476 117.541 179.326 118.155C179.182 118.769 179.147 119.455 179.223 120.212C179.298 120.97 179.467 121.635 179.73 122.209C179.999 122.782 180.353 123.22 180.795 123.524C181.241 123.823 181.767 123.941 182.372 123.881ZM200.424 106.665L201.761 108.912C201.424 109.254 201.04 109.521 200.608 109.713C200.175 109.898 199.65 110.045 199.033 110.152C198.421 110.259 197.672 110.365 196.786 110.47C195.781 110.582 194.977 110.825 194.375 111.199C193.773 111.573 193.341 112.11 193.08 112.81C192.818 113.504 192.689 114.39 192.694 115.469L192.821 115.457C193.132 114.62 193.619 113.95 194.282 113.444C194.951 112.937 195.808 112.632 196.854 112.528C197.962 112.417 198.956 112.564 199.836 112.967C200.721 113.37 201.441 114.003 201.995 114.867C202.55 115.731 202.89 116.8 203.017 118.072C203.149 119.395 203.004 120.571 202.581 121.601C202.163 122.625 201.506 123.453 200.61 124.084C199.713 124.711 198.609 125.089 197.297 125.22C195.98 125.351 194.816 125.187 193.805 124.728C192.8 124.269 191.984 123.525 191.356 122.497C190.734 121.469 190.344 120.166 190.187 118.588L190.08 117.52C189.767 114.382 190.146 111.995 191.216 110.358C192.287 108.721 194.005 107.773 196.372 107.514C197.015 107.438 197.597 107.378 198.118 107.331C198.639 107.285 199.091 107.214 199.476 107.119C199.866 107.023 200.182 106.872 200.424 106.665ZM197.035 122.419C197.589 122.364 198.05 122.173 198.417 121.845C198.79 121.517 199.057 121.073 199.218 120.515C199.385 119.955 199.431 119.303 199.357 118.556C199.283 117.816 199.11 117.199 198.838 116.707C198.572 116.208 198.224 115.843 197.796 115.612C197.367 115.38 196.873 115.292 196.313 115.348C195.895 115.39 195.526 115.504 195.208 115.69C194.89 115.876 194.627 116.13 194.419 116.453C194.217 116.771 194.072 117.153 193.986 117.602C193.904 118.044 193.891 118.542 193.946 119.096C194.057 120.21 194.385 121.065 194.93 121.661C195.48 122.252 196.182 122.505 197.035 122.419ZM206.723 110.867L207.008 113.734L203.667 114.067L203.381 111.2L206.723 110.867ZM209.378 114.645L213.279 114.257C215.003 114.085 216.387 114.363 217.43 115.093C218.479 115.817 219.075 116.865 219.217 118.238C219.301 119.132 219.158 119.94 218.791 120.662C218.422 121.378 217.847 121.966 217.065 122.427C216.288 122.881 215.326 123.166 214.178 123.28L208.021 123.894L206.723 110.867L210.166 110.524L211.181 120.709L213.895 120.439C214.5 120.379 214.982 120.176 215.342 119.832C215.702 119.488 215.858 119.078 215.81 118.604C215.76 118.1 215.524 117.71 215.103 117.432C214.68 117.149 214.167 117.037 213.562 117.098L209.661 117.486L209.378 114.645ZM229.694 121.733L228.677 111.539L226.235 111.783C225.574 111.849 225.086 112.052 224.771 112.391C224.457 112.731 224.323 113.11 224.37 113.528C224.407 113.952 224.607 114.295 224.97 114.556C225.338 114.81 225.85 114.905 226.505 114.839L230.186 114.472L230.43 116.915L226.749 117.282C225.635 117.393 224.654 117.319 223.806 117.061C222.958 116.803 222.284 116.394 221.782 115.833C221.281 115.266 220.992 114.578 220.917 113.769C220.827 112.922 220.971 112.156 221.348 111.474C221.725 110.785 222.305 110.222 223.089 109.784C223.879 109.34 224.833 109.062 225.953 108.95L231.762 108.371L233.06 121.398L229.694 121.733ZM221.416 122.558L224.361 115.413L227.813 115.069L224.877 122.213L221.416 122.558ZM235.868 121.118L234.569 108.091L240.124 107.538C241.73 107.378 243.029 107.556 244.023 108.074C245.017 108.592 245.57 109.413 245.682 110.538C245.752 111.245 245.548 111.859 245.069 112.381C244.59 112.902 243.892 113.292 242.976 113.549C243.762 113.527 244.444 113.639 245.022 113.884C245.605 114.123 246.065 114.463 246.4 114.903C246.74 115.343 246.939 115.849 246.996 116.42C247.07 117.16 246.936 117.816 246.593 118.387C246.256 118.957 245.722 119.422 244.993 119.78C244.269 120.138 243.365 120.37 242.279 120.479L235.868 121.118ZM238.965 118.077L242.009 117.773C242.512 117.723 242.894 117.565 243.153 117.3C243.417 117.028 243.528 116.683 243.486 116.264C243.44 115.801 243.259 115.45 242.945 115.213C242.635 114.976 242.229 114.882 241.726 114.932L238.682 115.236L238.965 118.077ZM238.47 113.116L240.734 112.89C241.096 112.854 241.399 112.772 241.644 112.645C241.893 112.512 242.076 112.339 242.192 112.128C242.313 111.916 242.361 111.674 242.334 111.403C242.294 111.001 242.101 110.704 241.756 110.51C241.411 110.316 240.959 110.247 240.399 110.302L238.211 110.521L238.47 113.116ZM248.864 119.822L248.562 116.957L248.994 116.914C249.299 116.884 249.555 116.784 249.761 116.615C249.972 116.44 250.134 116.175 250.247 115.822C250.36 115.468 250.431 115.007 250.46 114.438C250.489 113.865 250.476 113.164 250.422 112.335L250.059 106.547L259.964 105.56L261.263 118.586L257.82 118.929L256.804 108.744L253.59 109.065L253.783 113.062C253.841 114.159 253.802 115.11 253.665 115.918C253.535 116.724 253.308 117.398 252.985 117.938C252.661 118.473 252.248 118.885 251.746 119.175C251.244 119.465 250.645 119.645 249.95 119.714L248.864 119.822ZM270.026 117.97C268.686 118.103 267.505 117.947 266.484 117.5C265.469 117.048 264.651 116.347 264.031 115.398C263.41 114.444 263.032 113.279 262.895 111.906C262.761 110.566 262.904 109.364 263.323 108.3C263.742 107.236 264.396 106.374 265.284 105.715C266.177 105.055 267.263 104.661 268.541 104.534C269.4 104.448 270.214 104.507 270.982 104.71C271.755 104.907 272.446 105.252 273.055 105.745C273.67 106.238 274.174 106.884 274.568 107.684C274.961 108.479 275.213 109.43 275.323 110.538L275.422 111.53L264.423 112.627L264.199 110.388L271.798 109.63C271.746 109.11 271.587 108.661 271.321 108.282C271.055 107.903 270.71 107.621 270.286 107.434C269.867 107.242 269.395 107.172 268.869 107.225C268.32 107.279 267.847 107.455 267.448 107.752C267.055 108.042 266.76 108.411 266.565 108.859C266.369 109.301 266.294 109.779 266.34 110.295L266.552 112.423C266.616 113.068 266.791 113.613 267.075 114.058C267.365 114.503 267.743 114.831 268.209 115.042C268.676 115.252 269.211 115.327 269.816 115.267C270.218 115.227 270.579 115.134 270.902 114.987C271.224 114.841 271.493 114.643 271.708 114.393C271.922 114.143 272.076 113.848 272.167 113.508L275.531 113.395C275.441 114.215 275.163 114.951 274.697 115.602C274.236 116.248 273.61 116.779 272.818 117.195C272.03 117.604 271.1 117.863 270.026 117.97ZM286.61 108.025L286.893 110.867L280.091 111.545L279.808 108.704L286.61 108.025ZM280.49 103.514L281.788 116.54L278.337 116.884L277.038 103.858L280.49 103.514ZM288.368 102.728L289.667 115.755L286.241 116.096L284.942 103.07L288.368 102.728ZM295.446 110.365L299.313 101.637L302.875 101.282L304.173 114.309L300.73 114.652L299.904 106.366L296.057 115.118L292.47 115.475L291.171 102.449L294.623 102.105L295.446 110.365ZM313.031 113.682C311.691 113.816 310.511 113.66 309.49 113.213C308.474 112.761 307.656 112.06 307.036 111.111C306.416 110.157 306.037 108.992 305.9 107.618C305.767 106.279 305.909 105.077 306.329 104.013C306.748 102.949 307.402 102.087 308.289 101.428C309.183 100.768 310.268 100.374 311.546 100.246C312.406 100.161 313.219 100.22 313.988 100.423C314.761 100.62 315.452 100.965 316.061 101.458C316.675 101.951 317.179 102.597 317.573 103.397C317.966 104.192 318.218 105.143 318.329 106.251L318.428 107.243L307.428 108.34L307.205 106.101L314.804 105.343C314.752 104.823 314.593 104.374 314.327 103.995C314.06 103.616 313.715 103.333 313.291 103.147C312.873 102.955 312.4 102.885 311.874 102.937C311.326 102.992 310.852 103.168 310.454 103.464C310.06 103.755 309.766 104.124 309.571 104.572C309.375 105.014 309.3 105.492 309.345 106.007L309.558 108.136C309.622 108.781 309.796 109.326 310.08 109.771C310.37 110.216 310.748 110.544 311.215 110.754C311.681 110.965 312.217 111.04 312.822 110.98C313.223 110.94 313.585 110.846 313.907 110.7C314.23 110.554 314.498 110.356 314.713 110.106C314.928 109.856 315.081 109.561 315.173 109.221L318.536 109.108C318.447 109.928 318.169 110.664 317.703 111.315C317.242 111.961 316.615 112.492 315.823 112.907C315.036 113.317 314.105 113.575 313.031 113.682ZM332.781 111.714C331.463 111.845 330.296 111.679 329.279 111.215C328.267 110.745 327.451 110.032 326.831 109.078C326.21 108.118 325.833 106.97 325.7 105.636C325.565 104.291 325.708 103.089 326.128 102.03C326.547 100.966 327.207 100.107 328.107 99.4521C329.011 98.7909 330.122 98.3946 331.44 98.2633C332.757 98.132 333.922 98.3014 334.934 98.7715C335.95 99.2354 336.769 99.9475 337.391 100.908C338.011 101.862 338.388 103.012 338.522 104.358C338.655 105.692 338.512 106.891 338.093 107.955C337.673 109.013 337.011 109.873 336.106 110.534C335.206 111.189 334.098 111.582 332.781 111.714ZM332.519 108.913C333.118 108.854 333.601 108.634 333.969 108.255C334.336 107.87 334.592 107.371 334.736 106.757C334.886 106.142 334.923 105.456 334.848 104.698C334.772 103.941 334.6 103.276 334.332 102.703C334.069 102.13 333.72 101.69 333.284 101.386C332.848 101.081 332.331 100.958 331.731 101.018C331.127 101.078 330.635 101.301 330.257 101.687C329.884 102.073 329.622 102.573 329.472 103.187C329.328 103.801 329.294 104.487 329.369 105.245C329.445 106.002 329.614 106.668 329.877 107.241C330.145 107.814 330.5 108.252 330.941 108.557C331.388 108.855 331.914 108.974 332.519 108.913ZM339.239 100.526L338.956 97.6854L350.761 96.5085L351.044 99.3496L346.846 99.768L347.861 109.953L344.418 110.297L343.403 100.111L339.239 100.526ZM354.25 109.317L352.951 96.2902L356.564 95.9301L357.068 100.985L358.085 100.883L361.126 95.4752L365.367 95.0525L361.406 101.974L366.716 108.074L362.425 108.502L358.75 104.2L357.402 104.334L357.862 108.956L354.25 109.317ZM367.479 107.998L367.177 105.133L367.609 105.09C367.915 105.059 368.17 104.96 368.376 104.791C368.587 104.615 368.749 104.351 368.862 103.997C368.975 103.643 369.046 103.182 369.075 102.614C369.104 102.04 369.091 101.339 369.037 100.511L368.674 94.7228L378.58 93.7353L379.878 106.762L376.435 107.105L375.42 96.9196L372.206 97.24L372.398 101.238C372.456 102.334 372.417 103.286 372.281 104.093C372.15 104.9 371.923 105.573 371.6 106.114C371.276 106.648 370.863 107.061 370.361 107.351C369.859 107.641 369.26 107.82 368.565 107.889L367.479 107.998ZM388.59 106.15C387.273 106.281 386.105 106.115 385.089 105.651C384.077 105.181 383.26 104.469 382.64 103.514C382.019 102.554 381.642 101.407 381.509 100.073C381.375 98.727 381.518 97.5251 381.937 96.4669C382.357 95.403 383.016 94.5435 383.916 93.8886C384.821 93.2274 385.932 92.8311 387.249 92.6998C388.566 92.5685 389.731 92.7379 390.743 93.208C391.76 93.6719 392.579 94.384 393.2 95.3441C393.82 96.2987 394.198 97.4487 394.332 98.7943C394.465 100.129 394.322 101.328 393.902 102.392C393.483 103.45 392.82 104.31 391.915 104.971C391.016 105.626 389.907 106.019 388.59 106.15ZM388.328 103.35C388.927 103.29 389.411 103.071 389.778 102.691C390.145 102.306 390.401 101.807 390.545 101.193C390.695 100.579 390.733 99.8926 390.657 99.135C390.582 98.3773 390.41 97.7121 390.141 97.1393C389.879 96.566 389.529 96.1269 389.093 95.822C388.658 95.5171 388.14 95.3946 387.541 95.4543C386.936 95.5146 386.444 95.7378 386.066 96.1238C385.693 96.5093 385.432 97.0093 385.282 97.6238C385.137 98.2377 385.103 98.9235 385.179 99.6811C385.254 100.439 385.423 101.104 385.686 101.678C385.954 102.25 386.309 102.689 386.751 102.993C387.197 103.291 387.723 103.41 388.328 103.35ZM405.598 96.1638L405.881 99.0048L399.08 99.6828L398.796 96.8418L405.598 96.1638ZM399.478 91.652L400.777 104.678L397.325 105.022L396.027 91.9961L399.478 91.652ZM407.357 90.8666L408.655 103.893L405.229 104.234L403.931 91.2082L407.357 90.8666ZM417.42 103.276C416.08 103.41 414.9 103.253 413.879 102.807C412.863 102.354 412.045 101.654 411.425 100.705C410.805 99.7502 410.426 98.586 410.289 97.2121C410.155 95.8722 410.298 94.6703 410.718 93.6064C411.137 92.5425 411.79 91.6808 412.678 91.0213C413.572 90.3613 414.657 89.9675 415.935 89.8402C416.794 89.7545 417.608 89.8133 418.376 90.0165C419.15 90.2134 419.841 90.5585 420.45 91.0517C421.064 91.5443 421.568 92.1907 421.962 92.9908C422.355 93.7853 422.607 94.7366 422.718 95.8447L422.816 96.8369L411.817 97.9335L411.594 95.6945L419.192 94.9371C419.141 94.4169 418.982 93.9674 418.715 93.5885C418.449 93.2096 418.104 92.9271 417.68 92.741C417.261 92.5486 416.789 92.4787 416.263 92.5311C415.715 92.5858 415.241 92.7614 414.843 93.0581C414.449 93.3486 414.155 93.7177 413.959 94.1654C413.764 94.6075 413.689 95.086 413.734 95.6011L413.946 97.7297C414.011 98.3743 414.185 98.9193 414.469 99.3649C414.759 99.81 415.137 100.138 415.604 100.348C416.07 100.559 416.606 100.634 417.211 100.573C417.612 100.533 417.974 100.44 418.296 100.294C418.618 100.148 418.887 99.9495 419.102 99.6996C419.317 99.4498 419.47 99.1547 419.562 98.8144L422.925 98.7018C422.836 99.5216 422.558 100.257 422.092 100.909C421.631 101.555 421.004 102.085 420.212 102.501C419.425 102.911 418.494 103.169 417.42 103.276ZM434.004 93.332L434.287 96.1731L427.486 96.8511L427.203 94.0101L434.004 93.332ZM427.884 88.8203L429.183 101.847L425.731 102.191L424.433 89.1643L427.884 88.8203ZM435.763 88.0349L437.061 101.061L433.635 101.403L432.337 88.3764L435.763 88.0349ZM445.775 100.449C444.458 100.581 443.291 100.415 442.274 99.9506C441.262 99.4805 440.446 98.7682 439.825 97.8136C439.204 96.8535 438.827 95.7062 438.694 94.3719C438.56 93.0263 438.703 91.8244 439.123 90.7662C439.542 89.7023 440.202 88.8429 441.101 88.1879C442.006 87.5267 443.117 87.1304 444.434 86.9991C445.752 86.8678 446.916 87.0372 447.928 87.5073C448.945 87.9712 449.764 88.6833 450.385 89.6435C451.006 90.598 451.383 91.748 451.517 93.0936C451.65 94.4279 451.507 95.627 451.088 96.6909C450.668 97.7491 450.006 98.6088 449.101 99.27C448.201 99.925 447.093 100.318 445.775 100.449ZM445.513 97.6492C446.113 97.5894 446.596 97.3699 446.964 96.9907C447.331 96.6058 447.586 96.1064 447.731 95.4924C447.881 94.8779 447.918 94.1919 447.842 93.4343C447.767 92.6767 447.595 92.0115 447.327 91.4387C447.064 90.8653 446.715 90.4262 446.279 90.1213C445.843 89.8165 445.325 89.6939 444.726 89.7536C444.121 89.814 443.63 90.0371 443.251 90.4231C442.878 90.8086 442.617 91.3086 442.467 91.9231C442.323 92.537 442.288 93.2228 442.364 93.9804C442.439 94.738 442.609 95.4035 442.871 95.9769C443.14 96.5497 443.495 96.9882 443.936 97.2925C444.383 97.5906 444.908 97.7095 445.513 97.6492Z" fill="white"/>
</g>
<defs>
<clipPath id="clip0_5_2">
<rect width="1390" height="145" fill="white"/>
</clipPath>
</defs>
</svg>
